SplineFontDB: 3.0
FontName: Tuffy-Bold-Italic
FullName: Tuffy Bold Italic
FamilyName: Tuffy
Weight: Bold
Copyright: Created by Thatcher Ulrich (http://tulrich.com), Karoly Barta (bartakarcsi@gmail.com) and Michael Everson with FontForge  (http://fontforge.sf.net)\n\nThis font, including hint instructions, has been donated to the Public Domain.  Do whatever you want with it.\n
FontLog: "2012-06-13: Small fixes.+AAoA-2010-08-20: Merged accented and extended characters from Karoly Barta and Michael Everson.+AAoA-2004-9-1: Created.+AAoA" 
Version: 001.280
DefaultBaseFilename: Tuffy_Bold
ItalicAngle: 12
UnderlinePosition: -204
UnderlineWidth: 102
Ascent: 1597
Descent: 451
LayerCount: 2
Layer: 0 0 "Back"  1
Layer: 1 0 "Fore"  0
NeedsXUIDChange: 1
XUID: [1021 745 1046372284 8541740]
FSType: 0
OS2Version: 0
OS2_WeightWidthSlopeOnly: 0
OS2_UseTypoMetrics: 1
CreationTime: 1166531129
ModificationTime: 1339688093
PfmFamily: 33
TTFWeight: 700
TTFWidth: 5
LineGap: 0
VLineGap: 0
Panose: 2 11 8 3 6 1 0 0 0 0
OS2TypoAscent: 1597
OS2TypoAOffset: 0
OS2TypoDescent: -505
OS2TypoDOffset: 0
OS2TypoLinegap: 0
OS2WinAscent: 1950
OS2WinAOffset: 0
OS2WinDescent: 451
OS2WinDOffset: 0
HheadAscent: 1950
HheadAOffset: 0
HheadDescent: -505
HheadDOffset: 0
OS2Vendor: 'PfEd'
Lookup: 1 0 0 "'locl' Localized Forms lookup 2"  {"'locl' Localized Forms lookup 2-1"  } ['locl' ('DFLT' <'MOL ' 'ROM ' 'dflt' > 'latn' <'MOL ' 'ROM ' 'dflt' > ) ]
Lookup: 2 0 0 "'frac' Diagonal Fractions in Latin lookup 1"  {"'frac' Diagonal Fractions in Latin lookup 1-2"  "'frac' Diagonal Fractions in Latin lookup 1-1"  } ['frac' ('latn' <'dflt' > ) ]
Lookup: 4 0 1 "'liga' Standard Ligatures in Latin lookup 2"  {"'liga' Standard Ligatures in Latin lookup 2-1"  } ['liga' ('latn' <'dflt' > ) ]
Lookup: 258 0 0 "'kern' Horizontal Kerning in Latin lookup 0"  {"'kern' Horizontal Kerning in Latin lookup 0 subtable" [307,30,0] } ['kern' ('latn' <'dflt' > ) ]
MarkAttachClasses: 1
DEI: 91125
ShortTable: cvt  2
  33
  633
EndShort

StartChar: exclam
Encoding: 33 33 1
Width: 457
Flags: W
HStem: -33 328<176.75 345.647> 1463 20G<520.5 570.953>
VStem: 97 571.864
LayerCount: 2
Fore
SplineSet
426 440 m 1
 419 406 343 381 314 381 c 0
 283.686989939 381 226.45370901 403.433559057 226.45370901 434.700103142 c 0
 226.45370901 436.440159481 226.630970951 438.20757319 227 440 c 1
 387 1389 l 1
 398 1442 495 1483 546 1483 c 0
 595.905761516 1483 668.864285882 1444.87427683 668.864285882 1399.51341854 c 0
 668.864285882 1396.70097145 668.583818582 1393.86071105 668 1391 c 1
 426 440 l 1
97 131 m 0
 116 222 206 295 296 295 c 0
 375.20237678 295 428.649100792 239.701098466 428.649100792 165.365412502 c 0
 428.649100792 154.292709252 427.463240013 142.79762322 425 131 c 0
 406 41 317 -33 226 -33 c 0
 147.535969452 -33 93.3943254317 23.2455188455 93.3943254317 97.3028468796 c 0
 93.3943254317 108.190932387 94.5646286713 119.464030548 97 131 c 0
EndSplineSet
EndChar

StartChar: quotedbl
Encoding: 34 34 2
Width: 874
Flags: W
HStem: 1044 498<459.979 570.324 834.143 945.324>
VStem: 380.988 191.012<1057.94 1145.62> 755 192<1057.94 1145.62>
LayerCount: 2
Back
SplineSet
674.390625 1091.58007812 m 1
 733.572265625 1466.37011719 l 1
 744.0703125 1515.74023438 785.876953125 1542.25 821.512695312 1542.25 c 0
 822.8359375 1542.25 824.15234375 1542.21972656 825.456054688 1542.13964844 c 0
 857.302734375 1542.13964844 885.252929688 1523.79980469 885.250976562 1485.79003906 c 0
 885.252929688 1479.80957031 884.555664062 1473.33007812 883.076171875 1466.37011719 c 1
 782.934570312 1091.58007812 l 1
 774.356445312 1060.86035156 742.203125 1044.48046875 717.626953125 1044.48046875 c 0
 695.26953125 1044.48046875 673.73828125 1056.34960938 673.737304688 1083.16015625 c 0
 673.736328125 1085.8203125 673.948242188 1088.62988281 674.390625 1091.58007812 c 1
381.526367188 1091.58007812 m 1
 440.708007812 1466.37011719 l 1
 451.206054688 1515.74023438 493.013671875 1542.25 528.649414062 1542.25 c 0
 529.971679688 1542.25 531.2890625 1542.21972656 532.591796875 1542.13964844 c 0
 564.4375 1542.13964844 592.388671875 1523.79980469 592.38671875 1485.79003906 c 0
 592.389648438 1479.80957031 591.692382812 1473.33007812 590.212890625 1466.37011719 c 1
 490.0703125 1091.58007812 l 1
 481.493164062 1060.86035156 449.338867188 1044.48046875 424.762695312 1044.48046875 c 0
 402.405273438 1044.48046875 380.874023438 1056.34960938 380.873046875 1083.16015625 c 0
 380.872070312 1085.8203125 381.083007812 1088.62988281 381.526367188 1091.58007812 c 1
EndSplineSet
Fore
SplineSet
382 1092 m 2
 441 1466 l 1
 452 1516 534 1542 570 1542 c 0
 571 1542 572 1542 574 1542 c 0
 606 1542 674 1524 674 1486 c 0
 675 1480 673 1473 672 1466 c 2
 572 1092 l 2
 563 1061 490 1044 466 1044 c 0
 443.180842809 1044 380.988231181 1055.81203633 380.988231181 1082.36589936 c 0
 380.988231181 1085.67040675 380.929186812 1088.78756044 382 1092 c 2
756 1092 m 2
 816 1466 l 1
 827 1516 909 1542 945 1542 c 0
 946 1542 947 1542 949 1542 c 0
 982.967304621 1542 1049.27254249 1523.71028856 1049.27254249 1482.45984838 c 0
 1049.27254249 1477.32623792 1047.80901699 1471.66311896 1047 1466 c 2
 947 1092 l 2
 938 1061 865 1044 840 1044 c 0
 818 1044 755 1056 755 1083 c 0
 756 1086 755 1089 756 1092 c 2
EndSplineSet
EndChar

StartChar: numbersign
Encoding: 35 35 3
Width: 1565
Flags: HMW
LayerCount: 2
Back
SplineSet
1074.69335938 546.81640625 m 0
 1146.52050781 884.736328125 l 0
 804.504882812 884.736328125 l 0
 732.677734375 546.81640625 l 0
 1074.69335938 546.81640625 l 0
1194.16210938 405.50390625 m 0
 1119.28808594 53.248046875 l 1
 969.782226562 53.248046875 l 1
 1044.65625 405.50390625 l 0
 702.640625 405.50390625 l 0
 627.766601562 53.248046875 l 1
 478.262695312 53.248046875 l 1
 553.13671875 405.50390625 l 0
 204.9765625 405.50390625 l 1
 235.013671875 546.81640625 l 1
 583.172851562 546.81640625 l 0
 655 884.736328125 l 0
 306.840820312 884.736328125 l 1
 336.442382812 1024 l 1
 684.6015625 1024 l 0
 765.135742188 1402.87988281 l 1
 914.639648438 1402.87988281 l 1
 834.10546875 1024 l 0
 1176.12207031 1024 l 0
 1256.65527344 1402.87988281 l 1
 1406.16113281 1402.87988281 l 1
 1325.62792969 1024 l 0
 1686.078125 1024 l 1
 1656.4765625 884.736328125 l 1
 1296.02636719 884.736328125 l 0
 1224.19921875 546.81640625 l 0
 1584.64941406 546.81640625 l 1
 1554.61230469 405.50390625 l 1
 1194.16210938 405.50390625 l 0
EndSplineSet
Fore
SplineSet
1206 356 m 1
 1140 47 l 1
 886 47 l 1
 952 356 l 1
 767 356 l 1
 701 47 l 1
 447 47 l 1
 513 356 l 1
 195 356 l 1
 246 596 l 1
 564 596 l 1
 615 836 l 1
 297 836 l 1
 347 1073 l 1
 665 1073 l 1
 735 1403 l 1
 989 1403 l 1
 919 1073 l 1
 1104 1073 l 1
 1174 1403 l 1
 1428 1403 l 1
 1358 1073 l 1
 1669 1073 l 1
 1619 836 l 1
 1308 836 l 1
 1257 596 l 1
 1568 596 l 1
 1517 356 l 1
 1206 356 l 1
1003 596 m 1
 1054 836 l 1
 869 836 l 1
 818 596 l 1
 1003 596 l 1
EndSplineSet
EndChar

StartChar: dollar
Encoding: 36 36 4
Width: 927
Flags: W
HStem: -26 251<417.914 428 648 749.664> 1073 21G<922.5 1003.78>
VStem: 255.16 279.864<910.897 1110.36> 827.523 281.212<298.058 536.363>
LayerCount: 2
Back
SplineSet
91.4443359375 343.497070312 m 1
 356.759765625 426.393554688 l 1
 393.897460938 282.624023438 418.008789062 212.9921875 575.705078125 212.9921875 c 1
 729.3046875 212.9921875 800.579101562 278.528320312 824.95703125 393.215820312 c 1
 849.220703125 507.37109375 772.953125 578.865234375 598.102539062 626.688476562 c 0
 420.760742188 675.807617188 208.658203125 769.688476562 263.584960938 1028.09960938 c 1
 321.604492188 1301.05957031 565.251953125 1409.63964844 812.814453125 1409.63964844 c 1
 1042.32324219 1409.63964844 1162.33398438 1331.23046875 1212.75097656 1151.04003906 c 1
 933.201171875 1073.13964844 l 1
 906.930664062 1149.37988281 872.758789062 1169.41015625 758.517578125 1169.41015625 c 1
 648.650390625 1169.41015625 565.296875 1156.44042969 538.017578125 1028.09960938 c 1
 510.28125 897.611328125 663.716796875 863.309570312 760.182617188 831.053710938 c 0
 952.7890625 760.940429688 1158.55273438 671.549804688 1099.390625 393.215820312 c 1
 1041.92871094 122.879882812 804.9140625 -28.671875 524.337890625 -28.671875 c 1
 247.857421875 -28.671875 136.454101562 102.400390625 91.4443359375 343.497070312 c 1
EndSplineSet
Fore
SplineSet
725 578 m 1
 648 217 l 1
 756 240 806 309 823 387 c 0
 825.328443139 398.124783888 827.523018441 412.797065493 827.523018441 429.33710848 c 0
 827.523018441 476.728361197 809.5063869 539.453227028 725 578 c 1
622 885 m 1
 682 1167 l 1
 590 1157 548 1077 541 1044 c 0
 536.983537422 1025.52427214 535.023901228 1009.26669038 535.023901228 994.83849396 c 0
 535.023901228 937.421397964 566.057619024 908.975306133 622 885 c 1
759 1537 m 1
 929 1537 l 1
 900 1404 l 1
 1065 1391 1166 1309 1217 1155 c 1
 935 1073 l 1
 910 1128 902 1145 848 1159 c 1
 777 823 l 1
 939.031877557 764.318184885 1108.73485207 684.924407979 1108.73485207 480.006717954 c 0
 1108.73485207 450.959504121 1105.32496878 419.390107658 1098 385 c 0
 1052 170 866 0 596 -26 c 1
 569 -155 l 1
 401 -155 l 1
 428 -26 l 1
 211 -8 111 186 93 344 c 1
 357 426 l 1
 377 348 403 238 482 225 c 1
 570 639 l 1
 394.67845468 679.591687833 255.159935984 769.412537274 255.159935984 955.488827338 c 0
 255.159935984 984.865160703 258.637258361 1016.64053902 266 1051 c 0
 309 1255 527 1393 731 1405 c 1
 759 1537 l 1
EndSplineSet
EndChar

StartChar: percent
Encoding: 37 37 5
Width: 1435
Flags: W
HStem: 63 207<1020.54 1166.36> 479 205<1049.47 1187.85> 768 207<539.199 685.495> 1184 205<568.509 706.534>
VStem: 315.634 218.395<980.963 1148.04> 713.9 223.464<1005.22 1175.04> 796.889 219.075<275.977 443.922> 1195.83 221.489<301.163 470.621>
LayerCount: 2
Back
SplineSet
959.8671875 372.736328125 m 0
 941.583984375 286.719726562 982.515625 219.135742188 1068.52832031 219.135742188 c 0
 1148.3984375 219.135742188 1229.48339844 282.624023438 1248.63769531 372.736328125 c 0
 1265.61523438 452.608398438 1216.92578125 522.240234375 1132.95507812 522.240234375 c 0
 1055.13378906 522.240234375 976.844726562 452.608398438 959.8671875 372.736328125 c 0
830.84375 372.736328125 m 0
 862.62109375 522.240234375 1009.13671875 643.072265625 1160.68945312 643.072265625 c 0
 1312.23925781 643.072265625 1409.43554688 522.240234375 1377.65722656 372.736328125 c 0
 1345.87988281 223.232421875 1197.75097656 104.448242188 1046.20117188 104.448242188 c 0
 894.649414062 104.448242188 799.065429688 223.232421875 830.84375 372.736328125 c 0
450.16015625 1077.25 m 0
 431.876953125 991.232421875 474.85546875 923.6484375 560.87109375 923.6484375 c 0
 640.743164062 923.6484375 721.822265625 987.135742188 740.9765625 1077.25 c 0
 757.953125 1157.12011719 709.265625 1226.75 625.297851562 1226.75 c 0
 547.473632812 1226.75 467.137695312 1157.12011719 450.16015625 1077.25 c 0
323.184570312 1077.25 m 0
 354.961914062 1226.75 501.4765625 1347.58007812 653.029296875 1347.58007812 c 0
 804.581054688 1347.58007812 901.77734375 1226.75 870.000976562 1077.25 c 0
 838.221679688 927.744140625 690.09375 808.959960938 538.541992188 808.959960938 c 0
 386.990234375 808.959960938 291.40625 927.744140625 323.184570312 1077.25 c 0
442.862304688 137.215820312 m 1
 293.358398438 137.215820312 l 1
 1265.43066406 1318.91015625 l 0
 1408.79296875 1318.91015625 l 1
 442.862304688 137.215820312 l 1
EndSplineSet
Fore
SplineSet
510 119 m 1xf9
 300 119 l 1
 1230 1337 l 1
 1431 1337 l 1
 510 119 l 1xf9
323 1076 m 0
 360 1249 524 1389 692 1389 c 0
 838.282138931 1389 937.363436059 1283.36002073 937.363436059 1142.76718257 c 0xfd
 937.363436059 1120.93287943 934.973732897 1098.25556192 930 1075 c 0
 894 904 729 768 560 768 c 0
 414.594925565 768 315.634133005 869.877779595 315.634133005 1008.79814041 c 0
 315.634133005 1030.3853871 318.023736631 1052.86710002 323 1076 c 0
537 1075 m 0
 534.987496091 1065.24709644 534.029474829 1056.11729627 534.029474829 1047.65141006 c 0
 534.029474829 1001.43093256 562.585591656 975 604 975 c 0
 653 975 697 1009 711 1075 c 0
 712.953306687 1084.44098232 713.899769856 1093.69649346 713.899769856 1102.57676663 c 0
 713.899769856 1148.25181685 688.861222139 1184 647 1184 c 0
 601 1184 549 1133 537 1075 c 0
804 370 m 0
 841 544 1004 684 1173 684 c 0
 1317.67464207 684 1417.31916031 578.929711063 1417.31916031 438.357468926 c 0
 1417.31916031 416.665169739 1414.94633679 394.127466597 1410 371 c 0
 1374 200 1208 63 1041 63 c 0
 894.533333333 63 796.888888889 165.151111111 796.888888889 303.706074074 c 0xfb
 796.888888889 325.022222222 799.2 347.2 804 370 c 0
1019 371 m 0
 1016.94415377 361.037052866 1015.96369014 351.699328178 1015.96369014 343.038240385 c 0
 1015.96369014 296.93154475 1043.74895888 270 1085 270 c 0
 1134 270 1179 305 1193 371 c 0
 1194.9084108 380.223985532 1195.83043799 389.245635965 1195.83043799 397.89601571 c 0
 1195.83043799 443.638828962 1170.04828833 479 1128 479 c 0
 1081 479 1031 429 1019 371 c 0
EndSplineSet
EndChar

StartChar: ampersand
Encoding: 38 38 6
Width: 1284
Flags: W
HStem: -53 241<464.599 755.591> 358 217<720 848 1091.89 1261> 707 239<639.315 877> 1278 242<687.275 919.176>
VStem: 132.445 272.519<246.463 510.723> 336.873 271.292<976.813 1199.41>
LayerCount: 2
Back
SplineSet
1012.80566406 1228.79980469 m 17xf4
 1003.77246094 1292.29003906 913.99609375 1351.6796875 827.98046875 1351.6796875 c 1
 719.436523438 1351.6796875 591.99609375 1282.04980469 560.65234375 1134.58984375 c 1xf4
 527.569335938 978.944335938 616.65234375 897.024414062 747.724609375 897.024414062 c 1
 917.708007812 897.024414062 l 1
 887.671875 755.711914062 l 1
 721.783203125 755.711914062 l 2
 535.416015625 755.711914062 371.645507812 630.784179688 328.984375 430.080078125 c 0
 290.241210938 247.807617188 408.53125 110.591796875 574.418945312 110.591796875 c 1
 744.403320312 110.591796875 887.950195312 256 920.1640625 407.551757812 c 1xfa
 705.124023438 407.551757812 l 1
 734.725585938 546.81640625 l 1
 1256.96972656 546.81640625 l 1
 1226.93261719 405.50390625 l 1xf1
 1069.23242188 405.50390625 l 1
 1032.23046875 231.423828125 855.678710938 -30.7197265625 544.3828125 -30.7197265625 c 1
 308.862304688 -30.7197265625 106.861328125 126.975585938 168.241210938 415.744140625 c 0xfa
 227.879882812 696.3203125 416.404296875 802.81640625 530.171875 827.391601562 c 1
 448.202148438 856.064453125 365.51953125 958.463867188 402.95703125 1134.58984375 c 0
 446.48828125 1339.38964844 640.928710938 1492.99023438 860.064453125 1492.99023438 c 0
 1032.09667969 1492.99023438 1124.84082031 1409.01953125 1153.84082031 1304.58007812 c 9
 1012.80566406 1228.79980469 l 17xf4
EndSplineSet
Fore
SplineSet
959 1167 m 1xf4
 946 1214 899 1278 813 1278 c 0
 731 1278 636 1227 613 1118 c 0
 609.726386758 1102.58673765 608.164443684 1088.17815127 608.164443684 1074.7869296 c 0xf4
 608.164443684 990.002436415 670.776455726 946 758 946 c 2
 928 946 l 1
 877 707 l 1
 711 707 l 2
 568 707 444 585 411 428 c 0
 406.942403509 409.016244988 404.963818292 390.494492482 404.963818292 372.699502088 c 0
 404.963818292 267.697725447 473.853239974 188 591 188 c 0
 749 188 830 272 848 358 c 1
 674 358 l 1
 720 575 l 1
 1306 575 l 1
 1261 360 l 1
 1103 360 l 1
 1068 197 874 -53 540 -53 c 0
 307.016028553 -53 132.444517238 91.8629011261 132.444517238 303.232893704 c 0xf8
 132.444517238 331.371557855 135.538327385 360.688881186 142 391 c 0
 208 701 394 795 474 828 c 1
 419.845127109 852.068832396 336.872602401 926.383826933 336.872602401 1052.21532653 c 0
 336.872602401 1072.76741258 339.086040495 1094.69379206 344 1118 c 0
 396 1364 626 1520 866 1520 c 0
 1061 1520 1164 1410 1193 1274 c 1
 959 1167 l 1xf4
EndSplineSet
EndChar

StartChar: quotesingle
Encoding: 39 39 7
Width: 464
Flags: W
HStem: 1044 498<459.979 570.324>
VStem: 380.988 191.012<1057.94 1145.62>
LayerCount: 2
Back
SplineSet
342.100585938 1050.62011719 m 1
 447.8828125 1548.29003906 l 1
 597.38671875 1548.29003906 l 1
 491.604492188 1050.62011719 l 1
 342.100585938 1050.62011719 l 1
EndSplineSet
Fore
SplineSet
382 1092 m 2
 441 1466 l 1
 452 1516 534 1542 570 1542 c 0
 571 1542 572 1542 574 1542 c 0
 608.954799622 1542 674.272542486 1523.71028856 674.272542486 1482.45984838 c 0
 674.272542486 1477.32623792 672.809016994 1471.66311896 672 1466 c 2
 572 1092 l 2
 563 1061 490 1044 466 1044 c 0
 443.180842809 1044 380.988231181 1055.81203633 380.988231181 1082.36589936 c 0
 380.988231181 1085.67040675 380.929186812 1088.78756044 382 1092 c 2
EndSplineSet
EndChar

StartChar: parenleft
Encoding: 40 40 8
Width: 653
Flags: W
VStem: 146.936 269.1<122.339 752.874>
LayerCount: 2
Back
SplineSet
250.440429688 -83.9677734375 m 1
 140.143554688 167.935546875 128.23046875 458.751953125 187.869140625 739.328125 c 0
 242.71875 997.375976562 390.065429688 1314.8203125 600.43359375 1562.62011719 c 1
 778.609375 1562.62011719 l 1
 537.264648438 1294.33984375 394.270507812 997.375976562 337.244140625 729.087890625 c 0
 281.524414062 466.944335938 308.515625 169.984375 428.616210938 -83.9677734375 c 1
 250.440429688 -83.9677734375 l 1
EndSplineSet
Fore
SplineSet
271 -84 m 1
 181.212234064 71.196072247 146.935600848 230.281459525 146.935600848 394.72785982 c 0
 146.935600848 506.838139444 162.866499921 621.440080274 188 739 c 0
 245 1006 368 1307 621 1563 c 1
 885 1563 l 1
 644 1294 501 997 444 729 c 0
 425.477498972 642.341155905 416.035320865 551.853259975 416.035320865 460.358782665 c 0
 416.035320865 275.233449206 454.691073632 85.98722748 535 -84 c 1
 271 -84 l 1
EndSplineSet
EndChar

StartChar: parenright
Encoding: 41 41 9
Width: 643
Flags: W
VStem: 525.444 267.355<688.464 1345.28>
LayerCount: 2
Back
SplineSet
235.540039062 -96.255859375 m 1
 59.412109375 -96.255859375 l 1
 284.98828125 155.6484375 442.880859375 464.896484375 498.6015625 727.040039062 c 0
 550.838867188 972.799804688 529.072265625 1294.33984375 409.407226562 1550.33984375 c 1
 585.53515625 1550.33984375 l 1
 690.557617188 1302.53027344 705.002929688 985.087890625 650.153320312 727.040039062 c 0
 591.8203125 452.608398438 450.005859375 151.551757812 235.540039062 -96.255859375 c 1
EndSplineSet
Fore
SplineSet
320 -96 m 1
 60 -96 l 1
 286 156 443 465 499 727 c 0
 516.333333333 809 525.444444444 899.222222222 525.444444444 992.555555556 c 0
 525.444444444 1179.22222222 489 1378.33333333 409 1549 c 1
 670 1549 l 1
 758.743955179 1392.32101706 792.799611723 1219.53520645 792.799611723 1047.83643656 c 0
 792.799611723 938.99416471 779.114445206 830.588717016 757 727 c 0
 697 443 579 160 320 -96 c 1
EndSplineSet
EndChar

StartChar: asterisk
Encoding: 42 42 10
Width: 1172
Flags: W
HStem: 604 231<271.087 537 938 1205.34>
LayerCount: 2
Back
SplineSet
757.99609375 645.393554688 m 5
 896.568359375 332 l 5
 912.365234375 288.69921875 845.709960938 227.681640625 810.708007812 209.681640625 c 4
 809.735351562 209.181640625 808.762695312 208.681640625 806.819335938 207.681640625 c 4
 775.705078125 191.681640625 700.012695312 171.271484375 680.229492188 200.1796875 c 4
 676.388671875 204.375976562 674.176757812 210.438476562 671.965820312 216.5 c 5
 573.258789062 550.393554688 l 5
 565.409179688 578.240234375 628.099609375 627.962890625 651.434570312 639.962890625 c 4
 673.797851562 651.462890625 740.7890625 673.5703125 754.1796875 652.688476562 c 4
 756.100585938 650.58984375 757.047851562 647.991210938 757.99609375 645.393554688 c 5
689.9453125 551.711914062 m 5
 450.053710938 217.318359375 l 5
 415.849609375 174.016601562 339.5625 190 312.211914062 208 c 4
 311.452148438 208.5 310.692382812 209 309.172851562 210 c 4
 284.860351562 226 242.473632812 277.588867188 262.389648438 314.498046875 c 4
 264.974609375 320.693359375 269.762695312 326.755859375 274.551757812 332.818359375 c 5
 545.592773438 646.711914062 l 5
 568.317382812 672.55859375 633.129882812 652.28125 651.364257812 640.28125 c 4
 668.838867188 628.78125 710.013671875 585.888671875 695.341796875 560.005859375 c 4
 694.049804688 556.908203125 691.997070312 554.309570312 689.9453125 551.711914062 c 5
546.428710938 635 m 5
 407.856445312 948.393554688 l 5
 392.060546875 991.6953125 458.713867188 1052.70996094 493.716796875 1070.70996094 c 4
 494.688476562 1071.20996094 495.661132812 1071.70996094 497.60546875 1072.70996094 c 4
 528.719726562 1088.70996094 604.411132812 1109.12011719 624.194335938 1080.20996094 c 4
 628.036132812 1076.01953125 630.248046875 1069.95996094 632.458007812 1063.88964844 c 5
 731.166015625 730 l 5
 739.016601562 702.153320312 676.32421875 652.430664062 652.990234375 640.430664062 c 4
 630.625976562 628.930664062 563.634765625 606.823242188 550.244140625 627.706054688 c 4
 548.32421875 629.803710938 547.375976562 632.40234375 546.428710938 635 c 5
614.409179688 729 m 5
 854.299804688 1063.38964844 l 5
 888.504882812 1106.70019531 964.791015625 1090.70996094 992.141601562 1072.70996094 c 4
 992.901367188 1072.20996094 993.661132812 1071.70996094 995.180664062 1070.70996094 c 4
 1019.4921875 1054.70996094 1061.87988281 1003.12011719 1041.96386719 966.213867188 c 4
 1039.37890625 960.018554688 1034.59082031 953.956054688 1029.80175781 947.893554688 c 5
 758.760742188 634 l 5
 736.036132812 608.153320312 671.22265625 628.430664062 652.990234375 640.430664062 c 4
 635.515625 651.930664062 594.33984375 694.823242188 609.01171875 720.706054688 c 4
 610.3046875 723.803710938 612.356445312 726.40234375 614.409179688 729 c 5
720.016601562 734 m 5
 1098.48046875 755 l 5
 1148.48046875 755 1158.11328125 678 1150.4609375 642 c 4
 1150.24902344 641 1150.03613281 640 1149.61132812 638 c 4
 1142.80957031 606 1109.50488281 534 1069.8046875 526 c 4
 1063.37988281 524 1056.37988281 524 1049.37988281 524 c 5
 679.630859375 544 l 5
 649.055664062 546 646.934570312 616 652.036132812 640 c 4
 656.924804688 663 682.741210938 728 710.803710938 733 c 4
 714.016601562 734 717.016601562 734 720.016601562 734 c 5
583.84375 545 m 5
 205.379882812 524 l 5
 155.379882812 524 145.74609375 601 153.3984375 637 c 4
 153.611328125 638 153.823242188 639 154.249023438 641 c 4
 161.05078125 673 194.354492188 745 234.0546875 753 c 4
 240.48046875 755 247.48046875 755 254.48046875 755 c 5
 624.229492188 735 l 5
 654.803710938 733 656.924804688 663 651.823242188 639 c 4
 646.934570312 616 621.119140625 551 593.055664062 546 c 4
 589.84375 545 586.84375 545 583.84375 545 c 5
EndSplineSet
Fore
SplineSet
938 821 m 1
 1184 835 l 1
 1224.08936415 835 1238.46421441 785.499560773 1238.46421441 747.320514467 c 0
 1238.46421441 737.882135156 1237.58570174 729.135657814 1236 722 c 0
 1236 721 1236 720 1236 718 c 0
 1229 686 1196 614 1156 606 c 0
 1150 604 1142 604 1135 604 c 2
 892 617 l 1
 983 412 l 1
 985 404 985 396 983 387 c 0
 975 348 926 304 897 290 c 0
 896 289 894 289 893 288 c 0
 873 278 836 266 806 266 c 0
 789 266 774 270 767 280 c 1
 763 284 760 290 758 296 c 2
 693 516 l 1
 536 297 l 1
 520 277 494 270 469 270 c 0
 440 270 412 279 398 288 c 0
 397 288 397 289 396 290 c 0
 375.85484886 302.819641634 343.132411116 340.793856478 343.132411116 373.978758945 c 0
 343.132411116 377.034232596 343.409820817 380.049104086 344 383 c 0
 345 387 346 391 349 394 c 1
 351 401 356 407 361 413 c 2
 537 618 l 1
 291 604 l 1
 250.910635852 604 236.535785589 653.500439227 236.535785589 691.679485533 c 0
 236.535785589 701.117864844 237.414298264 709.864342186 239 717 c 0
 239 718 240 719 240 721 c 0
 247 753 280 825 320 833 c 0
 326 835 333 835 340 835 c 2
 586 822 l 1
 494 1028 l 1
 492 1036 491 1045 493 1053 c 0
 501 1092 552 1136 580 1151 c 0
 581 1151 582 1152 584 1153 c 0
 603 1163 641 1175 671 1175 c 0
 689 1175 703 1171 711 1160 c 0
 714 1156 716 1150 718 1144 c 2
 784 925 l 1
 940 1143 l 1
 956 1164 982 1171 1008 1171 c 0
 1036 1171 1064 1162 1078 1153 c 0
 1079 1152 1080 1152 1082 1151 c 0
 1102.0539557 1137.32684838 1132.90976019 1100.38817631 1132.90976019 1067.45081138 c 0
 1132.90976019 1064.25455563 1132.61919591 1061.09597956 1132 1058 c 0
 1131 1054 1130 1050 1128 1046 c 0
 1125 1040 1121 1034 1116 1028 c 2
 938 821 l 1
EndSplineSet
EndChar

StartChar: plus
Encoding: 43 43 11
Width: 972
Flags: W
HStem: 520 240<230 445 736 972>
LayerCount: 2
Back
SplineSet
218.638671875 710.65625 m 1
 525.838867188 710.65625 l 1
 592.005859375 1021.95019531 l 1
 733.318359375 1021.95019531 l 1
 667.150390625 710.65625 l 1
 974.350585938 710.65625 l 1
 944.313476562 569.34375 l 1
 637.114257812 569.34375 l 1
 570.9453125 258.047851562 l 1
 429.633789062 258.047851562 l 1
 495.801757812 569.34375 l 1
 188.6015625 569.34375 l 1
 218.638671875 710.65625 l 1
EndSplineSet
Fore
SplineSet
230 760 m 1
 496 760 l 1
 560 1062 l 1
 800 1062 l 1
 736 760 l 1
 1023 760 l 1
 972 520 l 1
 684 520 l 1
 623 233 l 1
 384 233 l 1
 445 520 l 1
 179 520 l 1
 230 760 l 1
EndSplineSet
EndChar

StartChar: comma
Encoding: 44 44 12
Width: 444
Flags: W
HStem: -205 503
LayerCount: 2
Back
SplineSet
328.248046875 94.2080078125 m 1
 294.729492188 -63.48828125 167.234375 -186.368164062 137.305664062 -221.18359375 c 1
 88.5400390625 -190.463867188 l 1
 115.549804688 -159.744140625 182.856445312 -83.9677734375 198.091796875 -12.2880859375 c 0
 138.740234375 -12.2880859375 100.592773438 34.85546875 113.208007812 94.2080078125 c 0
 125.82421875 153.560546875 184.23046875 201.727539062 243.583007812 201.727539062 c 0
 302.93359375 201.727539062 340.864257812 153.560546875 328.248046875 94.2080078125 c 1
EndSplineSet
Fore
SplineSet
411 137 m 0
 376 -27 213 -169 159 -205 c 1
 95 -162 l 1
 108 -146 158 -74 165 -40 c 0
 166 -36 166 -32 166 -29 c 1
 122.340124561 -18.0850311403 80.090149066 20.3229866133 80.090149066 92.1429047902 c 0
 80.090149066 105.862299488 81.6318727733 120.80091191 85 137 c 0
 102 215 192 298 278 298 c 0
 375.928761278 298 414.395634662 232.011807336 414.395634662 169.195469811 c 0
 414.395634662 158.245135308 413.226683312 147.391188787 411 137 c 0
EndSplineSet
EndChar

StartChar: hyphen
Encoding: 45 45 13
Width: 960
Flags: W
HStem: 514 240<258 979>
LayerCount: 2
Back
SplineSet
248.052734375 704.51171875 m 1
 925.940429688 704.51171875 l 1
 895.904296875 563.200195312 l 1
 218.015625 563.200195312 l 1
 248.052734375 704.51171875 l 1
EndSplineSet
Fore
SplineSet
258 754 m 1
 1030 754 l 1
 979 514 l 1
 207 514 l 1
 258 754 l 1
EndSplineSet
EndChar

StartChar: period
Encoding: 46 46 14
Width: 451
Flags: W
HStem: -33 328<171.75 340.647>
VStem: 88.3943 335.255<49.6232 212.821>
LayerCount: 2
Back
SplineSet
113.208007812 94.2080078125 m 0
 125.82421875 153.560546875 184.23046875 201.727539062 243.583007812 201.727539062 c 0
 302.93359375 201.727539062 340.864257812 153.560546875 328.248046875 94.2080078125 c 0
 315.6328125 34.85546875 257.225585938 -13.3115234375 197.875 -13.3115234375 c 0
 138.522460938 -13.3115234375 100.592773438 34.85546875 113.208007812 94.2080078125 c 0
EndSplineSet
Fore
SplineSet
92 131 m 0
 111 222 201 295 291 295 c 0
 370.20237678 295 423.649100792 239.701098466 423.649100792 165.365412502 c 0
 423.649100792 154.292709252 422.463240013 142.79762322 420 131 c 0
 401 41 312 -33 221 -33 c 0
 142.535969452 -33 88.3943254317 23.2455188455 88.3943254317 97.3028468796 c 0
 88.3943254317 108.190932387 89.5646286713 119.464030548 92 131 c 0
EndSplineSet
EndChar

StartChar: slash
Encoding: 47 47 15
Width: 847
Flags: W
HStem: 0 21G<-42 257.487>
LayerCount: 2
Back
SplineSet
124.927734375 0 m 1
 -32.767578125 0 l 1
 1012.25976562 1544.19042969 l 0
 1169.95703125 1544.19042969 l 1
 124.927734375 0 l 1
EndSplineSet
Fore
SplineSet
245 0 m 1
 -42 0 l 1
 941 1544 l 1
 1209 1544 l 1
 245 0 l 1
EndSplineSet
EndChar

StartChar: zero
Encoding: 48 48 16
Width: 1177
Flags: W
HStem: -28 242<512.82 764.969> 1248 242<706.808 983.267>
VStem: 207.085 257.266<266.457 755.964> 1024.49 258.629<756.035 1203.11>
LayerCount: 2
Back
SplineSet
244.649414062 727.040039062 m 1
 331.712890625 1136.63964844 585.6328125 1492.99023438 888.737304688 1492.99023438 c 1
 1191.84082031 1492.99023438 1279.94042969 1136.63964844 1192.87695312 727.040039062 c 1
 1106.24902344 319.48828125 859.774414062 -30.7197265625 556.669921875 -30.7197265625 c 1
 253.56640625 -30.7197265625 158.021484375 319.48828125 244.649414062 727.040039062 c 1
402.344726562 727.040039062 m 1
 343.142578125 448.51171875 365.5234375 110.591796875 586.70703125 110.591796875 c 1
 809.939453125 110.591796875 975.974609375 448.51171875 1035.17675781 727.040039062 c 1
 1094.81640625 1007.62011719 1081.93261719 1351.6796875 858.700195312 1351.6796875 c 1
 637.516601562 1351.6796875 461.984375 1007.62011719 402.344726562 727.040039062 c 1
EndSplineSet
Fore
SplineSet
509 756 m 0
 481.152484719 624.288779075 464.35094467 514.952738749 464.35094467 429.803816094 c 0
 464.35094467 288.684067636 510.500377074 214 629 214 c 0
 819 214 908 406 982 756 c 0
 1008.83208823 882.908525396 1024.48874156 982.470104228 1024.48874156 1057.83112391 c 0
 1024.48874156 1190.30765341 976.106800499 1248 855 1248 c 0
 665 1248 583 1106 509 756 c 0
241 756 m 0
 339 1216 587 1490 907 1490 c 0
 1154.65499431 1490 1283.11793545 1325.88631874 1283.11793545 1038.45086322 c 0
 1283.11793545 954.485184593 1272.15565799 859.995945674 1250 756 c 0
 1152 297 899 -28 579 -28 c 2
 578 -28 l 2
 331.935827854 -28 207.085066322 163.576317262 207.085066322 461.25120519 c 0
 207.085066322 550.69469905 218.35715272 649.717247459 241 756 c 0
EndSplineSet
EndChar

StartChar: one
Encoding: 49 49 17
Width: 1177
Flags: W
HStem: 0 21G<502 774.245> 1436 20G<787.636 1079>
VStem: 485 594
LayerCount: 2
Back
SplineSet
842.592773438 1275.90039062 m 1
 596.26171875 1099.78027344 l 1
 526.608398438 1196.03027344 l 1
 882.950195312 1456.12988281 l 1
 1038.59765625 1456.12988281 l 1
 729.087890625 0 l 1
 571.391601562 0 l 1
 842.592773438 1275.90039062 l 1
EndSplineSet
Fore
SplineSet
754 1184 m 1
 758 1206 l 1
 485 1206 l 1
 524 1236 l 1
 814 1456 l 1
 1079 1456 l 1
 770 0 l 1
 502 0 l 1
 754 1184 l 1
EndSplineSet
EndChar

StartChar: two
Encoding: 50 50 18
Width: 1177
Flags: W
HStem: 0 240<453 1061> 1076 21G<524.183 616.5> 1252 240<691.015 950.936>
VStem: 987.239 269.101<951.285 1215.04>
LayerCount: 2
Back
SplineSet
974.966796875 1176 m 5
 1223 1322 l 5
476.36328125 1112 m 21
 535.444335938 1230 698.77734375 1368 860.77734375 1368 c 5
 1078.77734375 1368 1152.91308594 1219.53027344 1114.05859375 1040 c 28
 1067.29394531 823.918945312 861.639648438 704 692.833007812 592 c 4
 524.02734375 480 314.418945312 336 274.033203125 146 c 5
272.59765625 398 m 5
 468.327148438 265 l 5
909.450195312 896 m 5
 1090.62988281 751 l 5
630.813476562 686 m 5
 745.727539062 488 l 5
498.0859375 1110.01953125 m 9
 370.572265625 1165.30957031 l 17
 460.516601562 1347.58007812 684.373046875 1495.04003906 887.125 1495.04003906 c 0
 1098.06835938 1495.04003906 1278.23144531 1359.87011719 1212.93359375 1052.66992188 c 0
 1153.29589844 772.095703125 818.438476562 610.385742188 706.794921875 540.671875 c 0
 588.723632812 466.944335938 330.716796875 274.431640625 302.420898438 141.311523438 c 1
 1066.32714844 141.311523438 l 17
 1036.29003906 0 l 1
 88.064453125 0 l 1
 157.279296875 325.631835938 446.135742188 528.383789062 688.424804688 675.83984375 c 0
 811.600585938 750.8046875 1016.23828125 849.919921875 1059.33398438 1052.66992188 c 0
 1101.125 1249.28027344 990.208007812 1353.73046875 857.087890625 1353.73046875 c 0
 730.112304688 1353.73046875 583.67578125 1271.80957031 498.0859375 1110.01953125 c 9
EndSplineSet
Fore
SplineSet
587 1076 m 1
 364 1147 l 1
 445 1344 685 1492 884 1492 c 0
 1056.95158804 1492 1256.34010478 1419.4872813 1256.34010478 1167.45734503 c 0
 1256.34010478 1129.49886382 1251.81724069 1087.46827259 1242 1041 c 0
 1208 880 1148 785 999 663 c 0
 820 516 538 386 453 240 c 1
 1112 240 l 1
 1061 0 l 1
 92 0 l 1
 137 210 201 359 412 534 c 0
 640 722 932 813 980 1041 c 0
 984.900096955 1064.03045569 987.239025892 1085.16671419 987.239025892 1104.41313315 c 0
 987.239025892 1202.99960078 925.869641268 1252 833 1252 c 0
 722 1252 646 1194 587 1076 c 1
EndSplineSet
EndChar

StartChar: three
Encoding: 51 51 19
Width: 1177
Flags: W
HStem: -28 242<512.313 791.814> 651 213<617 861.027> 1253 237<710.225 951.123>
VStem: 926.425 275.548<339.285 586.105> 989.969 266.141<1001.26 1215.75>
LayerCount: 2
Back
SplineSet
821.240234375 274 m 5
 936.154296875 76 l 5
917.655273438 530 m 5
 1165.68847656 676 l 5
987.991210938 1162 m 5
 1236.02441406 1308 l 5
476.36328125 1112 m 21
 535.444335938 1230 698.77734375 1368 860.77734375 1368 c 5
 1068.1484375 1368 1150.02636719 1223.49023438 1117.80371094 1056 c 4
 1079.48046875 856.811523438 906.584960938 760 703.54296875 760 c 5
 923.54296875 760 1110.6640625 690 1054.97460938 428 c 5
 1003.53515625 186 792.830078125 98 618.830078125 98 c 5
 470.830078125 98 356.259765625 180 323.94140625 282 c 5
176.423828125 251.904296875 m 9xd0
 342.083984375 299.0078125 l 17
 369.77734375 188.416015625 472.01953125 110.591796875 580.563476562 110.591796875 c 1
 744.403320312 110.591796875 911.448242188 202.751953125 954.109375 403.456054688 c 1xd0
 996.334960938 602.112304688 865.984375 692.223632812 708.2890625 692.223632812 c 0
 630.46484375 692.223632812 l 1
 658.760742188 825.34375 l 1
 736.583984375 825.34375 l 0
 881.9921875 825.34375 1026.81640625 909.311523438 1064.25292969 1085.44042969 c 1
 1097.33789062 1241.08984375 1032.03710938 1357.8203125 847.717773438 1357.8203125 c 1
 841.573242188 1357.8203125 l 0
 737.125976562 1357.8203125 618.876953125 1302.53027344 554.103515625 1200.12988281 c 9
 430.3828125 1263.62011719 l 17
 529.1796875 1400.83007812 711.432617188 1497.08984375 877.3203125 1497.08984375 c 1
 1129.22460938 1497.08984375 1273.31542969 1327.09960938 1221.94921875 1085.44042969 c 1xe0
 1180.59472656 890.879882812 1028.62695312 792.576171875 956.868164062 753.6640625 c 1
 1039.2734375 727.040039062 1156.64453125 614.400390625 1111.80761719 403.456054688 c 1
 1053.47460938 129.024414062 810.622070312 -30.7197265625 550.526367188 -30.7197265625 c 1
 394.877929688 -30.7197265625 215.940429688 71.6796875 176.423828125 251.904296875 c 9xd0
EndSplineSet
Fore
SplineSet
162 323 m 1xf0
 435 393 l 1
 460 260 555 214 643 214 c 0
 781 214 896 308 922 429 c 0
 924.996068869 443.173710419 926.425246343 457.028731062 926.425246343 470.45030033 c 0xf0
 926.425246343 573.501621449 842.171989835 651 736 651 c 2
 571 651 l 1
 617 864 l 1
 759 864 l 2
 862 864 964 962 984 1054 c 0
 988.053082234 1073.39689355 989.968916367 1091.34800161 989.968916367 1107.86545647 c 0
 989.968916367 1205.45590997 923.090447498 1253 835 1253 c 0
 750 1253 678 1195 645 1142 c 1
 409 1208 l 1
 516 1389 676 1490 885 1490 c 0
 1084.30992394 1490 1256.10984388 1405.94165443 1256.10984388 1195.07239562 c 0xe8
 1256.10984388 1164.71838738 1252.55002002 1131.73676141 1245 1096 c 0
 1217 964 1134 878 1041 820 c 1
 1118.37178688 758.435352373 1201.97291134 674.721948939 1201.97291134 526.823740162 c 0
 1201.97291134 496.949999105 1198.56203861 464.457558793 1191 429 c 0
 1139 184 882 -28 592 -28 c 0
 375 -28 200 72 162 323 c 1xf0
EndSplineSet
EndChar

StartChar: four
Encoding: 52 52 20
Width: 1177
Flags: W
HStem: 0 21G<675 948.253> 348 240<473 749 1068 1156> 1436 20G<947.252 1253>
LayerCount: 2
Back
SplineSet
1161.21289062 1445.25 m 1
 968.068359375 536.576171875 l 9
 1156.48242188 536.576171875 l 17
 1126.88085938 397.311523438 l 1
 938.466796875 397.311523438 l 1
 854.015625 0 l 1
 696.3203125 0 l 1
 780.771484375 397.311523438 l 1
 162.275390625 397.311523438 l 9
 993.541992188 1456.12988281 l 1
 1005.83007812 1456.12988281 l 1
 1163.52636719 1456.12988281 l 1
 1169.66992188 1456.12988281 l 1
 1161.21289062 1445.25 l 1
961.790039062 1229.66992188 m 1
 427.83203125 538.624023438 l 1
 814.904296875 538.624023438 l 1
 961.790039062 1229.66992188 l 1
EndSplineSet
Fore
SplineSet
918 1105 m 1
 473 588 l 1
 808 588 l 1
 918 1105 l 1
1068 585 m 1
 1206 585 l 1
 1156 348 l 1
 1018 348 l 1
 944 0 l 1
 675 0 l 1
 749 348 l 1
 164 348 l 1
 207 552 l 1
 964 1456 l 1
 1253 1456 l 1
 1068 585 l 1
EndSplineSet
EndChar

StartChar: five
Encoding: 53 53 21
Width: 1177
Flags: W
HStem: -26 242<520.63 800.409> 719 229<649.078 880.857> 1217 239<765 1234>
VStem: 946.554 269.963<368.016 646.337>
LayerCount: 2
Back
SplineSet
821.240234375 274 m 1
 936.154296875 76 l 1
937.408203125 590 m 1
 1185.44140625 736 l 1
465.842773438 752 m 0
 520.21875 782 647.076171875 823.668945312 773.076171875 823.668945312 c 1
 951.076171875 823.668945312 1117.11328125 678 1070.98828125 461 c 1
 1024.01367188 240 792.830078125 98 618.830078125 98 c 1
 470.830078125 98 366.259765625 180 333.94140625 282 c 1
318.98828125 461 m 0
 361.462890625 660.82421875 569.90234375 823 771.93359375 823 c 0
 973.965820312 823 1113.46289062 660.82421875 1070.98828125 461 c 0
 1028.51464844 261.17578125 820.075195312 99 618.04296875 99 c 0
 416.010742188 99 276.514648438 261.17578125 318.98828125 461 c 0
715.768554688 765.952148438 m 1
 588.791992188 765.952148438 423.874023438 712.704101562 325.055664062 671.744140625 c 9
 592.133789062 1456.12988281 l 1
 1263.87792969 1456.12988281 l 1
 1233.84179688 1314.8203125 l 1
 689.073242188 1314.8203125 l 1
 538.877929688 868.3515625 l 1
 600.268554688 897.024414062 666.674804688 901.120117188 750.642578125 901.120117188 c 1
 1014.83496094 901.120117188 1188.52441406 706.560546875 1127.14453125 417.791992188 c 1
 1082.7421875 208.896484375 859.774414062 -30.7197265625 581.24609375 -30.7197265625 c 1
 349.822265625 -30.7197265625 198.279296875 133.120117188 184.774414062 329.728515625 c 9
 346.516601562 358.400390625 l 17
 359.56640625 256 414.674804688 110.591796875 611.283203125 110.591796875 c 1
 787.411132812 110.591796875 934.490234375 243.711914062 971.927734375 419.83984375 c 1
 1013.28320312 614.400390625 887.799804688 765.952148438 715.768554688 765.952148438 c 1
EndSplineSet
Fore
SplineSet
751 719 m 0
 657 719 602 686 571 660 c 1
 333 750 l 1
 601 1456 l 1
 1284 1456 l 1
 1234 1217 l 1
 765 1217 l 1
 648 926 l 1
 677 941 752 948 800 948 c 0
 1047.61008083 948 1216.51669237 804.085084744 1216.51669237 574.011223019 c 0
 1216.51669237 538.340151283 1212.45652066 500.597993554 1204 461 c 0
 1141 166 878 -26 592 -26 c 0
 278 -26 172 216 172 366 c 1
 447 412 l 1
 445 352 494 216 644 216 c 0
 794 216 911 324 940 461 c 0
 944.386349253 481.721718884 946.553571517 502.077396203 946.553571517 521.703698885 c 0
 946.553571517 631.835138911 878.311986623 719 751 719 c 0
EndSplineSet
EndChar

StartChar: six
Encoding: 54 54 22
Width: 1177
Flags: W
HStem: -28 236<512.387 759.093> 660 242<660 839.526> 1436 20G<841.489 1143>
VStem: 191.347 271.72<258.403 524.798> 894.774 275.617<344.764 600.388>
LayerCount: 2
Back
SplineSet
478.186523438 429 m 5
 504.543945312 553 603.287109375 660 731.287109375 660 c 5
 859.287109375 660 904.268554688 547 880.037109375 433 c 5
 852.192382812 302 748.211914062 208 633.211914062 208 c 5
 501.211914062 208 455.23046875 321 478.186523438 429 c 5
865.325195312 886 m 5
 862.962890625 889 780.725585938 902 776.725585938 902 c 4
 491.725585938 902 267.427734375 703 209.186523438 429 c 5
 161.361328125 204 297.048828125 -28 585.048828125 -28 c 5
 865.048828125 -28 1097.44824219 195 1147.61230469 431 c 5
 1197.13769531 664 1148.29589844 820 1120.40234375 924 c 5
EndSplineSet
Fore
SplineSet
727 897 m 1
 731 900 778 902 782 902 c 0
 1026.06408876 902 1170.39102761 756.061082114 1170.39102761 542.058370684 c 0
 1170.39102761 506.164536224 1166.33081702 468.355928698 1158 429 c 0
 1110 204 866 -28 578 -28 c 0
 334.297313998 -28 191.347215864 140.931030788 191.347215864 340.332511806 c 0
 191.347215864 370.031561443 194.518336786 400.406549631 201 431 c 0
 251 664 398 820 470 924 c 1
 856 1456 l 1
 1143 1456 l 1
 727 897 l 1
889 429 m 0
 892.875647233 447.483856035 894.773724805 465.589974046 894.773724805 483.020258691 c 0
 894.773724805 582.522030426 832.919890544 660 724 660 c 0
 596 660 493 547 469 433 c 0
 464.984683325 414.214054127 463.06697167 396.189004193 463.06697167 379.092947278 c 0
 463.06697167 276.97310359 531.491479201 208 630 208 c 0
 762 208 866 321 889 429 c 0
EndSplineSet
EndChar

StartChar: seven
Encoding: 55 55 23
Width: 1177
Flags: W
HStem: 0 21G<98 436.354> 1202 254<409 958>
LayerCount: 2
Back
SplineSet
1378.5703125 1456.12988281 m 1
 514.047851562 0 l 1
 331.776367188 0 l 1
 1125.60253906 1306.62011719 l 1
 378.083007812 1306.62011719 l 1
 409.862304688 1456.12988281 l 1
 1378.5703125 1456.12988281 l 1
EndSplineSet
Fore
SplineSet
1467 1456 m 1
 422 0 l 1
 98 0 l 1
 958 1202 l 1
 355 1202 l 1
 409 1456 l 1
 1467 1456 l 1
EndSplineSet
EndChar

StartChar: eight
Encoding: 56 56 24
Width: 1177
Flags: W
HStem: -28 221<488.706 791.58> 676 247<654.198 869.988> 1270 219<708.238 990.788>
VStem: 148.039 273.778<258.12 524.197> 350.849 269.845<954.558 1179.97> 941.315 271.284<338.278 605.392> 1023.79 273.101<1005.86 1234.65>
LayerCount: 2
Back
SplineSet
594.899414062 110.591796875 m 0xf2
 777.170898438 110.591796875 953.229492188 235.51953125 990.666015625 411.6484375 c 1
 1028.5390625 589.82421875 899.138671875 722.944335938 729.154296875 722.944335938 c 1
 548.930664062 722.944335938 376.83984375 587.776367188 339.40234375 411.6484375 c 0
 300.659179688 229.375976562 422.8671875 110.591796875 594.899414062 110.591796875 c 0xf2
552.946289062 1107.96972656 m 1xec
 520.732421875 956.416015625 612.041992188 856.064453125 757.450195312 856.064453125 c 1
 900.809570312 856.064453125 1033.91015625 952.3203125 1066.99414062 1107.96972656 c 1
 1094.85449219 1239.04003906 1033.65234375 1355.78027344 861.620117188 1355.78027344 c 1
 695.732421875 1355.78027344 579.934570312 1234.94042969 552.946289062 1107.96972656 c 1xec
891.65625 1497.08984375 m 1
 1143.56054688 1497.08984375 1272.57519531 1333.25 1224.69042969 1107.96972656 c 1xec
 1183.33496094 913.408203125 1047.57324219 833.536132812 984.313476562 786.431640625 c 1
 1049.51269531 727.040039062 1191.01953125 612.3515625 1148.35839844 411.6484375 c 1
 1092.203125 147.456054688 827.005859375 -30.7197265625 564.862304688 -30.7197265625 c 1
 302.71875 -30.7197265625 126.420898438 151.551757812 181.706054688 411.6484375 c 1xf2
 222.625976562 604.16015625 400.296875 727.040039062 496.889648438 786.431640625 c 1
 445.58984375 843.776367188 354.765625 917.50390625 395.25 1107.96972656 c 1
 441.828125 1327.09960938 641.80078125 1497.08984375 891.65625 1497.08984375 c 1
EndSplineSet
Fore
SplineSet
904 1489 m 0xe8
 1146.30616947 1489 1296.89367044 1361.82705627 1296.89367044 1175.82314674 c 0xea
 1296.89367044 1149.95841445 1293.98187571 1122.95611301 1288 1095 c 0
 1251 919 1102 840 1037 802 c 1
 1122.25584824 778.128362492 1212.59968824 661.946017311 1212.59968824 512.942937505 c 0
 1212.59968824 487.174335508 1209.8976607 460.424122271 1204 433 c 0
 1139 128 871 -28 580 -28 c 0
 301.62787336 -28 148.038835502 112.380974879 148.038835502 325.288911258 c 0xf4
 148.038835502 359.421741067 151.986326146 395.41863296 160 433 c 0
 198 614 378 778 483 802 c 1
 438.137595853 831.333110404 350.84907764 903.092334874 350.84907764 1030.12070631 c 0
 350.84907764 1050.33088439 353.058587486 1071.94007494 358 1095 c 0
 408 1332 623 1489 904 1489 c 0xe8
626 1095 m 0
 622.428571429 1078 620.693877551 1062.34693878 620.693877551 1048.00291545 c 0
 620.693877551 961.93877551 683.142857143 923 786 923 c 0
 898 923 993 973 1019 1095 c 0
 1022.1721798 1109.80350573 1023.79273765 1124.12783409 1023.79273765 1137.77996455 c 0
 1023.79273765 1214.50566819 972.607415577 1270 858 1270 c 0
 721 1270 646 1190 626 1095 c 0
631 193 m 0
 783 193 906 293 936 433 c 0
 939.601817005 450.04860049 941.315329308 466.506204853 941.315329308 482.268976019 c 0
 941.315329308 597.79636599 849.272065745 676 734 676 c 0
 570 676 458 573 428 433 c 0
 423.842114019 413.457935889 421.816416657 394.722645851 421.816416657 376.945879926 c 0xf4
 421.816416657 266.459634267 500.066622304 193 631 193 c 0
EndSplineSet
EndChar

StartChar: nine
Encoding: 57 57 25
Width: 1177
Flags: W
HStem: 0 21G<340 641.511> 554 242<643.949 823> 1248 236<723.907 970.613>
VStem: 312.665 275.562<847.177 1111.24> 1019.93 272.674<931.202 1197.27>
LayerCount: 2
Back
SplineSet
506.375976562 1052.66992188 m 1
 471.986328125 890.879882812 569.361328125 751.616210938 747.537109375 751.616210938 c 1
 925.712890625 751.616210938 1073.79199219 899.072265625 1105.5703125 1048.58007812 c 1
 1141.70117188 1218.55957031 1030.60351562 1341.44042969 870.861328125 1341.44042969 c 1
 686.540039062 1341.44042969 536.412109375 1193.98046875 506.375976562 1052.66992188 c 1
859.504882812 632.83203125 m 1
 810.530273438 614.400390625 775.150390625 602.112304688 715.758789062 602.112304688 c 0
 467.951171875 602.112304688 302.893554688 798.719726562 356.872070312 1052.66992188 c 1
 400.838867188 1259.51953125 628.205078125 1490.94042969 906.733398438 1490.94042969 c 1
 1172.97265625 1490.94042969 1301.65039062 1267.70996094 1255.50585938 1050.62011719 c 1
 1211.97558594 845.82421875 1055.01464844 675.83984375 989.626953125 589.82421875 c 1
 498.198242188 -55.2958984375 l 9
 387.329101562 20.48046875 l 17
 859.504882812 632.83203125 l 1
EndSplineSet
Fore
SplineSet
757 559 m 1
 753 556 706 554 702 554 c 0
 457.75844564 554 312.664708802 700.151227312 312.664708802 914.408558716 c 0
 312.664708802 950.163309041 316.705298782 987.81468735 325 1027 c 0
 373 1252 617 1484 905 1484 c 0
 1148.86943007 1484 1292.60692828 1314.83772117 1292.60692828 1115.25814735 c 0
 1292.60692828 1085.68935825 1289.45188749 1055.45290894 1283 1025 c 0
 1233 792 1085 636 1013 532 c 1
 627 0 l 1
 340 0 l 1
 757 559 l 1
594 1027 m 0
 590.124352767 1008.51614396 588.226275195 990.410025954 588.226275195 972.979741309 c 0
 588.226275195 873.477969574 650.080109456 796 759 796 c 0
 887 796 990 909 1014 1023 c 0
 1018.01531668 1041.78594587 1019.93302833 1059.81099581 1019.93302833 1076.90705272 c 0
 1019.93302833 1179.02689641 951.508520799 1248 853 1248 c 0
 721 1248 617 1135 594 1027 c 0
EndSplineSet
EndChar

StartChar: colon
Encoding: 58 58 26
Width: 440
Flags: W
HStem: -33 328<171.75 340.647> 695 328<326.203 495.647>
VStem: 92 486.604
LayerCount: 2
Fore
SplineSet
247 859 m 0
 266 950 355 1023 445 1023 c 0
 524.34632833 1023 578.60357152 967.49990257 578.60357152 892.959905274 c 0
 578.60357152 882.012144073 577.433184195 870.65367167 575 859 c 0
 556 769 467 695 376 695 c 0
 297.535969452 695 243.394325432 751.245518846 243.394325432 825.30284688 c 0
 243.394325432 836.190932387 244.564628671 847.464030548 247 859 c 0
92 131 m 0
 111 222 201 295 291 295 c 0
 370.20237678 295 423.649100792 239.701098466 423.649100792 165.365412502 c 0
 423.649100792 154.292709252 422.463240013 142.79762322 420 131 c 0
 401 41 312 -33 221 -33 c 0
 142.535969452 -33 88.3943254317 23.2455188455 88.3943254317 97.3028468796 c 0
 88.3943254317 108.190932387 89.5646286713 119.464030548 92 131 c 0
EndSplineSet
EndChar

StartChar: semicolon
Encoding: 59 59 27
Width: 440
Flags: W
HStem: 696 328<326.75 495.647>
LayerCount: 2
Fore
SplineSet
421 137 m 0
 386 -27 223 -169 169 -205 c 1
 105 -162 l 1
 118 -146 168 -74 175 -40 c 0
 176 -36 176 -32 176 -29 c 1
 132.340124561 -18.0850311403 90.090149066 20.3229866133 90.090149066 92.1429047902 c 0
 90.090149066 105.862299488 91.6318727733 120.80091191 95 137 c 0
 112 215 202 298 288 298 c 0
 385.928761278 298 424.395634662 232.011807336 424.395634662 169.195469811 c 0
 424.395634662 158.245135308 423.226683312 147.391188787 421 137 c 0
247 860 m 0
 266 951 356 1024 446 1024 c 0
 525.20237678 1024 578.649100792 968.701098466 578.649100792 894.365412502 c 0
 578.649100792 883.292709252 577.463240013 871.79762322 575 860 c 0
 556 770 467 696 376 696 c 0
 297.535969452 696 243.394325432 752.245518846 243.394325432 826.30284688 c 0
 243.394325432 837.190932387 244.564628671 848.464030548 247 860 c 0
EndSplineSet
EndChar

StartChar: less
Encoding: 60 60 28
Width: 864
Flags: W
LayerCount: 2
Back
SplineSet
586.420898438 22.5283203125 m 1
 208.67578125 634.879882812 l 1
 844.126953125 1234.94042969 l 1
 1042.78222656 1234.94042969 l 1
 404.848632812 632.83203125 l 1
 785.076171875 22.5283203125 l 1
 586.420898438 22.5283203125 l 1
EndSplineSet
Fore
SplineSet
468 24 m 1
 180 636 l 1
 726 1237 l 1
 1058 1237 l 1
 511 633 l 1
 798 24 l 1
 468 24 l 1
EndSplineSet
EndChar

StartChar: equal
Encoding: 61 61 29
Width: 907
Flags: W
HStem: 309 240<172 922> 676 239<249 1000>
LayerCount: 2
Back
SplineSet
161.512695312 499.711914062 m 1
 962.28125 499.711914062 l 1
 932.244140625 358.400390625 l 1
 131.4765625 358.400390625 l 1
 161.512695312 499.711914062 l 1
239.434570312 866.303710938 m 1
 1040.20214844 866.303710938 l 1
 1010.16601562 724.9921875 l 1
 209.397460938 724.9921875 l 1
 239.434570312 866.303710938 l 1
EndSplineSet
Fore
SplineSet
249 915 m 1
 1050 915 l 1
 1000 676 l 1
 199 676 l 1
 249 915 l 1
172 549 m 1
 973 549 l 1
 922 309 l 1
 121 309 l 1
 172 549 l 1
EndSplineSet
EndChar

StartChar: greater
Encoding: 62 62 30
Width: 864
Flags: W
LayerCount: 2
Back
SplineSet
284.9296875 20.48046875 m 1
 86.2734375 20.48046875 l 1
 724.336914062 632.83203125 l 1
 344.4140625 1234.94042969 l 1
 543.0703125 1234.94042969 l 1
 921.379882812 634.879882812 l 1
 284.9296875 20.48046875 l 1
EndSplineSet
Fore
SplineSet
397 20 m 1
 59 20 l 1
 611 632 l 1
 318 1235 l 1
 657 1235 l 1
 942 636 l 1
 397 20 l 1
EndSplineSet
EndChar

StartChar: question
Encoding: 63 63 31
Width: 1034
Flags: W
HStem: -33 328<450.75 619.647> 1253 244<644.583 907.616>
VStem: 939.022 286.144<1004.33 1219.4>
LayerCount: 2
Back
SplineSet
497.098632812 1093.13964844 m 0
 519.64453125 1199.20996094 647.891601562 1289.55957031 782.244140625 1289.55957031 c 4
 916.598632812 1289.55957031 1006.43359375 1199.20996094 983.887695312 1093.13964844 c 0
 961.342773438 987.072265625 834.004882812 900.987304688 699.650390625 900.987304688 c 0
 565.297851562 900.987304688 474.553710938 987.072265625 497.098632812 1093.13964844 c 0
283.594726562 1093.13964844 m 0
 330.690429688 1314.70996094 571.690429688 1494.53027344 821.541015625 1494.53027344 c 0
 1071.39257812 1494.53027344 1235.94824219 1314.70996094 1188.85253906 1093.13964844 c 0
 1141.75683594 871.573242188 900.756835938 691.752929688 650.905273438 691.752929688 c 0
 401.0546875 691.752929688 236.499023438 871.573242188 283.594726562 1093.13964844 c 0
EndSplineSet
Fore
SplineSet
752 530 m 2
 724 399 l 1
 456 399 l 1
 497 594 l 2
 548 836 885 858 935 1094 c 0
 937.734687139 1106.9077233 939.021534016 1118.8940937 939.021534016 1130.00623122 c 0
 939.021534016 1220.47918331 853.717576357 1253 770 1253 c 0
 661 1253 573 1171 542 1069 c 1
 283 1110 l 1
 354 1327 556 1497 818 1497 c 0
 1035.80934149 1497 1225.16599272 1390.30241154 1225.16599272 1181.12305892 c 0
 1225.16599272 1155.00974208 1222.21500766 1127.29932182 1216 1098 c 0
 1137 727 792 717 752 530 c 2
371 131 m 0
 390 222 480 295 570 295 c 0
 649.20237678 295 702.649100792 239.701098466 702.649100792 165.365412502 c 0
 702.649100792 154.292709252 701.463240013 142.79762322 699 131 c 0
 680 41 591 -33 500 -33 c 0
 421.535969452 -33 367.394325432 23.2455188455 367.394325432 97.3028468796 c 0
 367.394325432 108.190932387 368.564628671 119.464030548 371 131 c 0
EndSplineSet
EndChar

StartChar: at
Encoding: 64 64 32
Width: 1737
Flags: W
HStem: -33 166<696.501 1118.21> 346 203<879.244 1112.23> 373 219<1424.47 1553.14> 905 189<934.331 1172.14> 1323 172<928.988 1367.33>
VStem: 216.695 203.935<398.464 824.563> 618.808 222.796<589.759 814.427> 1206.52 217.555<648.988 870.131> 1627.32 210.969<678.087 1074.05>
LayerCount: 2
Back
SplineSet
1210.58300781 212.9921875 m 1xbf80
 1266.64746094 110.591796875 l 17
 1120.078125 18.431640625 955.159179688 -34.81640625 787.223632812 -34.81640625 c 0
 363.287109375 -34.81640625 96.0166015625 307.200195312 186.127929688 731.135742188 c 0
 275.801757812 1153.01953125 688.46875 1495.04003906 1112.40429688 1495.04003906 c 0
 1534.29101562 1495.04003906 1803.61230469 1153.01953125 1713.9375 731.135742188 c 0
 1676.50097656 555.0078125 1499.87402344 417.791992188 1362.6640625 417.791992188 c 0xbf80
 1288.93457031 417.791992188 1210.00585938 460.799804688 1168.95507812 518.14453125 c 1
 1092.58203125 438.272460938 983.830078125 389.120117188 877.333984375 389.120117188 c 0xdf80
 688.91796875 389.120117188 567.966796875 542.719726562 608.015625 731.135742188 c 0
 647.629882812 917.50390625 833.876953125 1071.09960938 1022.29296875 1071.09960938 c 0
 1210.70898438 1071.09960938 1311.49023438 909.311523438 1273.61816406 731.135742188 c 0
 1255.33496094 645.120117188 1302.01953125 546.81640625 1383.93945312 546.81640625 c 0
 1467.90917969 546.81640625 1562.70703125 626.688476562 1584.90820312 731.135742188 c 0
 1657.16894531 1071.09960938 1443.81054688 1368.05957031 1085.4140625 1368.05957031 c 0
 727.013671875 1368.05957031 385.365234375 1071.09960938 312.233398438 727.040039062 c 0
 239.53515625 385.024414062 455.813476562 92.16015625 814.212890625 92.16015625 c 0
 941.189453125 92.16015625 1099.96777344 145.408203125 1210.58300781 212.9921875 c 1xbf80
737.040039062 731.135742188 m 0
 710.485351562 606.208007812 789.635742188 516.095703125 904.323242188 516.095703125 c 0xdf80
 1027.203125 516.095703125 1123.875 614.400390625 1148.6875 731.135742188 c 0
 1172.1953125 841.728515625 1098.13964844 946.17578125 995.740234375 946.17578125 c 0
 885.147460938 946.17578125 762.288085938 849.919921875 737.040039062 731.135742188 c 0
EndSplineSet
Fore
SplineSet
846 731 m 0xdf80
 843.023360317 717.281573635 841.604406255 704.065626504 841.604406255 691.451871913 c 0
 841.604406255 606.601241659 905.812492548 549 992 549 c 0
 1098 549 1180 639 1203 745 c 0
 1205.38237135 756.316263896 1206.51609018 767.2068508 1206.51609018 777.612603672 c 0
 1206.51609018 854.563113602 1144.51756608 905 1067 905 c 0
 972 905 869 841 846 731 c 0xdf80
1279 260 m 1
 1360 113 l 1
 1210 21 1069 -33 868 -33 c 0
 482.141691269 -33 216.69496419 220.778839811 216.69496419 571.991293858 c 0
 216.69496419 623.092075463 222.314399102 676.255500143 234 731 c 0
 325 1161 751 1495 1193 1495 c 0
 1578.06070391 1495 1838.28517565 1249.15686793 1838.28517565 910.285052408 c 0
 1838.28517565 861.935847154 1832.98785922 811.692883137 1822 760 c 0
 1776 542 1587 373 1434 373 c 0xbf80
 1365 373 1290 412 1259 500 c 1
 1173 388 1061 346 949 346 c 0xdf80
 754.286824303 346 618.808248087 479.085528704 618.808248087 654.843374764 c 0
 618.808248087 679.473826444 621.468886966 704.942311927 627 731 c 0
 669 930 886 1094 1108 1094 c 0
 1303.81806288 1094 1424.07092342 966.001800104 1424.07092342 811.568259823 c 0
 1424.07092342 790.130999547 1421.75379169 768.184361235 1417 746 c 0
 1414.02458356 731.718001083 1412.58370497 717.042530922 1412.58370497 702.69164388 c 0
 1412.58370497 644.695244449 1436.1164159 592 1477 592 c 0xbf80
 1530 592 1595 665 1615 760 c 0
 1623.30463717 799.351203815 1627.3161807 837.837259483 1627.3161807 875.036884631 c 0
 1627.3161807 1128.99695563 1440.34905051 1323 1156 1323 c 0
 829 1323 504 1056 434 729 c 0
 424.966902919 686.544443719 420.629787407 645.121337287 420.629787407 605.171204906 c 0
 420.629787407 335.536569012 618.197467793 133 903 133 c 0
 1043 133 1196 199 1279 260 c 1
EndSplineSet
EndChar

StartChar: m
Encoding: 109 109 33
Width: 1575
Flags: W
HStem: 0 21G<119 381.267 666 928.267 1212 1474.25> 868 234<734.437 787.242 1195 1482.91> 1053 20G<342.75 605>
VStem: 1352.24 279.341<551.25 852.297>
LayerCount: 2
Back
SplineSet
529.223632812 862 m 5
 593.665039062 954.286132812 740.237304688 1102 870.237304688 1102 c 4
 1000.23730469 1102 1140.3828125 1018 1038.56835938 539 c 4
 924 0 l 5
 666 0 l 4
 780.568359375 539 l 4
 823.291992188 740 806.499023438 868 706.499023438 868 c 5
 606.499023438 868 535.291992188 740 492.568359375 539 c 4
 378 0 l 5
EndSplineSet
Fore
SplineSet
924 0 m 1xd0
 666 0 l 1
 781 539 l 2
 796.744965067 612.59855764 806.1884242 676.409669892 806.1884242 727.733220726 c 0
 806.1884242 816.575918369 777.891372494 868 705 868 c 0xd0
 589 868 535 740 492 539 c 2
 377 0 l 1
 119 0 l 1
 347 1073 l 1
 605 1073 l 1xb0
 571 915 l 1
 627 986 750 1102 880 1102 c 0
 1083 1102 1071 881 1075 862 c 1
 1140 954 1286 1102 1416 1102 c 0
 1549.81519245 1102 1631.57836934 1011.36825525 1631.57836934 834.89688854 c 0
 1631.57836934 785.858706193 1625.26475591 730.192134258 1612 668 c 2
 1470 0 l 1
 1212 0 l 1
 1327 539 l 2
 1342.78608736 612.790780435 1352.23770958 676.742923528 1352.23770958 728.135101669 c 0
 1352.23770958 816.730978208 1324.14851259 868 1252 868 c 0
 1138 868 1082 740 1039 539 c 2
 924 0 l 1xd0
EndSplineSet
EndChar

StartChar: n
Encoding: 110 110 34
Width: 1121
Flags: W
HStem: 0 21G<119 381.254 756 1018.25> 867 235<753.921 993.69> 1054 20G<342.754 605>
VStem: 892.554 278.114<530.461 842.959>
LayerCount: 2
Back
SplineSet
270.3359375 0 m 9
 118.784179688 0 l 1
 346.888671875 1073.15039062 l 1
 498.44140625 1073.15039062 l 1
 466.228515625 921.599609375 l 17
 552.40234375 999.423828125 650.685546875 1095.6796875 796.09375 1095.6796875 c 0
 1052.09375 1095.6796875 1092.40136719 880.639648438 1037.55175781 622.591796875 c 0
 905.215820312 0 l 1
 753.6640625 0 l 0
 885.12890625 618.49609375 l 0
 921.696289062 790.528320312 887.759765625 958.463867188 777.16796875 958.463867188 c 1
 650.19140625 958.463867188 447.07421875 831.48828125 410.5078125 659.456054688 c 0
 270.3359375 0 l 9
EndSplineSet
Fore
SplineSet
377 0 m 1xd0
 119 0 l 1
 347 1074 l 1
 605 1074 l 1xb0
 571 912 l 1
 650 1016 792 1102 934 1102 c 0
 1053.37927801 1102 1170.66778209 998.158228245 1170.66778209 798.038172069 c 0
 1170.66778209 758.441851074 1166.07597232 715.076264111 1156 668 c 2
 1014 0 l 1
 756 0 l 1
 870 537 l 2
 885.479643081 610.394859436 892.554088989 668.119012279 892.554088989 713.309229366 c 0
 892.554088989 837.440267126 839.175837021 867 760 867 c 0
 652 867 549 810 491 536 c 2
 377 0 l 1xd0
EndSplineSet
EndChar

StartChar: o
Encoding: 111 111 35
Width: 1105
Flags: HMW
LayerCount: 2
Back
SplineSet
206.212890625 536.576171875 m 0
 273.251953125 851.967773438 474.122070312 1093.62988281 740.362304688 1093.62988281 c 0
 1006.60253906 1093.62988281 1104.73925781 851.967773438 1037.70117188 536.576171875 c 0
 970.662109375 221.18359375 768.049804688 -28.671875 501.809570312 -28.671875 c 1
 235.569335938 -28.671875 139.173828125 221.18359375 206.212890625 536.576171875 c 0
359.8125 536.576171875 m 0
 318.022460938 339.967773438 350.31640625 106.49609375 530.540039062 106.49609375 c 0
 723.052734375 106.49609375 842.310546875 339.967773438 884.100585938 536.576171875 c 0
 925.890625 733.18359375 891.85546875 958.463867188 711.631835938 958.463867188 c 0
 531.408203125 958.463867188 401.603515625 733.18359375 359.8125 536.576171875 c 0
EndSplineSet
Fore
SplineSet
206 537 m 0
 279 879 495 1100 799 1100 c 0
 1045.84497059 1100 1170.85781274 955.24247105 1170.85781274 718.739308375 c 0
 1170.85781274 663.020739961 1163.91907261 602.209901832 1150 537 c 0
 1077 195 864 -29 559 -29 c 0
 312.538699159 -29 185.045047632 114.287003042 185.045047632 353.967996958 c 0
 185.045047632 409.923769957 191.993869284 471.133331226 206 537 c 0
458 537 m 0
 446.673916556 483.252585839 441.539206422 437.604844981 441.539206422 399.00011425 c 0
 441.539206422 250.138436071 517.887739627 206 610 206 c 0
 725 206 847 276 902 537 c 0
 913.261679142 590.441786472 918.360271899 635.791901704 918.360271899 674.123423951 c 0
 918.360271899 822.996109625 841.452852704 866 750 866 c 0
 634 866 513 798 458 537 c 0
EndSplineSet
EndChar

StartChar: p
Encoding: 112 112 36
Width: 1132
Flags: W
HStem: -426 21G<28 290.254> -28 234<531.124 747.761> 866 234<749.45 1017.95> 1053 20G<342.744 605>
VStem: 931.529 268.728<455.571 811.084>
LayerCount: 2
Back
SplineSet
179.790039062 -425.984375 m 17
 28.23828125 -425.984375 l 1
 346.888671875 1073.15039062 l 1
 498.44140625 1073.15039062 l 1
 461.439453125 899.072265625 l 17
 539.243164062 995.328125 637.526367188 1091.58007812 782.934570312 1091.58007812 c 0
 1034.83886719 1091.58007812 1098.64453125 823.295898438 1038.57128906 540.671875 c 0
 978.498046875 258.047851562 829.489257812 -28.671875 505.905273438 -28.671875 c 1
 342.065429688 -28.671875 299.9375 139.263671875 299.9375 139.263671875 c 0
 299.9375 139.263671875 226.647460938 -205.537109375 179.790039062 -425.984375 c 17
884.100585938 536.576171875 m 0
 933.7265625 770.047851562 891.420898438 956.416015625 764.444335938 956.416015625 c 1
 625.180664062 956.416015625 435.142578125 794.624023438 380.29296875 536.576171875 c 1
 318.477539062 245.759765625 432.236328125 106.49609375 544.875976562 106.49609375 c 0
 694.380859375 106.49609375 825.768554688 262.143554688 884.100585938 536.576171875 c 0
EndSplineSet
Fore
SplineSet
917 537 m 0xe8
 927.043806802 584.321782049 931.528874623 625.637141439 931.528874623 661.500928369 c 0
 931.528874623 811.315436242 853.264437311 866 775 866 c 0
 678 866 537 790 483 537 c 0
 473.076218334 490.137697689 468.657400707 449.320723984 468.657400707 413.909804141 c 0
 468.657400707 256.633124047 555.826052252 206 635 206 c 0
 729 206 869 313 917 537 c 0xe8
286 -426 m 1
 28 -426 l 1
 347 1073 l 1
 605 1073 l 1xd8
 572 917 l 1
 664 1026 802 1100 918 1100 c 0
 1117.89115189 1100 1200.25652205 948.649724978 1200.25652205 743.182905741 c 0
 1200.25652205 677.285836359 1191.78437548 605.82230994 1176 532 c 0
 1111 228 940 -28 678 -28 c 0
 562 -28 456 48 410 157 c 1
 286 -426 l 1
EndSplineSet
EndChar

StartChar: q
Encoding: 113 113 37
Width: 1132
Flags: W
HStem: -28 234<347.201 612.695> 866 234<611.018 837.595> 1053 20G<983.769 1246>
VStem: 163.298 271.922<268.397 613.987> 719.671 265.448<-307.405 18.1094>
LayerCount: 2
Back
SplineSet
347.524414062 536.576171875 m 0
 289.192382812 262.143554688 358.508789062 106.49609375 508.012695312 106.49609375 c 0
 620.65234375 106.49609375 793.614257812 245.759765625 855.428710938 536.576171875 c 1
 910.278320312 794.624023438 789.021484375 956.416015625 649.756835938 956.416015625 c 1
 522.780273438 956.416015625 397.150390625 770.047851562 347.524414062 536.576171875 c 0
846.606445312 -198.65625 m 2
 829.62890625 -278.528320312 850.900390625 -313.34375 941.016601562 -313.34375 c 1
 912.286132812 -448.51171875 l 1
 742.297851562 -448.51171875 656.311523438 -380.927734375 693.748046875 -204.799804688 c 0
 694.931640625 -199.234375 765.698242188 133.698242188 766.881835938 139.263671875 c 1
 766.881835938 139.263671875 653.361328125 -28.671875 489.521484375 -28.671875 c 1
 165.9375 -28.671875 138.817382812 258.047851562 198.891601562 540.671875 c 0
 258.96484375 823.295898438 436.822265625 1091.58007812 688.7265625 1091.58007812 c 0
 834.134765625 1091.58007812 887.403320312 995.328125 928.383789062 899.072265625 c 9
 965.384765625 1073.15039062 l 1
 1116.9375 1073.15039062 l 1
 846.606445312 -198.65625 l 2
EndSplineSet
Fore
SplineSet
448 537 m 0xd8
 439.17804322 495.830868359 435.220269029 458.613885072 435.220269029 425.286967372 c 0
 435.220269029 277.283133918 513.276332028 206 590 206 c 0
 687 206 828 282 882 537 c 0
 891.923781666 583.494754842 896.342599293 624.011726649 896.342599293 659.177777063 c 0
 896.342599293 815.366875953 809.173947748 866 730 866 c 0
 633 866 500 782 448 537 c 0xd8
730 -141 m 2
 793 157 l 1
 701 48 563 -28 447 -28 c 0
 247.401451808 -28 163.298453229 120.577189452 163.298453229 325.764658284 c 0
 163.298453229 389.913401168 171.518723788 459.595262024 187 532 c 0
 252 836 423 1100 687 1100 c 0xd8
 803 1100 909 1026 955 917 c 1
 988 1073 l 1
 1246 1073 l 1xb8
 989 -137 l 2
 986.56579091 -148.35964242 985.119144136 -158.155644507 985.119144136 -166.554946064 c 0
 985.119144136 -199.561955533 1007.45941893 -211 1080 -211 c 1
 1030 -449 l 1
 828.634393214 -449 719.671317581 -384.029470283 719.671317581 -230.780977877 c 0
 719.671317581 -203.661564959 723.083619882 -173.777627514 730 -141 c 2
EndSplineSet
EndChar

StartChar: r
Encoding: 114 114 38
Width: 858
Flags: W
HStem: 0 21G<122 384.268> 868 234<736.929 930.351> 1053 20G<345.75 608>
LayerCount: 2
Back
SplineSet
831.821289062 907.263671875 m 1
 812.33984375 921.599609375 746.319335938 948.223632812 711.502929688 948.223632812 c 1
 594.767578125 948.223632812 437.497070312 786.431640625 414.42578125 677.887695312 c 2
 270.3359375 0 l 17
 118.784179688 0 l 1
 346.888671875 1073.15039062 l 1
 498.44140625 1073.15039062 l 1
 464.487304688 913.408203125 l 17
 537.759765625 1007.62011719 650.557617188 1085.44042969 730.4296875 1085.44042969 c 0
 791.869140625 1085.44042969 880.852539062 1060.86035156 923.474609375 1030.13964844 c 1
 831.821289062 907.263671875 l 1
EndSplineSet
Fore
SplineSet
908 807 m 1xc0
 888 820 811 868 764 868 c 0xc0
 609 868 527 690 498 553 c 2
 380 0 l 1
 122 0 l 1
 350 1073 l 1
 608 1073 l 1xa0
 574 912 l 1
 654 1019 783 1102 863 1102 c 0
 932 1102 1003 1060 1047 1008 c 1
 908 807 l 1xc0
EndSplineSet
EndChar

StartChar: s
Encoding: 115 115 39
Width: 958
Flags: W
HStem: -29 230<409.918 675.406> 870 230<559.284 780.601>
VStem: 284.144 251.774<701.262 842.59> 701.776 251.619<229.754 377.736>
LayerCount: 2
Back
SplineSet
563.227539062 491.51953125 m 0
 415.408203125 543.455078125 241.186523438 614.400390625 280.365234375 798.719726562 c 0
 319.543945312 983.040039062 491.377929688 1097.73046875 692.08203125 1097.73046875 c 0
 900.977539062 1097.73046875 998.609375 978.944335938 998.065429688 870.400390625 c 1
 850.659179688 841.728515625 l 0
 842.931640625 911.360351562 790.328125 962.560546875 665.3984375 962.560546875 c 0
 519.990234375 962.560546875 454.860351562 897.024414062 435.271484375 804.864257812 c 0
 411.329101562 692.223632812 533.823242188 661.50390625 596.18359375 636.927734375 c 0
 735.501953125 582.0234375 935.657226562 499.711914062 892.560546875 296.959960938 c 0
 847.723632812 86.015625 669.745117188 -28.671875 456.75390625 -28.671875 c 0
 243.76171875 -28.671875 141.776367188 69.6318359375 132.159179688 217.087890625 c 1
 279.130859375 243.711914062 l 1
 282.940429688 155.6484375 350.31640625 106.49609375 481.388671875 106.49609375 c 0
 620.65234375 106.49609375 712.40625 172.032226562 738.9609375 296.959960938 c 0
 761.162109375 401.408203125 662.323242188 456.704101562 563.227539062 491.51953125 c 0
EndSplineSet
Fore
SplineSet
446 491 m 0
 345.252724512 550.968616362 284.143949788 598.789950232 284.143949788 711.654748464 c 0
 284.143949788 739.944780556 287.98326206 772.321331681 296 810 c 0
 334 988 504 1100 728 1100 c 0
 943.726340424 1100 1044.44363489 956.238692548 1044.44363489 816.992999439 c 0
 1044.44363489 811.652569245 1044.29548784 806.318781156 1044 801 c 1
 795 758 l 1
 795.15571123 761.6592139 795.232623002 765.203259361 795.232623002 768.635557815 c 0
 795.232623002 853.374124333 748.352909094 870 683 870 c 0
 615 870 554 857 538 783 c 0
 536.597293218 776.477413466 535.917674408 770.382776955 535.917674408 764.660546541 c 0
 535.917674408 688.794372463 655.380030184 678.389172874 793 604 c 0
 897.763411043 546.85632125 953.394645841 479.634247372 953.394645841 367.338847689 c 0
 953.394645841 338.144078136 949.63449842 305.902776353 942 270 c 0
 905 94 694 -29 479 -29 c 0
 259 -29 141 98 140 290 c 1
 380 329 l 1
 379.936063147 327.209768113 379.90437545 325.437704764 379.90437545 323.683848675 c 0
 379.90437545 243.144504368 446.726295034 201 526 201 c 0
 607 201 682 211 700 295 c 0
 701.198631049 300.693497484 701.775882259 306.149936763 701.775882259 311.392781352 c 0
 701.775882259 393.630477055 559.748282152 423.315071777 446 491 c 0
EndSplineSet
EndChar

StartChar: t
Encoding: 116 116 40
Width: 706
Flags: W
HStem: -15 21G<462.869 622.24> 844 229<300 392 699 804>
VStem: 262.207 268.68<119.045 440.828>
LayerCount: 2
Back
SplineSet
453.326171875 937.984375 m 0
 312.014648438 937.984375 l 1
 340.745117188 1073.15039062 l 1
 482.056640625 1073.15039062 l 0
 535.166015625 1323.00976562 l 1
 686.71875 1323.00976562 l 0
 633.609375 1073.15039062 l 0
 830.216796875 1073.15039062 l 1
 801.486328125 937.984375 l 1
 604.87890625 937.984375 l 0
 451.211914062 215.040039062 l 0
 429.010742188 110.591796875 498.079101562 98.3037109375 543.134765625 98.3037109375 c 1
 612.767578125 98.3037109375 l 1
 585.77734375 -28.671875 l 1
 516.145507812 -28.671875 l 1
 311.345703125 -28.671875 264.399414062 49.15234375 298.7890625 210.944335938 c 1
 453.326171875 937.984375 l 0
EndSplineSet
Fore
SplineSet
392 844 m 1
 251 844 l 1
 300 1073 l 1
 441 1073 l 1
 494 1323 l 1
 752 1323 l 1
 699 1073 l 1
 853 1073 l 1
 804 844 l 1
 650 844 l 1
 534 297 l 2
 531.869021709 286.937046957 530.88732618 277.925267173 530.88732618 269.856807477 c 0
 530.88732618 209.772402777 585.327445729 202 625 202 c 2
 664 202 l 1
 618 -15 l 1
 579 -15 l 2
 346.738332978 -15 262.207459158 50.9512469655 262.207459158 187.138481194 c 0
 262.207459158 218.648092892 266.732564157 253.917576016 275 293 c 2
 392 844 l 1
EndSplineSet
EndChar

StartChar: u
Encoding: 117 117 41
Width: 1112
Flags: W
HStem: -29 235<350.059 598.113> 0 21G<745 1007.25> 1053 20G<331.762 594 967.746 1231>
VStem: 192.078 269.192<238.394 602.688>
LayerCount: 2
Back
SplineSet
971.529296875 1073.15039062 m 9
 1123.08105469 1073.15039062 l 1
 894.975585938 0 l 1
 743.423828125 0 l 1
 773.025390625 139.263671875 l 17
 721.489257812 79.8720703125 632.139648438 -22.5283203125 486.732421875 -22.5283203125 c 0
 230.731445312 -22.5283203125 149.463867188 192.51171875 204.313476562 450.559570312 c 0
 336.649414062 1073.15039062 l 1
 488.201171875 1073.15039062 l 0
 356.736328125 454.65625 l 0
 320.169921875 282.624023438 395.065429688 114.688476562 505.657226562 114.688476562 c 1
 632.633789062 114.688476562 794.791015625 241.6640625 831.357421875 413.696289062 c 0
 971.529296875 1073.15039062 l 9
EndSplineSet
Fore
SplineSet
1003 0 m 1x70
 745 0 l 1x70
 779 161 l 1
 700 57 559 -29 422 -29 c 0
 278.11747085 -29 192.077952931 74.8927871642 192.077952931 286.465951943 c 0
 192.077952931 357.220654748 201.700441985 440.018117437 222 535 c 2
 336 1073 l 1
 594 1073 l 1
 480 536 l 2
 466.924925148 474.006110618 461.269531339 423.192562532 461.269531339 381.669047994 c 0
 461.269531339 238.997529571 528.034586002 206 590 206 c 0xb0
 670 206 800 263 858 537 c 2
 972 1073 l 1
 1231 1073 l 1
 1003 0 l 1x70
EndSplineSet
EndChar

StartChar: v
Encoding: 118 118 42
Width: 1060
Flags: W
HStem: 0 21G<408.931 634.568> 1053 20G<300 571.991 934.117 1191>
VStem: 300 271<934.419 1073>
LayerCount: 2
Back
SplineSet
436.223632812 0 m 1
 299.78515625 1073.15039062 l 1
 459.529296875 1073.15039062 l 1
 553.35546875 194.559570312 l 1
 1026.82519531 1073.15039062 l 1
 1184.52148438 1073.15039062 l 1
 587.776367188 0 l 1
 436.223632812 0 l 1
EndSplineSet
Fore
SplineSet
411 0 m 1
 300 1073 l 1
 571 1073 l 1
 605 387 l 1
 944 1073 l 1
 1191 1073 l 1
 624 0 l 1
 411 0 l 1
EndSplineSet
EndChar

StartChar: w
Encoding: 119 119 43
Width: 1449
Flags: W
HStem: 0 21G<370.378 581.524 851 1080.12> 1053 20G<285 540.777 830.887 1071 1360.66 1613>
VStem: 285 255<896.189 1073> 851 219<407 664>
LayerCount: 2
Back
SplineSet
864.430664062 829.440429688 m 1
 460.799804688 0 l 1
 344.064453125 0 l 1
 285.44921875 1073.15039062 l 1
 434.953125 1073.15039062 l 1
 463.529296875 282.624023438 l 1
 842.8125 1064.95996094 l 1
 986.171875 1064.95996094 l 17
 1032.87402344 282.624023438 l 1
 1397.51464844 1073.15039062 l 17
 1547.01464844 1073.15039062 l 1
 1032.19042969 0 l 1
 909.311523438 0 l 1
 864.430664062 829.440429688 l 1
EndSplineSet
Fore
SplineSet
856 664 m 1
 573 0 l 1
 372 0 l 1
 285 1073 l 1
 540 1073 l 1
 566 404 l 1
 839 1077 l 1
 1071 1077 l 1
 1059 407 l 1
 1370 1073 l 1
 1613 1073 l 1
 1070 0 l 1
 851 0 l 1
 856 664 l 1
EndSplineSet
EndChar

StartChar: x
Encoding: 120 120 44
Width: 1054
Flags: W
HStem: 0 21G<27 349.582 706.896 1021> 1053 20G<273 570.273 924.424 1254>
LayerCount: 2
Back
SplineSet
860.16015625 0 m 1
 690.17578125 0 l 9
 542.104492188 440.3203125 l 1
 219.135742188 0 l 1
 43.0078125 0 l 9
 470.83984375 538.624023438 l 1
 273.161132812 1073.15039062 l 9
 443.145507812 1073.15039062 l 1
 584.330078125 638.975585938 l 0
 910.088867188 1073.15039062 l 1
 1080.07324219 1073.15039062 l 1
 656.030273438 542.719726562 l 0
 860.16015625 0 l 1
EndSplineSet
Fore
SplineSet
1021 0 m 1
 714 0 l 1
 595 335 l 1
 334 0 l 1
 27 0 l 1
 482 536 l 1
 273 1073 l 1
 563 1073 l 1
 683 743 l 1
 940 1073 l 1
 1254 1073 l 1
 796 545 l 1
 1021 0 l 1
EndSplineSet
EndChar

StartChar: y
Encoding: 121 121 45
Width: 1106
Flags: W
HStem: -465 232<361.268 637.64> -29 235<350.059 598.113> 1053 20G<331.762 594 967.746 1231>
VStem: 192.078 269.192<238.394 602.688>
LayerCount: 2
Back
SplineSet
244.299804688 -183.837890625 m 0
 269.83984375 -261.986328125 343.372070312 -313.34375 435.15625 -313.34375 c 0
 560.084960938 -313.34375 695.5390625 -225.280273438 736.458984375 -32.767578125 c 0
 774.331054688 145.408203125 l 17
 726.456054688 83.9677734375 633.4453125 -16.3837890625 488.038085938 -16.3837890625 c 0
 232.037109375 -16.3837890625 150.76953125 198.65625 205.619140625 456.704101562 c 0
 336.649414062 1073.15039062 l 1
 488.201171875 1073.15039062 l 0
 358.041992188 460.799804688 l 0
 321.475585938 288.767578125 396.372070312 120.83203125 506.963867188 120.83203125 c 1
 633.939453125 120.83203125 796.09765625 247.807617188 832.6640625 419.83984375 c 0
 971.529296875 1073.15039062 l 9
 1123.08105469 1073.15039062 l 1
 985.521484375 425.984375 l 1
 891.05859375 -18.431640625 l 2
 833.161132812 -290.81640625 617.370117188 -448.51171875 414.618164062 -448.51171875 c 1
 233.140625 -448.51171875 142.747070312 -351.876953125 107.936523438 -247.555664062 c 1
 244.299804688 -183.837890625 l 0
EndSplineSet
Fore
SplineSet
997 -29 m 2
 951 -246 671 -465 456 -465 c 0
 245 -465 124 -348 92 -224 c 1
 320 -112 l 1
 329 -182 390 -233 499 -233 c 0
 608 -233 709 -168 732 -59 c 2
 779 161 l 1
 700 57 559 -29 422 -29 c 0
 278.11747085 -29 192.077952931 74.8927871642 192.077952931 286.465951943 c 0
 192.077952931 357.220654748 201.700441985 440.018117437 222 535 c 2
 336 1073 l 1
 594 1073 l 1
 480 536 l 2
 466.924925148 474.006110618 461.269531339 423.192562532 461.269531339 381.669047994 c 0
 461.269531339 238.997529571 528.034586002 206 590 206 c 0
 670 206 800 263 858 537 c 2
 972 1073 l 1
 1231 1073 l 1
 1009 29 l 1
 997 -29 l 2
EndSplineSet
EndChar

StartChar: z
Encoding: 122 122 46
Width: 1005
Flags: W
HStem: 0 240<534 889> 834 239<343 679>
LayerCount: 2
Back
SplineSet
361.8125 141.311523438 m 1
 896.340820312 141.311523438 l 1
 866.303710938 0 l 1
 79.8720703125 0 l 1
 822.708984375 931.83984375 l 2
 298.420898438 931.83984375 l 1
 328.45703125 1073.15039062 l 1
 1104.64941406 1073.15039062 l 1
 361.8125 141.311523438 l 1
EndSplineSet
Fore
SplineSet
534 240 m 1
 940 240 l 1
 889 0 l 1
 66 0 l 1
 679 834 l 1
 292 834 l 1
 343 1073 l 1
 1149 1073 l 1
 534 240 l 1
EndSplineSet
EndChar

StartChar: Ograve
Encoding: 210 210 47
Width: 1347
Flags: W
HStem: -29 240<615.506 921.717> 1245 240<818.472 1124.11>
VStem: 230.53 283.459<320.782 807.326> 1224.99 281.93<645.695 1136.61>
LayerCount: 2
Fore
SplineSet
1140 1928 m 2
 878 2141 l 2
 870 2148 865 2158 865 2171 c 0
 865 2179 866 2188 868 2197 c 0
 870 2208 873 2219 879 2231 c 0
 889 2253 901 2270 915 2283 c 0
 926 2294 941 2306 957 2316 c 0
 973 2326 990 2333 1005 2337 c 0
 1012 2339 1018 2340 1024 2340 c 0
 1035 2340 1043 2337 1050 2330 c 2
 1281 2083 l 2
 1284 2080 1285 2075 1285 2070 c 0
 1285 2065 1284 2058 1283 2052 c 0
 1281 2043 1279 2033 1272 2021 c 0
 1262 2001 1251 1986 1241 1976 c 0
 1231 1966 1218 1956 1203 1945 c 0
 1188 1934 1175 1928 1163 1925 c 0
 1159 1924 1156 1923 1153 1923 c 0
 1148 1923 1143 1925 1140 1928 c 2
254 726 m 0
 326 1067 582 1485 1031 1485 c 0
 1385.87866012 1485 1506.9152825 1225.03730912 1506.9152825 947.888799512 c 0
 1506.9152825 873.602175538 1498.21941438 798.080837556 1483 726 c 0
 1411 389 1159 -29 709 -29 c 0
 353.436281666 -29 230.529553833 233.131056685 230.529553833 509.58601588 c 0
 230.529553833 582.233820206 239.016899154 655.870764095 254 726 c 0
1201 726 m 0
 1215.80006727 794.973898424 1224.98567268 865.897262772 1224.98567268 932.302839182 c 0
 1224.98567268 1103.6999352 1163.79212916 1245 980 1245 c 0
 726 1245 590 973 537 726 c 0
 522.755596199 659.434805315 513.988974164 590.693505545 513.988974164 525.963231447 c 0
 513.988974164 354.391986709 575.578433951 211 760 211 c 0
 1015 211 1149 483 1201 726 c 0
EndSplineSet
EndChar

StartChar: Oacute
Encoding: 211 211 48
Width: 1347
Flags: W
HStem: -29 240<615.506 921.717> 1245 240<818.472 1124.11>
VStem: 230.53 283.459<320.782 807.326> 1224.99 281.93<645.695 1136.61>
LayerCount: 2
Fore
SplineSet
254 726 m 0
 326 1067 582 1485 1031 1485 c 0
 1385.87866012 1485 1506.9152825 1225.03730912 1506.9152825 947.888799512 c 0
 1506.9152825 873.602175538 1498.21941438 798.080837556 1483 726 c 0
 1411 389 1159 -29 709 -29 c 0
 353.436281666 -29 230.529553833 233.131056685 230.529553833 509.58601588 c 0
 230.529553833 582.233820206 239.016899154 655.870764095 254 726 c 0
1201 726 m 0
 1215.80006727 794.973898424 1224.98567268 865.897262772 1224.98567268 932.302839182 c 0
 1224.98567268 1103.6999352 1163.79212916 1245 980 1245 c 0
 726 1245 590 973 537 726 c 0
 522.755596199 659.434805315 513.988974164 590.693505545 513.988974164 525.963231447 c 0
 513.988974164 354.391986709 575.578433951 211 760 211 c 0
 1015 211 1149 483 1201 726 c 0
1036 1533 m 2
 774 1746 l 2
 766 1753 762 1763 762 1776 c 0
 762 1784 762 1793 764 1802 c 0
 766 1813 769 1824 775 1836 c 0
 785 1858 797 1875 811 1888 c 0
 822 1899 837 1911 853 1921 c 0
 869 1931 886 1938 901 1942 c 0
 908 1944 914 1945 920 1945 c 0
 931 1945 939 1942 946 1935 c 2
 1177 1688 l 2
 1180 1685 1181 1680 1181 1675 c 0
 1181 1670 1180 1663 1179 1657 c 0
 1177 1648 1175 1638 1168 1626 c 0
 1158 1606 1147 1591 1137 1581 c 0
 1127 1571 1114 1561 1099 1550 c 0
 1084 1539 1071 1533 1059 1530 c 0
 1055 1529 1052 1528 1049 1528 c 0
 1044 1528 1039 1530 1036 1533 c 2
EndSplineSet
EndChar

StartChar: Ocircumflex
Encoding: 212 212 49
Width: 1347
Flags: W
HStem: -29 240<615.506 921.717> 1245 240<818.472 1124.11>
VStem: 230.53 283.459<320.782 807.326> 1224.99 281.93<645.695 1136.61>
LayerCount: 2
Fore
SplineSet
254 726 m 0
 326 1067 582 1485 1031 1485 c 0
 1385.87866012 1485 1506.9152825 1225.03730912 1506.9152825 947.888799512 c 0
 1506.9152825 873.602175538 1498.21941438 798.080837556 1483 726 c 0
 1411 389 1159 -29 709 -29 c 0
 353.436281666 -29 230.529553833 233.131056685 230.529553833 509.58601588 c 0
 230.529553833 582.233820206 239.016899154 655.870764095 254 726 c 0
1201 726 m 0
 1215.80006727 794.973898424 1224.98567268 865.897262772 1224.98567268 932.302839182 c 0
 1224.98567268 1103.6999352 1163.79212916 1245 980 1245 c 0
 726 1245 590 973 537 726 c 0
 522.755596199 659.434805315 513.988974164 590.693505545 513.988974164 525.963231447 c 0
 513.988974164 354.391986709 575.578433951 211 760 211 c 0
 1015 211 1149 483 1201 726 c 0
1045 1533 m 2
 1040 1530 1036 1528 1031 1528 c 0
 1028 1528 1025 1529 1021 1530 c 0
 1011 1533 1000 1539 989 1550 c 0
 978 1561 971 1571 965 1581 c 0
 959 1591 956 1606 954 1626 c 0
 953.585786438 1631.38477631 953.343145751 1636.42640687 953.343145751 1641.19595949 c 0
 953.343145751 1647.9411255 953.828427125 1654.14213562 955 1660 c 0
 956 1665 958 1670 960 1675 c 0
 962 1680 966 1685 971 1688 c 2
 1305 1935 l 2
 1314 1942 1325 1945 1336 1945 c 0
 1342 1945 1348 1944 1355 1942 c 0
 1368 1938 1381 1931 1393 1921 c 0
 1405 1911 1414 1899 1421 1888 c 0
 1429 1875 1434 1858 1434 1836 c 0
 1434 1824 1433 1813 1431 1802 c 0
 1429 1793 1426 1784 1422 1776 c 0
 1416 1763 1408 1753 1398 1746 c 2
 1045 1533 l 2
EndSplineSet
EndChar

StartChar: Otilde
Encoding: 213 213 50
Width: 1347
Flags: W
HStem: -29 240<615.506 921.717> 1245 240<818.472 1124.11> 1548 247<1152.58 1319.53> 1700 247<880.198 1025.25>
VStem: 230.53 283.459<320.782 807.326> 1224.99 281.93<645.695 1136.61>
LayerCount: 2
Fore
SplineSet
797 1844 m 1xdc
 850 1881 924 1947 1002 1947 c 0xdc
 1100 1947 1142 1795 1246 1795 c 0
 1316 1795 1394 1861 1446 1902 c 1
 1391 1642 l 1
 1348 1614 1276 1548 1193 1548 c 0xec
 1078 1548 1028 1700 946 1700 c 0
 869 1700 818 1648 746 1603 c 1
 797 1844 l 1xdc
254 726 m 0
 326 1067 582 1485 1031 1485 c 0
 1385.87866012 1485 1506.9152825 1225.03730912 1506.9152825 947.888799512 c 0
 1506.9152825 873.602175538 1498.21941438 798.080837556 1483 726 c 0
 1411 389 1159 -29 709 -29 c 0
 353.436281666 -29 230.529553833 233.131056685 230.529553833 509.58601588 c 0
 230.529553833 582.233820206 239.016899154 655.870764095 254 726 c 0
1201 726 m 0
 1215.80006727 794.973898424 1224.98567268 865.897262772 1224.98567268 932.302839182 c 0
 1224.98567268 1103.6999352 1163.79212916 1245 980 1245 c 0
 726 1245 590 973 537 726 c 0
 522.755596199 659.434805315 513.988974164 590.693505545 513.988974164 525.963231447 c 0
 513.988974164 354.391986709 575.578433951 211 760 211 c 0
 1015 211 1149 483 1201 726 c 0
EndSplineSet
EndChar

StartChar: Odieresis
Encoding: 214 214 51
Width: 1347
Flags: W
HStem: -29 240<615.506 921.717> 1245 240<818.472 1124.11> 1574 328<758.002 930.998 1229 1402>
VStem: 230.53 283.459<320.782 807.326> 675.996 336.192<1654.02 1821.71> 1147 336.192<1654.02 1821.71> 1224.99 281.93<645.695 1136.61>
LayerCount: 2
Fore
SplineSet
1151 1738 m 0xfc
 1161 1783 1185 1822 1224 1854 c 0
 1263 1886 1305 1902 1350 1902 c 0
 1395 1902 1431 1886 1456 1854 c 0
 1474.00112867 1830.95855531 1483.18835211 1804.28785552 1483.18835211 1774.36121886 c 0
 1483.18835211 1762.72568848 1481.79954853 1750.5979684 1479 1738 c 0
 1469 1693 1446 1654 1407 1622 c 0
 1368 1590 1326 1574 1281 1574 c 0
 1236 1574 1200 1591 1175 1623 c 0
 1156.72162168 1646.39632425 1146.99618068 1673 1146.99618068 1703.2018618 c 0
 1146.99618068 1714.30818018 1148.31135133 1725.90108098 1151 1738 c 0xfc
680 1738 m 0
 690 1783 714 1822 753 1854 c 0
 792 1886 834 1902 879 1902 c 0
 924 1902 960 1886 985 1854 c 0
 1003.00112867 1830.95855531 1012.18835211 1804.28785552 1012.18835211 1774.36121886 c 0
 1012.18835211 1762.72568848 1010.79954853 1750.5979684 1008 1738 c 0
 998 1693 975 1654 936 1622 c 0
 897 1590 855 1574 810 1574 c 0
 765 1574 729 1591 704 1623 c 0
 685.721621678 1646.39632425 675.996180676 1673 675.996180676 1703.2018618 c 0
 675.996180676 1714.30818018 677.311351329 1725.90108098 680 1738 c 0
254 726 m 0
 326 1067 582 1485 1031 1485 c 0
 1385.87866012 1485 1506.9152825 1225.03730912 1506.9152825 947.888799512 c 0xfa
 1506.9152825 873.602175538 1498.21941438 798.080837556 1483 726 c 0
 1411 389 1159 -29 709 -29 c 0
 353.436281666 -29 230.529553833 233.131056685 230.529553833 509.58601588 c 0
 230.529553833 582.233820206 239.016899154 655.870764095 254 726 c 0
1201 726 m 0
 1215.80006727 794.973898424 1224.98567268 865.897262772 1224.98567268 932.302839182 c 0
 1224.98567268 1103.6999352 1163.79212916 1245 980 1245 c 0
 726 1245 590 973 537 726 c 0
 522.755596199 659.434805315 513.988974164 590.693505545 513.988974164 525.963231447 c 0
 513.988974164 354.391986709 575.578433951 211 760 211 c 0
 1015 211 1149 483 1201 726 c 0
EndSplineSet
EndChar

StartChar: multiply
Encoding: 215 215 52
Width: 833
Flags: W
LayerCount: 2
Fore
SplineSet
159 458 m 1
 387 647 l 1
 216 859 l 1
 421 1030 l 1
 591 818 l 1
 835 1023 l 1
 971 854 l 1
 725 649 l 1
 887 448 l 1
 683 277 l 1
 522 479 l 1
 294 289 l 1
 159 458 l 1
EndSplineSet
EndChar

StartChar: Oslash
Encoding: 216 216 53
Width: 1425
Flags: W
HStem: -29 242<684.855 914.701> 1249 240<819.139 1047.31>
VStem: 236.241 283.843<426.87 820.848> 1227.08 284.095<660.87 1065.65>
LayerCount: 2
Back
SplineSet
527.700195312 -28.671875 m 5
 241.033203125 -28.671875 l 5
 1223.87402344 1515.5 l 4
 1491.54394531 1515.51953125 l 5
 527.700195312 -28.671875 l 5
1206.7265625 753.6640625 m 0
 1255.01660156 980.852539062 1237.58300781 1249.28027344 980.294921875 1249.28027344 c 0
 724.958984375 1249.28027344 591.462890625 980.852539062 543.171875 753.6640625 c 1
 490.708007812 506.838867188 506.314453125 212.9921875 760.024414062 212.9921875 c 1
 1015.68457031 212.9921875 1154.26171875 506.838867188 1206.7265625 753.6640625 c 0
260.547851562 753.6640625 m 1
 328.709960938 1074.33984375 580.666992188 1488.90039062 1031.22753906 1488.90039062 c 1
 1483.86523438 1488.90039062 1557.5078125 1074.33984375 1489.34667969 753.6640625 c 1
 1416.8359375 412.530273438 1159.13574219 -28.671875 708.657226562 -28.671875 c 1
 260.254882812 -28.671875 188.038085938 412.530273438 260.547851562 753.6640625 c 1
EndSplineSet
Fore
SplineSet
531 426 m 1
 1048 1241 l 1
 1028 1243 1023 1249 986 1249 c 0
 711 1249 586 961 536 727 c 0
 527.487507803 687.477714798 520.084135862 614.312115157 520.084135862 545.043916482 c 0
 520.084135862 500.390744191 523.160703139 457.357187444 531 426 c 1
684 223 m 1
 710 219 716 213 758 213 c 0
 1024 213 1162 537 1202 727 c 0
 1217.78449784 800.660989943 1227.07536459 866.461268554 1227.07536459 930.59471476 c 0
 1227.07536459 976.16403291 1222.38472422 1020.89182447 1212 1067 c 1
 684 223 l 1
544 -6 m 1
 526 -29 l 1
 242 -29 l 1
 344 135 l 1
 267.484328434 233.377292014 236.241365377 390.562432194 236.241365377 537.044408983 c 0
 236.241365377 604.975781311 242.960674281 670.605263739 255 727 c 0
 333 1096 586 1489 1037 1489 c 0
 1093 1489 1154 1482 1193 1466 c 1
 1206 1493 l 1
 1478 1493 l 1
 1387 1348 l 1
 1476.90593737 1247.09837245 1511.17038013 1111.05474829 1511.17038013 966.658091259 c 0
 1511.17038013 887.808810213 1500.95334537 806.468806411 1484 727 c 0
 1428 463 1184 -29 709 -29 c 0
 651 -29 592 -20 544 -6 c 1
EndSplineSet
EndChar

StartChar: Ucircumflex
Encoding: 219 219 54
Width: 1298
Flags: W
HStem: -35 240<555.586 824.074> 1436 20G<419.77 692 1196.77 1469>
VStem: 218.262 273.11<274.759 694.75>
LayerCount: 2
Fore
SplineSet
1392 1566 m 1
 1121 1566 l 1
 1023 1727 l 1
 866 1569 l 1
 589 1569 l 1
 945 1910 l 1
 1181 1910 l 1
 1392 1566 l 1
630 -35 m 0
 353.901738111 -35 218.262328268 134.473826177 218.262328268 393.097441834 c 0
 218.262328268 452.954749317 225.528135781 517.587550963 240 586 c 2
 424 1456 l 1
 692 1456 l 1
 508 586 l 2
 497.639981754 537.653248185 491.372756886 488.106884518 491.372756886 441.409850396 c 0
 491.372756886 312.317200801 539.268808243 205 681 205 c 0
 875 205 978 404 1017 586 c 2
 1201 1456 l 1
 1469 1456 l 1
 1285 586 l 2
 1208 222 971 -35 630 -35 c 0
EndSplineSet
EndChar

StartChar: Udieresis
Encoding: 220 220 55
Width: 1298
Flags: W
HStem: -35 240<555.586 824.074> 1436 20G<419.77 692 1196.77 1469> 1537 328<696.002 868.998 1167 1340>
VStem: 218.262 273.11<274.759 694.75> 614.812 336.192<1617.02 1784.98> 1085.81 336.192<1617.02 1784.98>
LayerCount: 2
Fore
SplineSet
1090 1701 m 0
 1100 1746 1123 1785 1162 1817 c 0
 1201 1849 1243 1865 1288 1865 c 0
 1333 1865 1369 1849 1394 1817 c 0
 1412.27837832 1793.60367575 1422.00381932 1766.46544142 1422.00381932 1735.97613157 c 0
 1422.00381932 1724.76410814 1420.68864867 1713.09891902 1418 1701 c 0
 1408 1656 1384 1617 1345 1585 c 0
 1306 1553 1264 1537 1219 1537 c 0
 1174 1537 1138 1554 1113 1586 c 0
 1094.99887133 1609.04144469 1085.81164789 1635.19367947 1085.81164789 1664.83002254 c 0
 1085.81164789 1676.35268624 1087.20045147 1688.4020316 1090 1701 c 0
619 1701 m 0
 629 1746 652 1785 691 1817 c 0
 730 1849 772 1865 817 1865 c 0
 862 1865 898 1849 923 1817 c 0
 941.278378322 1793.60367575 951.003819324 1766.46544142 951.003819324 1735.97613157 c 0
 951.003819324 1724.76410814 949.688648671 1713.09891902 947 1701 c 0
 937 1656 913 1617 874 1585 c 0
 835 1553 793 1537 748 1537 c 0
 703 1537 667 1554 642 1586 c 0
 623.998871333 1609.04144469 614.811647892 1635.19367947 614.811647892 1664.83002254 c 0
 614.811647892 1676.35268624 616.200451467 1688.4020316 619 1701 c 0
630 -35 m 0
 353.901738111 -35 218.262328268 134.473826177 218.262328268 393.097441834 c 0
 218.262328268 452.954749317 225.528135781 517.587550963 240 586 c 2
 424 1456 l 1
 692 1456 l 1
 508 586 l 2
 497.639981754 537.653248185 491.372756886 488.106884518 491.372756886 441.409850396 c 0
 491.372756886 312.317200801 539.268808243 205 681 205 c 0
 875 205 978 404 1017 586 c 2
 1201 1456 l 1
 1469 1456 l 1
 1285 586 l 2
 1208 222 971 -35 630 -35 c 0
EndSplineSet
EndChar

StartChar: Yacute
Encoding: 221 221 56
Width: 1179
Flags: W
HStem: 0 21G<530 802.261> 1435 20G<376 722.526 1212.97 1568> 1435 20G<376 722.526 1212.97 1568>
LayerCount: 2
Fore
SplineSet
1037 1900 m 2x80
 1032 1897 1028 1895 1023 1895 c 0
 1020 1895 1017 1896 1013 1897 c 0
 1003 1900 992 1906 981 1917 c 0
 970 1928 963 1938 957 1948 c 0
 951 1958 948 1973 946 1993 c 0
 945 2006 945 2017 947 2027 c 0
 948 2032 950 2037 952 2042 c 0
 954 2047 958 2052 963 2055 c 2
 1297 2302 l 2
 1306 2309 1317 2312 1328 2312 c 0
 1334 2312 1340 2311 1347 2309 c 0
 1360 2305 1373 2298 1385 2288 c 0
 1397 2278 1406 2266 1413 2255 c 0
 1421 2242 1426 2225 1426 2203 c 0
 1426 2191 1425 2180 1423 2169 c 0
 1421 2160 1419 2151 1415 2143 c 0
 1409 2130 1400 2120 1390 2113 c 2
 1037 1900 l 2x80
376 1455 m 1xc0
 716 1455 l 1
 871 980 l 1
 1228 1455 l 1
 1568 1455 l 1
 945 690 l 1
 798 0 l 1
 530 0 l 1
 677 690 l 1
 376 1455 l 1xc0
EndSplineSet
EndChar

StartChar: Thorn
Encoding: 222 222 57
Width: 1384
Flags: W
HStem: 0 21G<135 407.251> 287 239<515 790.835> 961 238<658 879.992> 1436 20G<439.755 712>
VStem: 968.397 274.396<665.278 878.6>
LayerCount: 2
Back
SplineSet
393.865234375 477.102539062 m 1
 664.365234375 477.102539062 972.0703125 530.349609375 1018.70117188 749.731445312 c 1
 1068.50195312 984.0234375 726.428710938 1009.58007812 507.046875 1009.58007812 c 1
 393.865234375 477.102539062 l 1
444.677734375 1456.12988281 m 0
 601.963867188 1456.12988281 l 1
 536.927734375 1150.16015625 l 1
 911.793945312 1150.16015625 1243.44726562 1067.08984375 1175.99023438 749.731445312 c 0
 1103.10058594 406.814453125 732.461914062 336.52734375 363.985351562 336.52734375 c 1
 292.454101562 0 l 1
 135.16796875 0 l 1
 444.677734375 1456.12988281 l 0
EndSplineSet
Fore
SplineSet
444 1456 m 1
 712 1456 l 1
 658 1199 l 1
 967.612415891 1199 1242.79356556 1124.5323777 1242.79356556 853.789156368 c 0
 1242.79356556 821.969722673 1238.99264853 787.43924839 1231 750 c 0
 1149 365 804 287 464 287 c 1
 403 0 l 1
 135 0 l 1
 444 1456 l 1
515 526 m 1
 707 526 926 569 964 750 c 0
 966.982360897 764.166214261 968.397070307 777.392949439 968.397070307 789.741548156 c 0
 968.397070307 943.014738938 750.443351524 961 607 961 c 1
 515 526 l 1
EndSplineSet
EndChar

StartChar: germandbls
Encoding: 223 223 58
Width: 1261
Flags: W
HStem: -29 224<535.092 861.12> 0 21G<62 340> 649 195<714 881.813> 1294 234<739.862 1053.42>
VStem: 996.223 255.689<313.904 551.84> 1085.43 256.918<990.395 1258.84>
LayerCount: 2
Back
SplineSet
409 1151.75 m 1
 539.294921875 1347.9296875 704.086914062 1478.71972656 959.330078125 1478.71972656 c 1
 1208.24316406 1478.71972656 1380.89746094 1328.95019531 1318.21386719 1073.70996094 c 1
 1276.96289062 879.63671875 1055.1640625 778.383789062 928.200195312 746.7421875 c 1
 1036.28125 719.319335938 1234.64648438 601.190429688 1191.60351562 398.684570312 c 1
 1132.41699219 120.23828125 885.544921875 -29.5322265625 594.442382812 -29.5322265625 c 1
 529.049804688 -29.5322265625 480.348632812 -10.5478515625 420.021484375 23.2041015625 c 9
 536.733398438 145.551757812 l 17
 567.793945312 132.893554688 594.502929688 109.690429688 624.03515625 109.690429688 c 1
 820.211914062 109.690429688 1001.14550781 196.177734375 1044.19042969 398.684570312 c 1
 1076.02441406 548.454101562 882.209960938 679.240234375 686.032226562 679.240234375 c 1
 650.171875 679.240234375 l 2
 637.514648438 679.240234375 624.858398438 679.240234375 606.63671875 672.911132812 c 1
 638.919921875 824.791015625 l 1
 652.790039062 820.572265625 663.336914062 820.572265625 673.883789062 820.572265625 c 2
 716.073242188 820.572265625 l 1
 886.9375 820.572265625 1135.50488281 917.606445312 1168.68652344 1073.70996094 c 1
 1208.14257812 1259.33984375 1111.59570312 1341.59960938 930.18359375 1341.59960938 c 1
 725.568359375 1341.59960938 612.768554688 1238.24023438 540.223632812 1105.34960938 c 1
 427.567382812 902.83984375 314.231445312 310.087890625 229.334960938 0 c 1
 81.919921875 0 l 1
 190.234375 360.713867188 299.432617188 993.545898438 409 1151.75 c 1
EndSplineSet
Fore
SplineSet
427 1260 m 1x74
 549 1427 722 1528 970 1528 c 0
 1207.71619611 1528 1342.34691587 1390.06872882 1342.34691587 1185.33761765 c 0x74
 1342.34691587 1149.78228242 1338.2863549 1112.21221516 1330 1073 c 0
 1289 881 1171 792 1096 767 c 1
 1153.4031075 755.00532082 1251.91259461 643.180862599 1251.91259461 483.096449978 c 0
 1251.91259461 456.33286582 1249.15919966 428.220389099 1243 399 c 0
 1182 111 933 -29 612 -29 c 0
 526 -29 452 -20 420 23 c 1
 561 226 l 1
 575 210 589 195 634 195 c 0
 805 195 960 249 992 399 c 0
 994.8233858 412.411082549 996.22328814 425.659481273 996.22328814 438.641644301 c 0xb8
 996.22328814 554.405813006 884.908737567 649 679 649 c 2
 644 649 l 2
 654 649 646 651 668 694 c 1
 714 844 l 1
 843 844 1037 888 1076 1073 c 0
 1082.3000953 1102.20953275 1085.42926822 1128.32103789 1085.42926822 1151.45280554 c 0
 1085.42926822 1249.48560702 1029.22688287 1294 920 1294 c 0
 772 1294 683 1230 621 1140 c 0
 530 1008 385 159 295 0 c 1
 62 0 l 1
 163 159 288 1074 427 1260 c 1x74
EndSplineSet
EndChar

StartChar: acircumflex
Encoding: 226 226 59
Width: 1036
Flags: W
HStem: -29 220<360.789 620.32> 0 21G<721 982.262> 524 217<498.931 761.681> 897 205<474.369 812.076> 1462 20G<704.12 973.267>
VStem: 156.219 248.785<235.788 428.524> 867.03 256.07<578.891 843.299>
LayerCount: 2
Fore
SplineSet
1172 1138 m 1x3e
 901 1138 l 1
 803 1299 l 1
 646 1141 l 1
 369 1141 l 1
 725 1482 l 1
 961 1482 l 1
 1172 1138 l 1x3e
608 741 m 0
 748 741 833 654 841 576 c 1
 859 658 l 2
 864.508037537 684.131154827 867.029810657 707.489349838 867.029810657 728.35622229 c 0
 867.029810657 870.392291116 750.190610379 897 663 897 c 0
 563 897 494 868 435 844 c 1
 367 1008 l 1
 436 1056 599 1102 706 1102 c 0
 931.168804206 1102 1123.10025966 1008.93542351 1123.10025966 749.806981433 c 0
 1123.10025966 707.420957226 1117.96501249 660.591789529 1107 609 c 2
 1043 305 l 1
 978 0 l 1
 721 0 l 1x7e
 750 136 l 1
 708 58 588 -29 448 -29 c 0xbe
 274.41903545 -29 156.219316466 92.8387402438 156.219316466 267.986977002 c 0
 156.219316466 296.662609508 159.387650167 326.767198663 166 358 c 0
 213 580 410 741 608 741 c 0
646 524 m 0
 524 524 426 442 408 356 c 0
 405.991596045 346.404292216 405.004063351 336.895731978 405.004063351 327.574334989 c 0
 405.004063351 253.354198709 467.612515694 191 576 191 c 0xbe
 698 191 785 270 803 356 c 0
 805.28577839 366.920941198 806.426619798 377.777378905 806.426619798 388.409585707 c 0
 806.426619798 461.503659304 752.507502021 524 646 524 c 0
EndSplineSet
EndChar

StartChar: atilde
Encoding: 227 227 60
Width: 1036
Flags: W
HStem: -29 220<360.789 620.32> 0 21G<721 982.262> 524 217<498.931 761.681> 897 205<474.369 812.076> 1143 247<913.224 1080.17> 1295 247<641.198 786.246>
VStem: 156.219 248.785<235.788 428.524> 867.03 256.07<578.891 843.299>
LayerCount: 2
Fore
SplineSet
558 1439 m 1x37
 611 1476 685 1542 763 1542 c 0x37
 861 1542 902 1390 1006 1390 c 0
 1076 1390 1155 1456 1207 1497 c 1
 1152 1237 l 1
 1109 1209 1037 1143 954 1143 c 0x3b
 839 1143 789 1295 707 1295 c 0
 630 1295 579 1243 507 1198 c 1
 558 1439 l 1x37
608 741 m 0
 748 741 833 654 841 576 c 1
 859 658 l 2
 864.508037537 684.131154827 867.029810657 707.489349838 867.029810657 728.35622229 c 0
 867.029810657 870.392291116 750.190610379 897 663 897 c 0
 563 897 494 868 435 844 c 1
 367 1008 l 1
 436 1056 599 1102 706 1102 c 0
 931.168804206 1102 1123.10025966 1008.93542351 1123.10025966 749.806981433 c 0
 1123.10025966 707.420957226 1117.96501249 660.591789529 1107 609 c 2
 1043 305 l 1
 978 0 l 1
 721 0 l 1x73
 750 136 l 1
 708 58 588 -29 448 -29 c 0xb3
 274.41903545 -29 156.219316466 92.8387402438 156.219316466 267.986977002 c 0
 156.219316466 296.662609508 159.387650167 326.767198663 166 358 c 0
 213 580 410 741 608 741 c 0
646 524 m 0
 524 524 426 442 408 356 c 0
 405.991596045 346.404292216 405.004063351 336.895731978 405.004063351 327.574334989 c 0
 405.004063351 253.354198709 467.612515694 191 576 191 c 0xb3
 698 191 785 270 803 356 c 0
 805.28577839 366.920941198 806.426619798 377.777378905 806.426619798 388.409585707 c 0
 806.426619798 461.503659304 752.507502021 524 646 524 c 0
EndSplineSet
EndChar

StartChar: adieresis
Encoding: 228 228 61
Width: 1036
Flags: W
HStem: -29 220<360.789 620.32> 0 21G<721 982.262> 524 217<498.931 761.681> 897 205<474.369 812.076> 1167 328<518.002 691.998 989.002 1163>
VStem: 156.219 248.785<235.788 428.524> 867.03 256.07<578.891 843.299>
LayerCount: 2
Fore
SplineSet
912 1331 m 0x3e
 922 1376 946 1415 985 1447 c 0
 1024 1479 1066 1495 1111 1495 c 0
 1156 1495 1192 1479 1217 1447 c 0
 1235.00112867 1423.95855531 1244.18835211 1397.28785552 1244.18835211 1367.36121886 c 0
 1244.18835211 1355.72568848 1242.79954853 1343.5979684 1240 1331 c 0
 1230 1286 1206 1247 1167 1215 c 0
 1128 1183 1086 1167 1041 1167 c 0
 996 1167 960 1184 935 1216 c 0
 916.998871333 1239.04144469 907.811647892 1265.19367947 907.811647892 1294.83002254 c 0
 907.811647892 1306.35268624 909.200451467 1318.4020316 912 1331 c 0x3e
441 1331 m 0
 451 1376 475 1415 514 1447 c 0
 553 1479 595 1495 640 1495 c 0
 685 1495 721 1479 746 1447 c 0
 764.001128667 1423.95855531 773.188352108 1397.28785552 773.188352108 1367.36121886 c 0
 773.188352108 1355.72568848 771.799548533 1343.5979684 769 1331 c 0
 759 1286 735 1247 696 1215 c 0
 657 1183 615 1167 570 1167 c 0
 525 1167 489 1184 464 1216 c 0
 445.998871333 1239.04144469 436.811647892 1265.19367947 436.811647892 1294.83002254 c 0
 436.811647892 1306.35268624 438.200451467 1318.4020316 441 1331 c 0
608 741 m 0
 748 741 833 654 841 576 c 1
 859 658 l 2
 864.508037537 684.131154827 867.029810657 707.489349838 867.029810657 728.35622229 c 0
 867.029810657 870.392291116 750.190610379 897 663 897 c 0
 563 897 494 868 435 844 c 1
 367 1008 l 1
 436 1056 599 1102 706 1102 c 0
 931.168804206 1102 1123.10025966 1008.93542351 1123.10025966 749.806981433 c 0
 1123.10025966 707.420957226 1117.96501249 660.591789529 1107 609 c 2
 1043 305 l 1
 978 0 l 1
 721 0 l 1x7e
 750 136 l 1
 708 58 588 -29 448 -29 c 0xbe
 274.41903545 -29 156.219316466 92.8387402438 156.219316466 267.986977002 c 0
 156.219316466 296.662609508 159.387650167 326.767198663 166 358 c 0
 213 580 410 741 608 741 c 0
646 524 m 0
 524 524 426 442 408 356 c 0
 405.991596045 346.404292216 405.004063351 336.895731978 405.004063351 327.574334989 c 0
 405.004063351 253.354198709 467.612515694 191 576 191 c 0xbe
 698 191 785 270 803 356 c 0
 805.28577839 366.920941198 806.426619798 377.777378905 806.426619798 388.409585707 c 0
 806.426619798 461.503659304 752.507502021 524 646 524 c 0
EndSplineSet
EndChar

StartChar: aring
Encoding: 229 229 62
Width: 1036
Flags: W
HStem: -29 220<360.789 620.32> 0 21G<721 982.262> 524 217<498.931 761.681> 897 205<474.369 812.076> 1114 162<715.677 917.938> 1576 162<759.716 961.966>
VStem: 156.219 248.785<235.788 428.524> 513.982 176.353<1298.06 1505.56> 867.03 256.07<578.891 843.299> 986.717 176.346<1347.8 1548.36>
LayerCount: 2
Fore
SplineSet
521 1426 m 0x3f40
 558 1599 729 1738 905 1738 c 0
 1058.31354081 1738 1163.06294568 1632.52476725 1163.06294568 1490.97963396 c 0
 1163.06294568 1470.03459627 1160.76931244 1448.29975818 1156 1426 c 0
 1119 1253 949 1114 773 1114 c 0
 619.544101856 1114 513.982344289 1219.67119905 513.982344289 1361.41474907 c 0
 513.982344289 1382.23819781 516.260614951 1403.84017261 521 1426 c 0x3f40
694 1426 m 0
 691.525067057 1414.45031293 690.335689451 1403.24091993 690.335689451 1392.49659209 c 0
 690.335689451 1325.09823664 737.137198242 1276 807 1276 c 0
 888 1276 965 1342 983 1426 c 0
 985.509277162 1437.5705558 986.716506128 1448.83017473 986.716506128 1459.6406916 c 0
 986.716506128 1526.37812623 940.708252769 1576 871 1576 c 0
 790 1576 712 1509 694 1426 c 0
608 741 m 0
 748 741 833 654 841 576 c 1
 859 658 l 2
 864.508037537 684.131154827 867.029810657 707.489349838 867.029810657 728.35622229 c 0
 867.029810657 870.392291116 750.190610379 897 663 897 c 0
 563 897 494 868 435 844 c 1
 367 1008 l 1
 436 1056 599 1102 706 1102 c 0
 931.168804206 1102 1123.10025966 1008.93542351 1123.10025966 749.806981433 c 0
 1123.10025966 707.420957226 1117.96501249 660.591789529 1107 609 c 2
 1043 305 l 1
 978 0 l 1
 721 0 l 1x7f80
 750 136 l 1
 708 58 588 -29 448 -29 c 0xbf80
 274.41903545 -29 156.219316466 92.8387402438 156.219316466 267.986977002 c 0
 156.219316466 296.662609508 159.387650167 326.767198663 166 358 c 0
 213 580 410 741 608 741 c 0
646 524 m 0
 524 524 426 442 408 356 c 0
 405.991596045 346.404292216 405.004063351 336.895731978 405.004063351 327.574334989 c 0
 405.004063351 253.354198709 467.612515694 191 576 191 c 0xbf
 698 191 785 270 803 356 c 0
 805.28577839 366.920941198 806.426619798 377.777378905 806.426619798 388.409585707 c 0
 806.426619798 461.503659304 752.507502021 524 646 524 c 0
EndSplineSet
EndChar

StartChar: ae
Encoding: 230 230 63
Width: 1764
Flags: W
HStem: -29 220<360.789 620.32 1142.02 1378.49> 0 21G<721 982> 469 182<1131 1546.61> 524 217<498.931 763.007> 868 230<1252.88 1495.46> 897 205<474.369 813.116>
VStem: 156.219 248.785<235.788 428.524> 806.427 276.538<276.148 467.482> 1546.61 240.858<651.717 820.777>
LayerCount: 2
Back
SplineSet
270.491210938 294 m 0xb8
 196.491210938 294 160.163085938 236 146.772460938 173 c 0
 133.380859375 110 145.052734375 52 219.052734375 52 c 0
 281.052734375 52 328.956054688 108 342.772460938 173 c 1
 356.588867188 238 332.491210938 294 270.491210938 294 c 0xb8
441.57421875 444.12890625 m 1
 487.315429688 499.7734375 527.490234375 534 597.504882812 534 c 0
 727.504882812 534 755.423828125 416 722.689453125 262 c 0
 720.401367188 251.234375 716.515625 240.15625 714.14453125 229 c 1
 425.97265625 229 l 1xd8
 415.982421875 182 400.052734375 52 495.052734375 52 c 0
 541.069335938 52 559.236328125 79.328125 588.606445312 118.484375 c 0
 647.81640625 91.609375 l 0
 600.736328125 27.0625 556.446289062 -14 481.024414062 -14 c 0
 402.868164062 -14 385.767578125 27.037109375 363.004882812 80 c 1
 327.2265625 34 299.024414062 -14 205.024414062 -14 c 0
 95.0244140625 -14 50.4541015625 68 72.7724609375 173 c 0
 95.0908203125 278 184.520507812 360 284.520507812 360 c 0
 346.743164062 360 360.631835938 337 373.6796875 309 c 1
 376.3125 317.08203125 376.102539062 330.206054688 379.10546875 337.98828125 c 1
 394.259765625 409.284179688 380.405273438 466 309.051757812 466 c 0
 263.051757812 466 237.650390625 450 210.974609375 428 c 9
 183.6015625 478 l 0
 223.553710938 506 253.080078125 532 323.080078125 532 c 0
 386.359375 532 419.860351562 501.686523438 441.57421875 444.12890625 c 1
440.068359375 295 m 1
 654.047851562 295 l 1
 663.765625 381.515625 661.5078125 468 583.4765625 468 c 0
 503.4765625 468 457.43359375 369 440.068359375 295 c 1
EndSplineSet
Fore
SplineSet
1131 651 m 1x2b80
 1544 651 l 1
 1545.73584164 663.960950929 1546.61461059 676.828159531 1546.61461059 689.449752095 c 0
 1546.61461059 785.895648095 1495.30320743 868 1383 868 c 0
 1257 868 1162 760 1131 651 c 1x2b80
1251 201 m 0
 1310 201 1371 221 1419 267 c 1
 1626 169 l 1
 1512 38 1335 -29 1202 -29 c 0xab80
 1119 -29 1045 -6 985 35 c 1
 978 0 l 1
 721 0 l 1x4380
 750 136 l 1
 708 58 588 -29 448 -29 c 0
 274.41903545 -29 156.219316466 92.8387402438 156.219316466 267.986977002 c 0
 156.219316466 296.662609508 159.387650167 326.767198663 166 358 c 0
 213 580 410 741 608 741 c 0
 747 741 834 655 842 577 c 1
 842 578 843 583 845 592 c 0
 849 609 855 637 859 658 c 0
 864.508037537 684.131154827 867.029810657 707.489349838 867.029810657 728.35622229 c 0
 867.029810657 870.392291116 750.190610379 897 663 897 c 0
 563 897 494 868 435 844 c 1
 367 1008 l 1
 436 1056 599 1102 706 1102 c 0x9780
 859 1102 998 1059 1070 949 c 1
 1176 1043 1304 1098 1432 1098 c 0
 1653.39793599 1098 1787.47293507 934.355441057 1787.47293507 694.298829397 c 0
 1787.47293507 644.853576343 1781.78480306 592.166541854 1770 537 c 2
 1756 469 l 1
 1092 469 l 1
 1085.76581272 436.55388892 1082.96444081 407.922017149 1082.96444081 382.67488935 c 0
 1082.96444081 229.731408988 1185.76814167 201 1251 201 c 0
646 524 m 0x9380
 524 524 426 442 408 356 c 0
 405.991596045 346.404292216 405.004063351 336.895731978 405.004063351 327.574334989 c 0
 405.004063351 253.354198709 467.612515694 191 576 191 c 0
 698 191 785 270 803 356 c 0
 805.28577839 366.920941198 806.426619798 377.777378905 806.426619798 388.409585707 c 0
 806.426619798 461.503659304 752.507502021 524 646 524 c 0x9380
EndSplineSet
EndChar

StartChar: egrave
Encoding: 232 232 64
Width: 1093
Flags: W
HStem: -29 230<500.207 763.021> 469 182<501 916.614> 868 230<625.562 865.461>
VStem: 186.399 266.566<250.332 468.205> 916.615 240.858<651.717 820.777>
LayerCount: 2
Fore
SplineSet
621 201 m 0
 680 201 741 221 789 267 c 1
 996 169 l 1
 882 38 705 -29 572 -29 c 0
 345.323871192 -29 186.398928863 143.26099541 186.398928863 395.385421577 c 0
 186.398928863 440.236341427 191.428198564 487.61458472 202 537 c 0
 271 860 536 1098 802 1098 c 0
 1023.39793599 1098 1157.47293507 934.355441057 1157.47293507 694.298829397 c 0
 1157.47293507 644.853576343 1151.78480306 592.166541854 1140 537 c 2
 1126 469 l 1
 462 469 l 1
 455.765812718 436.55388892 452.964440815 407.922017149 452.964440815 382.67488935 c 0
 452.964440815 229.731408988 555.768141669 201 621 201 c 0
501 651 m 1
 914 651 l 1
 915.735841642 663.960950929 916.614610586 676.828159531 916.614610586 689.449752095 c 0
 916.614610586 785.895648095 865.303207429 868 753 868 c 0
 627 868 532 760 501 651 c 1
820 1185 m 2
 558 1398 l 2
 550 1405 546 1415 546 1428 c 0
 546 1436 546 1445 548 1454 c 0
 550 1465 553 1476 559 1488 c 0
 569 1510 581 1527 595 1540 c 0
 606 1551 621 1563 637 1573 c 0
 653 1583 670 1590 685 1594 c 0
 692 1596 698 1597 704 1597 c 0
 715 1597 723 1594 730 1587 c 2
 961 1340 l 2
 964 1337 965 1332 965 1327 c 0
 965 1322 964 1315 963 1309 c 0
 961 1300 959 1290 952 1278 c 0
 942 1258 931 1243 921 1233 c 0
 911 1223 898 1213 883 1202 c 0
 868 1191 855 1185 843 1182 c 0
 839 1181 836 1180 833 1180 c 0
 828 1180 823 1182 820 1185 c 2
EndSplineSet
EndChar

StartChar: eacute
Encoding: 233 233 65
Width: 1093
Flags: W
HStem: -29 230<500.207 763.021> 469 182<501 916.614> 868 230<625.562 865.461>
VStem: 186.399 266.566<250.332 468.205> 916.615 240.858<651.717 820.777>
LayerCount: 2
Fore
SplineSet
621 201 m 0
 680 201 741 221 789 267 c 1
 996 169 l 1
 882 38 705 -29 572 -29 c 0
 345.323871192 -29 186.398928863 143.26099541 186.398928863 395.385421577 c 0
 186.398928863 440.236341427 191.428198564 487.61458472 202 537 c 0
 271 860 536 1098 802 1098 c 0
 1023.39793599 1098 1157.47293507 934.355441057 1157.47293507 694.298829397 c 0
 1157.47293507 644.853576343 1151.78480306 592.166541854 1140 537 c 2
 1126 469 l 1
 462 469 l 1
 455.765812718 436.55388892 452.964440815 407.922017149 452.964440815 382.67488935 c 0
 452.964440815 229.731408988 555.768141669 201 621 201 c 0
501 651 m 1
 914 651 l 1
 915.735841642 663.960950929 916.614610586 676.828159531 916.614610586 689.449752095 c 0
 916.614610586 785.895648095 865.303207429 868 753 868 c 0
 627 868 532 760 501 651 c 1
758 1183 m 2
 753 1180 749 1178 744 1178 c 0
 741 1178 739 1179 735 1180 c 0
 725 1183 714 1189 703 1200 c 0
 692 1211 685 1221 679 1231 c 0
 673 1241 669 1256 667 1276 c 0
 666.585786438 1281.38477631 666.343145751 1286.42640687 666.343145751 1291.19595949 c 0
 666.343145751 1297.9411255 666.828427125 1304.14213562 668 1310 c 0
 669 1315 672 1320 674 1325 c 0
 676 1330 679 1335 684 1338 c 2
 1019 1585 l 2
 1028 1592 1039 1595 1050 1595 c 0
 1056 1595 1061 1594 1068 1592 c 0
 1081 1588 1095 1581 1107 1571 c 0
 1119 1561 1128 1549 1135 1538 c 0
 1143 1525 1148 1508 1148 1486 c 0
 1148 1474 1147 1463 1145 1452 c 0
 1143 1443 1140 1434 1136 1426 c 0
 1130 1413 1122 1403 1112 1396 c 2
 758 1183 l 2
EndSplineSet
EndChar

StartChar: ecircumflex
Encoding: 234 234 66
Width: 964
Flags: W
HStem: -29 230<500.207 763.021> 469 182<501 916.614> 868 230<625.562 865.461>
VStem: 186.399 266.566<250.332 468.205> 916.615 240.858<651.717 820.777>
LayerCount: 2
Fore
SplineSet
1230 1152 m 1
 959 1152 l 1
 861 1313 l 1
 704 1155 l 1
 427 1155 l 1
 783 1496 l 1
 1019 1496 l 1
 1230 1152 l 1
621 201 m 0
 680 201 741 221 789 267 c 1
 996 169 l 1
 882 38 705 -29 572 -29 c 0
 345.323871192 -29 186.398928863 143.26099541 186.398928863 395.385421577 c 0
 186.398928863 440.236341427 191.428198564 487.61458472 202 537 c 0
 271 860 536 1098 802 1098 c 0
 1023.39793599 1098 1157.47293507 934.355441057 1157.47293507 694.298829397 c 0
 1157.47293507 644.853576343 1151.78480306 592.166541854 1140 537 c 2
 1126 469 l 1
 462 469 l 1
 455.765812718 436.55388892 452.964440815 407.922017149 452.964440815 382.67488935 c 0
 452.964440815 229.731408988 555.768141669 201 621 201 c 0
501 651 m 1
 914 651 l 1
 915.735841642 663.960950929 916.614610586 676.828159531 916.614610586 689.449752095 c 0
 916.614610586 785.895648095 865.303207429 868 753 868 c 0
 627 868 532 760 501 651 c 1
EndSplineSet
EndChar

StartChar: edieresis
Encoding: 235 235 67
Width: 964
Flags: W
HStem: -29 230<500.207 763.021> 469 182<501 916.614> 868 230<625.562 865.461> 1144 328<526.386 699.998 997.386 1171>
VStem: 186.399 266.566<250.332 468.205> 444.996 336.192<1224.35 1391.71> 915.996 336.192<1224.35 1391.71> 916.615 240.858<651.717 820.777>
LayerCount: 2
Fore
SplineSet
920 1308 m 0xf2
 930 1353 954 1392 993 1424 c 0
 1032 1456 1074 1472 1119 1472 c 0
 1164 1472 1200 1456 1225 1424 c 0
 1243.00112867 1400.95855531 1252.18835211 1374.28785552 1252.18835211 1344.36121886 c 0
 1252.18835211 1332.72568848 1250.79954853 1320.5979684 1248 1308 c 0
 1238 1263 1214 1224 1175 1192 c 0
 1136 1160 1094 1144 1049 1144 c 0
 1004 1144 969 1161 944 1193 c 0
 925.721621678 1216.39632425 915.996180676 1243 915.996180676 1273.2018618 c 0
 915.996180676 1284.30818018 917.311351329 1295.90108098 920 1308 c 0xf2
449 1308 m 0
 459 1353 483 1392 522 1424 c 0
 561 1456 603 1472 648 1472 c 0
 693 1472 729 1456 754 1424 c 0
 772.001128667 1400.95855531 781.188352108 1374.28785552 781.188352108 1344.36121886 c 0
 781.188352108 1332.72568848 779.799548533 1320.5979684 777 1308 c 0
 767 1263 743 1224 704 1192 c 0
 665 1160 623 1144 578 1144 c 0
 533 1144 498 1161 473 1193 c 0
 454.721621678 1216.39632425 444.996180676 1243 444.996180676 1273.2018618 c 0xf4
 444.996180676 1284.30818018 446.311351329 1295.90108098 449 1308 c 0
621 201 m 0
 680 201 741 221 789 267 c 1
 996 169 l 1
 882 38 705 -29 572 -29 c 0
 345.323871192 -29 186.398928863 143.26099541 186.398928863 395.385421577 c 0
 186.398928863 440.236341427 191.428198564 487.61458472 202 537 c 0
 271 860 536 1098 802 1098 c 0
 1023.39793599 1098 1157.47293507 934.355441057 1157.47293507 694.298829397 c 0
 1157.47293507 644.853576343 1151.78480306 592.166541854 1140 537 c 2
 1126 469 l 1
 462 469 l 1
 455.765812718 436.55388892 452.964440815 407.922017149 452.964440815 382.67488935 c 0xf9
 452.964440815 229.731408988 555.768141669 201 621 201 c 0
501 651 m 1
 914 651 l 1
 915.735841642 663.960950929 916.614610586 676.828159531 916.614610586 689.449752095 c 0
 916.614610586 785.895648095 865.303207429 868 753 868 c 0
 627 868 532 760 501 651 c 1
EndSplineSet
EndChar

StartChar: igrave
Encoding: 236 236 68
Width: 550
Flags: W
HStem: 0 21G<139 401.25> 1053 20G<362.75 625>
VStem: 139 539
LayerCount: 2
Fore
SplineSet
537 1185 m 2
 275 1398 l 2
 267 1405 263 1415 263 1428 c 0
 263 1436 263 1445 265 1454 c 0
 267 1465 270 1476 276 1488 c 0
 286 1510 298 1527 312 1540 c 0
 323 1551 338 1563 354 1573 c 0
 370 1583 387 1590 402 1594 c 0
 409 1596 415 1597 421 1597 c 0
 432 1597 440 1594 447 1587 c 2
 678 1340 l 2
 681 1337 682 1332 682 1327 c 0
 682 1322 681 1315 680 1309 c 0
 678 1300 676 1290 669 1278 c 0
 659 1258 648 1243 638 1233 c 0
 628 1223 615 1213 600 1202 c 0
 585 1191 572 1185 560 1182 c 0
 556 1181 553 1180 550 1180 c 0
 545 1180 540 1182 537 1185 c 2
367 1073 m 1
 625 1073 l 1
 397 0 l 1
 139 0 l 1
 367 1073 l 1
EndSplineSet
EndChar

StartChar: iacute
Encoding: 237 237 69
Width: 544
Flags: W
HStem: 0 21G<139 401.25> 1053 20G<362.75 625>
LayerCount: 2
Fore
SplineSet
507 1185 m 2
 502 1182 498 1180 493 1180 c 0
 490 1180 487 1181 483 1182 c 0
 473 1185 462 1191 451 1202 c 0
 440 1213 433 1223 427 1233 c 0
 421 1243 418 1258 416 1278 c 0
 415 1291 415 1302 417 1312 c 0
 418 1317 420 1322 422 1327 c 0
 424 1332 428 1337 433 1340 c 2
 767 1587 l 2
 776 1594 787 1597 798 1597 c 0
 804 1597 810 1596 817 1594 c 0
 830 1590 843 1583 855 1573 c 0
 867 1563 876 1551 883 1540 c 0
 891 1527 896 1510 896 1488 c 0
 896 1476 895 1465 893 1454 c 0
 891 1445 889 1436 885 1428 c 0
 879 1415 870 1405 860 1398 c 2
 507 1185 l 2
367 1073 m 1
 625 1073 l 1
 397 0 l 1
 139 0 l 1
 367 1073 l 1
EndSplineSet
EndChar

StartChar: icircumflex
Encoding: 238 238 70
Width: 546
Flags: W
HStem: 0 21G<139 412.25> 1053 20G<362.75 636> 1470 20G<452.062 721.267>
LayerCount: 2
Fore
SplineSet
367 1073 m 1
 636 1073 l 1
 408 0 l 1
 139 0 l 1
 367 1073 l 1
920 1146 m 1
 649 1146 l 1
 551 1307 l 1
 393 1149 l 1
 116 1149 l 1
 473 1490 l 1
 709 1490 l 1
 920 1146 l 1
EndSplineSet
EndChar

StartChar: idieresis
Encoding: 239 239 71
Width: 548
Flags: W
HStem: 0 21G<139 412.25> 1053 20G<362.75 636> 1159 328<244.75 413.647 715.75 884.647>
LayerCount: 2
Fore
SplineSet
367 1073 m 1
 636 1073 l 1
 408 0 l 1
 139 0 l 1
 367 1073 l 1
165 1323 m 0
 184 1414 274 1487 364 1487 c 0
 443.20237678 1487 496.649100792 1431.70109847 496.649100792 1357.3654125 c 0
 496.649100792 1346.29270925 495.463240013 1334.79762322 493 1323 c 0
 474 1233 385 1159 294 1159 c 0
 215.535969452 1159 161.394325432 1215.24551885 161.394325432 1289.30284688 c 0
 161.394325432 1300.19093239 162.564628671 1311.46403055 165 1323 c 0
636 1323 m 0
 655 1414 745 1487 835 1487 c 0
 914.20237678 1487 967.649100792 1431.70109847 967.649100792 1357.3654125 c 0
 967.649100792 1346.29270925 966.463240013 1334.79762322 964 1323 c 0
 945 1233 856 1159 765 1159 c 0
 686.535969452 1159 632.394325432 1215.24551885 632.394325432 1289.30284688 c 0
 632.394325432 1300.19093239 633.564628671 1311.46403055 636 1323 c 0
EndSplineSet
EndChar

StartChar: eth
Encoding: 240 240 72
Width: 1062
Flags: W
HStem: -49 229<463.931 645.929> 723 229<543.417 739.932> 1292 199<471.711 682.961>
VStem: 153.362 264.904<223.442 558.995> 894.187 216.875<799 1044.25>
LayerCount: 2
Back
SplineSet
319.872070312 454.65625 m 0
 270.681640625 223.232421875 403.564453125 106.49609375 503.916015625 106.49609375 c 0
 657.516601562 106.49609375 825.155273438 278.528320312 862.591796875 454.65625 c 1
 903.51171875 647.16796875 761.952148438 790.528320312 610.400390625 790.528320312 c 1
 487.51953125 790.528320312 351.650390625 604.16015625 319.872070312 454.65625 c 0
948.041015625 1290.24023438 m 1
 1013.16308594 1191.94042969 1101.87988281 983.040039062 1075.42480469 800.767578125 c 1
 1060.86523438 700.044921875 1053.61035156 627.629882812 1024.15625 501.759765625 c 1
 958.423828125 192.51171875 721.029296875 -28.671875 485.426757812 -28.671875 c 0
 182.321289062 -28.671875 114.776367188 202.751953125 169.190429688 458.751953125 c 0
 224.040039062 716.799804688 434.331054688 925.696289062 649.37109375 925.696289062 c 0
 819.354492188 925.696289062 853.577148438 845.82421875 914.98828125 778.240234375 c 1
 939.365234375 892.927734375 893.478515625 1120.25976562 817.1171875 1204.21972656 c 1
 633.044921875 1060.86035156 l 1
 556.073242188 1161.21972656 l 1
 718.665039062 1290.24023438 l 1
 669.333984375 1308.66992188 617.393554688 1314.8203125 564.145507812 1314.8203125 c 0
 525.233398438 1314.8203125 485.450195312 1310.71972656 447.71484375 1306.62011719 c 1
 464.72265625 1454.08007812 l 1
 491.782226562 1456.12988281 520.454101562 1456.12988281 547.078125 1456.12988281 c 0
 659.717773438 1456.12988281 766.826171875 1439.74023438 859.958007812 1386.5 c 1
 1045.20605469 1525.75976562 l 1
 1118.39160156 1417.21972656 l 1
 948.041015625 1290.24023438 l 1
EndSplineSet
Fore
SplineSet
1006 1229 m 1
 1055.60513071 1152.02652131 1111.06203073 993.128272348 1111.06203073 844.268257094 c 0
 1111.06203073 819.076097482 1109.47373902 794.171433987 1106 770 c 1
 1102 715 1095 666 1083 610 c 0
 1076 579 1068 545 1058 506 c 1
 989 182 743 -49 498 -49 c 0
 248.540325281 -49 153.362452633 105.908963869 153.362452633 305.962451248 c 0
 153.362452633 358.522331521 159.932257567 414.198384757 172 471 c 0
 231 748 453 952 685 952 c 0
 788 952 859 866 891 799 c 1
 893.167938254 809.406103621 894.186998308 822.026408866 894.186998308 836.187672786 c 0
 894.186998308 920.008423976 858.484480718 1057.81628223 814 1110 c 1
 708 1028 l 1
 588 1182 l 1
 688 1255 l 1
 665 1275 648 1291 559 1292 c 1
 557 1292 l 2
 516 1292 477 1288 448 1282 c 1
 470 1475 l 1
 506 1488 575 1490 621 1491 c 1
 626 1491 l 2
 753 1491 846 1436 884 1401 c 1
 1026 1512 l 1
 1150 1327 l 1
 1006 1229 l 1
429 467 m 0
 421.557333169 432.328064276 418.266691611 400.786623798 418.266691611 372.381660396 c 0
 418.266691611 244.309983644 485.162406772 180 540 180 c 0
 643 180 760 322 791 467 c 0
 795.838370853 489.484193962 798.084649524 510.753344714 798.084649524 530.697944646 c 0
 798.084649524 650.907214339 716.484887442 723 629 723 c 0
 548 723 455 590 429 467 c 0
EndSplineSet
EndChar

StartChar: ograve
Encoding: 242 242 73
Width: 1150
Flags: W
HStem: -29 235<492.827 745.447> 866 234<612.709 865.21>
VStem: 185.045 256.494<255.578 620.483> 918.36 252.498<445.926 816.544>
LayerCount: 2
Fore
SplineSet
206 537 m 0
 279 879 495 1100 799 1100 c 0
 1045.84497059 1100 1170.85781274 955.24247105 1170.85781274 718.739308375 c 0
 1170.85781274 663.020739961 1163.91907261 602.209901832 1150 537 c 0
 1077 195 864 -29 559 -29 c 0
 312.538699159 -29 185.045047632 114.287003042 185.045047632 353.967996958 c 0
 185.045047632 409.923769957 191.993869284 471.133331226 206 537 c 0
458 537 m 0
 446.673916556 483.252585839 441.539206422 437.604844981 441.539206422 399.00011425 c 0
 441.539206422 250.138436071 517.887739627 206 610 206 c 0
 725 206 847 276 902 537 c 0
 913.261679142 590.441786472 918.360271899 635.791901704 918.360271899 674.123423951 c 0
 918.360271899 822.996109625 841.452852704 866 750 866 c 0
 634 866 513 798 458 537 c 0
801 1183 m 2
 540 1396 l 2
 532 1403 527 1413 527 1426 c 0
 527 1434 528 1443 530 1452 c 0
 532 1463 535 1474 541 1486 c 0
 551 1508 563 1525 577 1538 c 0
 588 1549 603 1561 619 1571 c 0
 635 1581 651 1588 666 1592 c 0
 673 1594 680 1595 686 1595 c 0
 697 1595 705 1592 712 1585 c 2
 942 1338 l 2
 945 1335 947 1330 947 1325 c 0
 947 1320 946 1313 945 1307 c 0
 943 1298 940 1288 933 1276 c 0
 923 1256 913 1241 903 1231 c 0
 893 1221 880 1211 865 1200 c 0
 850 1189 837 1183 825 1180 c 0
 821 1179 817 1178 814 1178 c 0
 809 1178 804 1180 801 1183 c 2
EndSplineSet
EndChar

StartChar: oacute
Encoding: 243 243 74
Width: 1153
Flags: W
HStem: -29 235<492.827 745.447> 866 234<612.709 865.21>
VStem: 185.045 256.494<255.578 620.483> 918.36 252.498<445.926 816.544>
LayerCount: 2
Fore
SplineSet
206 537 m 0
 279 879 495 1100 799 1100 c 0
 1045.84497059 1100 1170.85781274 955.24247105 1170.85781274 718.739308375 c 0
 1170.85781274 663.020739961 1163.91907261 602.209901832 1150 537 c 0
 1077 195 864 -29 559 -29 c 0
 312.538699159 -29 185.045047632 114.287003042 185.045047632 353.967996958 c 0
 185.045047632 409.923769957 191.993869284 471.133331226 206 537 c 0
458 537 m 0
 446.673916556 483.252585839 441.539206422 437.604844981 441.539206422 399.00011425 c 0
 441.539206422 250.138436071 517.887739627 206 610 206 c 0
 725 206 847 276 902 537 c 0
 913.261679142 590.441786472 918.360271899 635.791901704 918.360271899 674.123423951 c 0
 918.360271899 822.996109625 841.452852704 866 750 866 c 0
 634 866 513 798 458 537 c 0
802 1183 m 2
 797 1180 793 1178 788 1178 c 0
 785 1178 783 1179 779 1180 c 0
 769 1183 758 1189 747 1200 c 0
 736 1211 729 1221 723 1231 c 0
 717 1241 713 1256 711 1276 c 0
 710.585786438 1281.38477631 710.343145751 1286.42640687 710.343145751 1291.19595949 c 0
 710.343145751 1297.9411255 710.828427125 1304.14213562 712 1310 c 0
 713 1315 716 1320 718 1325 c 0
 720 1330 723 1335 728 1338 c 2
 1063 1585 l 2
 1072 1592 1083 1595 1094 1595 c 0
 1100 1595 1105 1594 1112 1592 c 0
 1125 1588 1139 1581 1151 1571 c 0
 1163 1561 1172 1549 1179 1538 c 0
 1187 1525 1192 1508 1192 1486 c 0
 1192 1474 1191 1463 1189 1452 c 0
 1187 1443 1184 1434 1180 1426 c 0
 1174 1413 1166 1403 1156 1396 c 2
 802 1183 l 2
EndSplineSet
EndChar

StartChar: ocircumflex
Encoding: 244 244 75
Width: 1150
Flags: W
HStem: -29 235<492.827 745.447> 866 234<612.709 865.21> 1466 20G<739.062 1008.27>
VStem: 185.045 256.494<255.578 620.483> 918.36 252.498<445.926 816.544>
LayerCount: 2
Fore
SplineSet
1207 1142 m 1
 936 1142 l 1
 838 1303 l 1
 680 1145 l 1
 403 1145 l 1
 760 1486 l 1
 996 1486 l 1
 1207 1142 l 1
206 537 m 0
 279 879 495 1100 799 1100 c 0
 1045.84497059 1100 1170.85781274 955.24247105 1170.85781274 718.739308375 c 0
 1170.85781274 663.020739961 1163.91907261 602.209901832 1150 537 c 0
 1077 195 864 -29 559 -29 c 0
 312.538699159 -29 185.045047632 114.287003042 185.045047632 353.967996958 c 0
 185.045047632 409.923769957 191.993869284 471.133331226 206 537 c 0
458 537 m 0
 446.673916556 483.252585839 441.539206422 437.604844981 441.539206422 399.00011425 c 0
 441.539206422 250.138436071 517.887739627 206 610 206 c 0
 725 206 847 276 902 537 c 0
 913.261679142 590.441786472 918.360271899 635.791901704 918.360271899 674.123423951 c 0
 918.360271899 822.996109625 841.452852704 866 750 866 c 0
 634 866 513 798 458 537 c 0
EndSplineSet
EndChar

StartChar: otilde
Encoding: 245 245 76
Width: 1150
Flags: W
HStem: -29 235<492.827 745.447> 866 234<612.709 865.21> 1149 247<910.598 1077.53> 1301 247<638.582 783.607>
VStem: 185.045 256.494<255.578 620.483> 918.36 252.498<445.926 816.544>
LayerCount: 2
Fore
SplineSet
555 1445 m 1xdc
 608 1482 682 1548 760 1548 c 0xdc
 858 1548 900 1396 1004 1396 c 0
 1074 1396 1152 1462 1204 1503 c 1
 1149 1243 l 1
 1106 1215 1034 1149 951 1149 c 0xec
 836 1149 787 1301 705 1301 c 0
 628 1301 576 1249 504 1204 c 1
 555 1445 l 1xdc
206 537 m 0
 279 879 495 1100 799 1100 c 0
 1045.84497059 1100 1170.85781274 955.24247105 1170.85781274 718.739308375 c 0
 1170.85781274 663.020739961 1163.91907261 602.209901832 1150 537 c 0
 1077 195 864 -29 559 -29 c 0
 312.538699159 -29 185.045047632 114.287003042 185.045047632 353.967996958 c 0
 185.045047632 409.923769957 191.993869284 471.133331226 206 537 c 0
458 537 m 0
 446.673916556 483.252585839 441.539206422 437.604844981 441.539206422 399.00011425 c 0
 441.539206422 250.138436071 517.887739627 206 610 206 c 0
 725 206 847 276 902 537 c 0
 913.261679142 590.441786472 918.360271899 635.791901704 918.360271899 674.123423951 c 0
 918.360271899 822.996109625 841.452852704 866 750 866 c 0
 634 866 513 798 458 537 c 0
EndSplineSet
EndChar

StartChar: odieresis
Encoding: 246 246 77
Width: 1150
Flags: W
HStem: -29 235<492.827 745.447> 866 234<612.709 865.21> 1155 328<517.002 689.998 988.002 1161>
VStem: 185.045 256.494<255.578 620.483> 434.996 336.192<1235.02 1402.71> 905.996 336.192<1235.02 1402.71> 918.36 252.498<445.926 816.544>
LayerCount: 2
Fore
SplineSet
910 1319 m 0xe4
 920 1364 944 1403 983 1435 c 0
 1022 1467 1064 1483 1109 1483 c 0
 1154 1483 1190 1467 1215 1435 c 0
 1233.00112867 1411.95855531 1242.18835211 1385.28785552 1242.18835211 1355.36121886 c 0
 1242.18835211 1343.72568848 1240.79954853 1331.5979684 1238 1319 c 0
 1228 1274 1205 1235 1166 1203 c 0
 1127 1171 1085 1155 1040 1155 c 0
 995 1155 959 1172 934 1204 c 0
 915.721621678 1227.39632425 905.996180676 1254 905.996180676 1284.2018618 c 0
 905.996180676 1295.30818018 907.311351329 1306.90108098 910 1319 c 0xe4
439 1319 m 0
 449 1364 473 1403 512 1435 c 0
 551 1467 593 1483 638 1483 c 0
 683 1483 719 1467 744 1435 c 0
 762.001128667 1411.95855531 771.188352108 1385.28785552 771.188352108 1355.36121886 c 0
 771.188352108 1343.72568848 769.799548533 1331.5979684 767 1319 c 0
 757 1274 734 1235 695 1203 c 0
 656 1171 614 1155 569 1155 c 0
 524 1155 488 1172 463 1204 c 0
 444.721621678 1227.39632425 434.996180676 1254 434.996180676 1284.2018618 c 0xe8
 434.996180676 1295.30818018 436.311351329 1306.90108098 439 1319 c 0
206 537 m 0
 279 879 495 1100 799 1100 c 0
 1045.84497059 1100 1170.85781274 955.24247105 1170.85781274 718.739308375 c 0
 1170.85781274 663.020739961 1163.91907261 602.209901832 1150 537 c 0
 1077 195 864 -29 559 -29 c 0
 312.538699159 -29 185.045047632 114.287003042 185.045047632 353.967996958 c 0xf2
 185.045047632 409.923769957 191.993869284 471.133331226 206 537 c 0
458 537 m 0
 446.673916556 483.252585839 441.539206422 437.604844981 441.539206422 399.00011425 c 0
 441.539206422 250.138436071 517.887739627 206 610 206 c 0
 725 206 847 276 902 537 c 0
 913.261679142 590.441786472 918.360271899 635.791901704 918.360271899 674.123423951 c 0
 918.360271899 822.996109625 841.452852704 866 750 866 c 0
 634 866 513 798 458 537 c 0
EndSplineSet
EndChar

StartChar: divide
Encoding: 247 247 78
Width: 1003
Flags: W
HStem: 117 328<486.75 655.647> 524 240<280 1001> 845 328<640.75 810.193>
LayerCount: 2
Fore
SplineSet
280 764 m 1
 1052 764 l 1
 1001 524 l 1
 229 524 l 1
 280 764 l 1
407 281 m 0
 426 372 516 445 606 445 c 0
 685.20237678 445 738.649100792 389.701098466 738.649100792 315.365412502 c 0
 738.649100792 304.292709252 737.463240013 292.79762322 735 281 c 0
 716 191 627 117 536 117 c 0
 457.535969452 117 403.394325432 173.245518846 403.394325432 247.30284688 c 0
 403.394325432 258.190932387 404.564628671 269.464030548 407 281 c 0
561 1009 m 0
 580 1100 670 1173 760 1173 c 0
 839.20237678 1173 892.649100792 1117.70109847 892.649100792 1043.3654125 c 0
 892.649100792 1032.29270925 891.463240013 1020.79762322 889 1009 c 0
 870 919 782 845 691 845 c 0
 612.396307998 845 557.43888171 901.445924609 557.43888171 975.698469289 c 0
 557.43888171 986.463928865 558.594112756 997.603692002 561 1009 c 0
EndSplineSet
EndChar

StartChar: oslash
Encoding: 248 248 79
Width: 1044
Flags: W
HStem: -29 230<547.957 715.128> 870 230<645.906 839.694>
VStem: 189.065 268.054<341.049 633.177> 899.997 266.107<438.785 729.869>
LayerCount: 2
Back
SplineSet
47.1533203125 -28.671875 m 29
 1032.91894531 1101.8203125 l 25
 1294.18945312 1097.73046875 l 25
 333.874023438 -28.671875 l 25
 47.1533203125 -28.671875 l 29
206.212890625 536.576171875 m 0
 275.469726562 862.404296875 522.28125 1099.78027344 799.013671875 1099.78027344 c 0
 1074.43457031 1099.78027344 1219.59960938 862.404296875 1150.34277344 536.576171875 c 0
 1081.36132812 212.041992188 834.57421875 -28.671875 559.153320312 -28.671875 c 1
 282.421875 -28.671875 137.231445312 212.041992188 206.212890625 536.576171875 c 0
466.30859375 536.576171875 m 0
 432.080078125 375.543945312 489.63671875 200.704101562 607.909179688 200.704101562 c 0
 732.741210938 200.704101562 856.016601562 375.543945312 890.245117188 536.576171875 c 0
 924.529296875 697.870117188 867.120117188 870.400390625 750.256835938 870.400390625 c 0
 631.985351562 870.400390625 500.592773438 697.870117188 466.30859375 536.576171875 c 0
EndSplineSet
Fore
SplineSet
47 -29 m 1
 228 178 l 1
 203.911616212 226.176767577 189.065445284 299.669161686 189.065445284 382.429484229 c 0
 189.065445284 430.225544557 194.017145096 481.112772279 205 532 c 0
 275 860 508 1100 812 1100 c 0
 866 1100 952 1079 989 1051 c 1
 1032 1102 l 1
 1295 1102 l 1
 1125 899 l 1
 1151.1901299 844.125442114 1166.10374947 770.97516059 1166.10374947 688.763165504 c 0
 1166.10374947 639.135272558 1160.66918984 586.205268913 1149 532 c 0
 1080 208 830 -29 563 -29 c 0
 502 -29 417 -14 375 18 c 1
 334 -29 l 1
 47 -29 l 1
814 850 m 1
 801 860 785 870 763 870 c 0
 619 870 499 692 465 532 c 0
 461.329062635 515.113688121 457.119094025 484.751595105 457.119094025 462.284220303 c 0
 457.119094025 454.149908712 457.670937365 447.050438013 459 442 c 1
 814 850 l 1
899 635 m 1
 547 221 l 1
 560 208 584 201 608 201 c 0
 729 201 855 371 889 532 c 0
 893.132316359 551.835118524 899.996798877 583.964984762 899.996798877 615.405897564 c 0
 899.996798877 622.007707135 899.694146913 628.579141058 899 635 c 1
EndSplineSet
EndChar

StartChar: ucircumflex
Encoding: 251 251 80
Width: 1024
Flags: W
HStem: -29 235<350.059 598.113> 0 21G<745 1007.25> 1053 20G<331.762 594 967.746 1231>
VStem: 192.078 269.192<238.394 602.688>
LayerCount: 2
Fore
SplineSet
1211 1175 m 1x30
 940 1175 l 1
 842 1336 l 1
 684 1178 l 1
 407 1178 l 1
 764 1519 l 1
 1000 1519 l 1
 1211 1175 l 1x30
1003 0 m 1x70
 745 0 l 1x70
 779 161 l 1
 700 57 559 -29 422 -29 c 0
 278.11747085 -29 192.077952931 74.8927871642 192.077952931 286.465951943 c 0
 192.077952931 357.220654748 201.700441985 440.018117437 222 535 c 2
 336 1073 l 1
 594 1073 l 1
 480 536 l 2
 466.924925148 474.006110618 461.269531339 423.192562532 461.269531339 381.669047994 c 0
 461.269531339 238.997529571 528.034586002 206 590 206 c 0xb0
 670 206 800 263 858 537 c 2
 972 1073 l 1
 1231 1073 l 1
 1003 0 l 1x70
EndSplineSet
EndChar

StartChar: udieresis
Encoding: 252 252 81
Width: 1024
Flags: W
HStem: -29 235<350.059 598.113> 0 21G<745 1007.25> 1053 20G<331.762 594 967.746 1231> 1159 328<515.386 688.998 986.386 1160>
VStem: 192.078 269.192<238.394 602.688> 433.996 336.192<1239.02 1406.71> 904.996 336.192<1239.02 1406.71>
LayerCount: 2
Fore
SplineSet
909 1323 m 0x32
 919 1368 943 1407 982 1439 c 0
 1021 1471 1063 1487 1108 1487 c 0
 1153 1487 1189 1471 1214 1439 c 0
 1232.00112867 1415.95855531 1241.18835211 1389.28785552 1241.18835211 1359.36121886 c 0
 1241.18835211 1347.72568848 1239.79954853 1335.5979684 1237 1323 c 0
 1227 1278 1204 1239 1165 1207 c 0
 1126 1175 1083 1159 1038 1159 c 0
 993 1159 958 1176 933 1208 c 0
 914.721621678 1231.39632425 904.996180676 1258 904.996180676 1288.2018618 c 0
 904.996180676 1299.30818018 906.311351329 1310.90108098 909 1323 c 0x32
438 1323 m 0
 448 1368 472 1407 511 1439 c 0
 550 1471 592 1487 637 1487 c 0
 682 1487 718 1471 743 1439 c 0
 761.001128667 1415.95855531 770.188352108 1389.28785552 770.188352108 1359.36121886 c 0
 770.188352108 1347.72568848 768.799548533 1335.5979684 766 1323 c 0
 756 1278 733 1239 694 1207 c 0
 655 1175 612 1159 567 1159 c 0
 522 1159 487 1176 462 1208 c 0
 443.721621678 1231.39632425 433.996180676 1258 433.996180676 1288.2018618 c 0x36
 433.996180676 1299.30818018 435.311351329 1310.90108098 438 1323 c 0
1003 0 m 1x7a
 745 0 l 1x7a
 779 161 l 1
 700 57 559 -29 422 -29 c 0
 278.11747085 -29 192.077952931 74.8927871642 192.077952931 286.465951943 c 0
 192.077952931 357.220654748 201.700441985 440.018117437 222 535 c 2
 336 1073 l 1
 594 1073 l 1
 480 536 l 2
 466.924925148 474.006110618 461.269531339 423.192562532 461.269531339 381.669047994 c 0
 461.269531339 238.997529571 528.034586002 206 590 206 c 0xba
 670 206 800 263 858 537 c 2
 972 1073 l 1
 1231 1073 l 1
 1003 0 l 1x7a
EndSplineSet
EndChar

StartChar: yacute
Encoding: 253 253 82
Width: 983
Flags: W
HStem: -465 232<361.268 637.64> -29 235<350.059 598.113> 1053 20G<331.762 594 967.746 1231>
VStem: 192.078 269.192<238.394 602.688>
LayerCount: 2
Fore
SplineSet
997 -29 m 2
 951 -246 671 -465 456 -465 c 0
 245 -465 124 -348 92 -224 c 1
 320 -112 l 1
 329 -182 390 -233 499 -233 c 0
 608 -233 709 -168 732 -59 c 2
 779 161 l 1
 700 57 559 -29 422 -29 c 0
 278.11747085 -29 192.077952931 74.8927871642 192.077952931 286.465951943 c 0
 192.077952931 357.220654748 201.700441985 440.018117437 222 535 c 2
 336 1073 l 1
 594 1073 l 1
 480 536 l 2
 466.924925148 474.006110618 461.269531339 423.192562532 461.269531339 381.669047994 c 0
 461.269531339 238.997529571 528.034586002 206 590 206 c 0
 670 206 800 263 858 537 c 2
 972 1073 l 1
 1231 1073 l 1
 1009 29 l 1
 997 -29 l 2
822 1183 m 2
 817 1180 813 1178 808 1178 c 0
 805 1178 803 1179 799 1180 c 0
 789 1183 778 1189 767 1200 c 0
 756 1211 749 1221 743 1231 c 0
 737 1241 733 1256 731 1276 c 0
 730.585786438 1281.38477631 730.343145751 1286.42640687 730.343145751 1291.19595949 c 0
 730.343145751 1297.9411255 730.828427125 1304.14213562 732 1310 c 0
 733 1315 736 1320 738 1325 c 0
 740 1330 743 1335 748 1338 c 2
 1083 1585 l 2
 1092 1592 1103 1595 1114 1595 c 0
 1120 1595 1125 1594 1132 1592 c 0
 1145 1588 1159 1581 1171 1571 c 0
 1183 1561 1192 1549 1199 1538 c 0
 1207 1525 1212 1508 1212 1486 c 0
 1212 1474 1211 1463 1209 1452 c 0
 1207 1443 1204 1434 1200 1426 c 0
 1194 1413 1186 1403 1176 1396 c 2
 822 1183 l 2
EndSplineSet
EndChar

StartChar: thorn
Encoding: 254 254 83
Width: 1093
Flags: W
HStem: 0 21G<119 387.5> 117 229<554.916 726.355> 1102 229<755.466 985.189> 1434 20G<423.75 686>
VStem: 926.575 264.772<650.072 1038.55>
LayerCount: 2
Back
SplineSet
270.3359375 0 m 17
 118.784179688 0 l 1
 427.858398438 1454.08007812 l 1
 579.41015625 1454.08007812 l 1
 506.711914062 1112.05957031 l 17
 592.272460938 1206.26953125 678.448242188 1284.09960938 823.85546875 1284.09960938 c 0
 1075.75976562 1284.09960938 1139.56542969 1015.80957031 1079.49121094 733.18359375 c 0
 1019.41796875 450.559570312 870.409179688 163.83984375 546.825195312 163.83984375 c 1
 382.985351562 163.83984375 336.50390625 311.295898438 336.50390625 311.295898438 c 0
 336.50390625 311.295898438 296.141601562 121.40625 270.3359375 0 c 17
927.068359375 729.087890625 m 0
 976.694335938 962.560546875 932.340820312 1148.9296875 805.364257812 1148.9296875 c 1
 666.100585938 1148.9296875 476.0625 987.135742188 421.212890625 729.087890625 c 1
 359.397460938 438.272460938 473.15625 299.0078125 585.795898438 299.0078125 c 0
 735.299804688 299.0078125 868.736328125 454.65625 927.068359375 729.087890625 c 0
EndSplineSet
Fore
SplineSet
915 750 m 0
 922.990823339 788.005135391 926.575354063 824.566830098 926.575354063 858.804096148 c 0
 926.575354063 1000.23432374 865.408149583 1102 801 1102 c 0
 699 1102 568 935 529 751 c 0
 515.143697473 685.56746029 508.925140449 627.048397113 508.925140449 576.203090011 c 0
 508.925140449 428.896936565 561.120230324 346 631 346 c 0
 725 346 860 492 915 750 c 0
377 0 m 1
 119 0 l 1
 428 1454 l 1
 686 1454 l 1
 623 1159 l 1
 669 1229 783 1331 879 1331 c 0
 1091.37855716 1331 1191.34715907 1150.13928987 1191.34715907 923.779794008 c 0
 1191.34715907 864.496776328 1184.49027531 802.092979933 1171 739 c 0
 1105 430 928 117 595 117 c 0
 493 117 441 227 432 258 c 1
 432 258 398 101 377 0 c 1
EndSplineSet
EndChar

StartChar: ydieresis
Encoding: 255 255 84
Width: 983
Flags: W
HStem: -465 232<361.268 637.64> -29 235<350.059 598.113> 1053 20G<331.762 594 967.746 1231> 1159 328<499.386 672.998 970.386 1144>
VStem: 192.078 269.192<238.394 602.688> 417.996 336.192<1239.02 1406.71> 888.996 336.192<1239.02 1406.71>
LayerCount: 2
Fore
SplineSet
893 1323 m 0xf2
 903 1368 927 1407 966 1439 c 0
 1005 1471 1047 1487 1092 1487 c 0
 1137 1487 1173 1471 1198 1439 c 0
 1216.00112867 1415.95855531 1225.18835211 1389.28785552 1225.18835211 1359.36121886 c 0
 1225.18835211 1347.72568848 1223.79954853 1335.5979684 1221 1323 c 0
 1211 1278 1188 1239 1149 1207 c 0
 1110 1175 1067 1159 1022 1159 c 0
 977 1159 942 1176 917 1208 c 0
 898.721621678 1231.39632425 888.996180676 1258 888.996180676 1288.2018618 c 0
 888.996180676 1299.30818018 890.311351329 1310.90108098 893 1323 c 0xf2
422 1323 m 0
 432 1368 456 1407 495 1439 c 0
 534 1471 576 1487 621 1487 c 0
 666 1487 702 1471 727 1439 c 0
 745.001128667 1415.95855531 754.188352108 1389.28785552 754.188352108 1359.36121886 c 0
 754.188352108 1347.72568848 752.799548533 1335.5979684 750 1323 c 0
 740 1278 717 1239 678 1207 c 0
 639 1175 596 1159 551 1159 c 0
 506 1159 471 1176 446 1208 c 0
 427.721621678 1231.39632425 417.996180676 1258 417.996180676 1288.2018618 c 0xf6
 417.996180676 1299.30818018 419.311351329 1310.90108098 422 1323 c 0
997 -29 m 2
 951 -246 671 -465 456 -465 c 0
 245 -465 124 -348 92 -224 c 1
 320 -112 l 1
 329 -182 390 -233 499 -233 c 0
 608 -233 709 -168 732 -59 c 2
 779 161 l 1
 700 57 559 -29 422 -29 c 0
 278.11747085 -29 192.077952931 74.8927871642 192.077952931 286.465951943 c 0
 192.077952931 357.220654748 201.700441985 440.018117437 222 535 c 2
 336 1073 l 1
 594 1073 l 1
 480 536 l 2
 466.924925148 474.006110618 461.269531339 423.192562532 461.269531339 381.669047994 c 0xfa
 461.269531339 238.997529571 528.034586002 206 590 206 c 0
 670 206 800 263 858 537 c 2
 972 1073 l 1
 1231 1073 l 1
 1009 29 l 1
 997 -29 l 2
EndSplineSet
EndChar

StartChar: quotedblbase
Encoding: 8222 8222 85
Width: 770
Flags: W
HStem: -188 503
LayerCount: 2
Fore
SplineSet
395 154 m 0
 360 -10 197 -152 143 -188 c 1
 78 -145 l 1
 91 -129 142 -57 149 -23 c 0
 150 -19 149 -15 149 -12 c 1
 105.45845394 -1.11461348506 64.0203097665 37.1149975483 64.0203097665 108.559690158 c 0
 64.0203097665 122.438656258 65.5840859087 137.571079847 69 154 c 0
 86 232 176 315 262 315 c 0
 359.928761278 315 398.395634662 249.011807336 398.395634662 186.195469811 c 0
 398.395634662 175.245135308 397.226683312 164.391188787 395 154 c 0
773 152 m 0
 738 -12 576 -154 522 -190 c 1
 457 -147 l 1
 470 -131 521 -59 528 -25 c 0
 529 -21 528 -17 528 -14 c 1
 484.340124561 -3.08503114035 442.090149066 35.3229866133 442.090149066 107.14290479 c 0
 442.090149066 120.862299488 443.631872773 135.80091191 447 152 c 0
 464 230 555 313 641 313 c 0
 738.651269575 313 776.456115912 247.385246812 776.456115912 184.729535236 c 0
 776.456115912 173.59811775 775.262877882 162.56009678 773 152 c 0
EndSplineSet
EndChar

StartChar: uni201F
Encoding: 8223 8223 86
Width: 770
Flags: W
HStem: 1278 327<506.826 595.648 886.802 972.42>
VStem: 329.857 175.62<1200.06 1386.97> 708.911 176.566<1203.12 1389.4>
LayerCount: 2
Fore
SplineSet
337 1444 m 0
 352 1514 423 1605 538 1605 c 0
 613.617108065 1605 666.040812809 1540.83158414 666.040812809 1472.31490418 c 0
 666.040812809 1462.90696328 665.052432127 1453.41704152 663 1444 c 0
 642 1343 570 1291 512 1278 c 1
 510 1275 508 1271 507 1267 c 0
 505.940505187 1261.85388234 505.476638144 1255.83723178 505.476638144 1249.27598276 c 0
 505.476638144 1212.48756872 520.059494813 1158.57829757 526 1145 c 1
 443 1102 l 1
 410.378828655 1132.90426759 329.856581621 1241.92413553 329.856581621 1375.91891857 c 0
 329.856581621 1398.01300498 332.045815713 1420.78610791 337 1444 c 0
716 1446 m 0
 731 1516 803 1607 918 1607 c 0
 993.480884754 1607 1045.08152575 1543.06257315 1045.08152575 1474.68515742 c 0
 1045.08152575 1465.15599095 1044.07935999 1455.5405929 1042 1446 c 0
 1021 1345 949 1293 891 1280 c 1
 889 1277 888 1273 887 1269 c 0
 885.940505187 1263.85388234 885.476638144 1257.83723178 885.476638144 1251.27598276 c 0
 885.476638144 1214.48756872 900.059494813 1160.57829757 906 1147 c 1
 823 1104 l 1
 790.336888208 1134.94400065 708.910614678 1244.20459438 708.910614678 1378.43586628 c 0
 708.910614678 1400.36817011 711.084445072 1422.96711405 716 1446 c 0
EndSplineSet
EndChar

StartChar: Euro
Encoding: 8364 8364 87
Width: 1226
Flags: W
HStem: 164 229<677.606 984.35> 481 166<263 378 657 907> 760 166<328 423 739 973> 1053 229<816.167 1088.01>
LayerCount: 2
Back
SplineSet
421.833007812 761.856445312 m 1
 293.009765625 761.856445312 l 1
 321.740234375 897.024414062 l 1
 474.54296875 897.024414062 l 1
 561.311523438 1068.98046875 709.432617188 1196.03027344 880.912109375 1196.03027344 c 0
 1040.65625 1196.03027344 1093.38964844 1155.0703125 1168.00878906 1062.91015625 c 9
 1051.29296875 966.65625 l 2
 1006.13769531 1024 970.96484375 1060.86035156 852.180664062 1060.86035156 c 1
 767.754882812 1060.86035156 688.259765625 987.760742188 631.16015625 897.024414062 c 1
 901.32421875 897.024414062 l 1
 872.59375 761.856445312 l 1
 566.870117188 761.856445312 l 1
 560.513671875 742.932617188 555.374023438 724.35546875 551.591796875 706.560546875 c 0
 547.051757812 685.201171875 543.84765625 664.712890625 541.844726562 645.120117188 c 1
 841.63671875 645.120117188 l 1
 812.905273438 509.952148438 l 1
 548.31640625 509.952148438 l 1
 572.400390625 403.34765625 640.237304688 346.112304688 700.256835938 346.112304688 c 0
 786.272460938 346.112304688 840.955078125 362.49609375 946.995117188 456.704101562 c 9
 1022.79199219 360.448242188 l 1
 938.666015625 282.624023438 861.989257812 210.944335938 671.525390625 210.944335938 c 1
 486.353515625 210.944335938 402.767578125 340.518554688 392.168945312 509.952148438 c 1
 233.321289062 509.952148438 l 1
 262.052734375 645.120117188 l 1
 397.7265625 645.120117188 l 1
 400.622070312 666.77734375 404.4296875 688.670898438 409.102539062 710.65625 c 0
 412.763671875 727.879882812 417.016601562 744.965820312 421.833007812 761.856445312 c 1
EndSplineSet
Fore
SplineSet
423 760 m 1
 293 760 l 1
 328 926 l 1
 478 926 l 1
 532 1027 608 1112 703 1180 c 0
 798 1248 896 1282 999 1282 c 0
 1070 1282 1133 1267 1185 1236 c 0
 1237 1205 1282 1154 1322 1083 c 1
 1138 950 l 1
 1098 1019 1035 1053 951 1053 c 0
 914 1053 873 1040 827 1015 c 0
 781 990 751 960 739 926 c 1
 1008 926 l 1
 973 760 l 1
 682 760 l 1
 677 756 671 743 667 722 c 1
 657 647 l 1
 943 647 l 1
 907 481 l 1
 645 481 l 1
 650 456 672 435 710 418 c 0
 748 401 782 393 811 393 c 0
 846 393 871 394 887 396 c 0
 903 398 923 404 946 415 c 0
 969 426 994 443 1021 467 c 1
 1167 334 l 1
 1139 307 1115 284 1092 267 c 0
 1069 250 1043 232 1010 215 c 0
 977 198 940 184 899 176 c 0
 858 168 813 164 762 164 c 0
 651 164 559 194 488 256 c 0
 417 318 381 393 378 481 c 1
 227 481 l 1
 263 647 l 1
 399 647 l 1
 403 676 407 702 412 725 c 0
 416 744 420 756 423 760 c 1
EndSplineSet
EndChar

StartChar: A
Encoding: 65 65 88
Width: 1421
Flags: W
HStem: 0 21G<20 342.361 1063.12 1377> 382 239<658 1005> 1436 20G<840.571 1165.94>
LayerCount: 2
Back
SplineSet
918.111328125 1255.41992188 m 5
 584.508789062 620.543945312 l 5
 983.869140625 620.543945312 l 5
 918.111328125 1255.41992188 l 5
1004.546875 505.856445312 m 5
 506.8828125 505.856445312 l 4
 227.328125 0 l 4
 61.4404296875 0 l 5
 895.239257812 1456.12988281 l 4
 895.239257812 1456.12988281 972.694335938 1456.12988281 1022.21386719 1456.12988281 c 21
 1236.99023438 0 l 5
 1067.00976562 0 l 5
 1004.546875 505.856445312 l 5
EndSplineSet
Fore
SplineSet
1163 1456 m 1
 1377 0 l 1
 1066 0 l 1
 1011 382 l 1
 857 382 702 382 548 382 c 1
 331 0 l 1
 20 0 l 1
 852 1456 l 1
 1163 1456 l 1
939 1124 m 1
 658 621 l 1
 1005 621 l 1
 939 1124 l 1
EndSplineSet
EndChar

StartChar: B
Encoding: 66 66 89
Width: 1222
Flags: HMW
LayerCount: 2
Back
SplineSet
426.6640625 706.560546875 m 1xf4
 306.516601562 141.311523438 l 1
 626.004882812 141.311523438 l 1
 918.869140625 141.311523438 991.299804688 299.0078125 1019.16015625 430.080078125 c 0
 1047.45605469 563.200195312 985.333007812 704.51171875 745.716796875 704.51171875 c 1
 719.092773438 704.51171875 459.432617188 706.560546875 426.6640625 706.560546875 c 1xf4
556.387695312 1316.86035156 m 1
 456.265625 845.82421875 l 1
 495.177734375 845.82421875 660.629882812 843.776367188 693.3984375 843.776367188 c 1
 1016.98242188 843.776367188 1062.04785156 1007.62011719 1078.58984375 1085.44042969 c 1xf8
 1097.30664062 1173.5 1096.62597656 1314.8203125 773.041992188 1314.8203125 c 1
 742.321289062 1314.8203125 593.250976562 1316.86035156 556.387695312 1316.86035156 c 1
428.293945312 1456.12988281 m 1
 803.078125 1456.12988281 l 1
 1243.3984375 1456.12988281 1271.421875 1241.08984375 1238.33691406 1085.44042969 c 1xf8
 1203.51171875 921.599609375 1028.49902344 782.3359375 919.955078125 782.3359375 c 1
 1165.71484375 782.3359375 1198.74902344 542.719726562 1173.5 423.935546875 c 1xf4
 1144.33398438 286.719726562 1040.37988281 0 595.967773438 0 c 1
 118.784179688 0 l 1
 428.293945312 1456.12988281 l 1
EndSplineSet
Fore
SplineSet
424 1456 m 1
 860 1456 l 2
 1228.58650198 1456 1311.52231447 1295.57532367 1311.52231447 1155.72139692 c 0
 1311.52231447 1125.58928553 1307.67239272 1096.41207858 1302 1070 c 0
 1269 916 1158 833 1035 797 c 1
 1198.22224066 754.932412202 1258.09505583 612.346890035 1258.09505583 499.077694399 c 0
 1258.09505583 477.719256784 1255.9662061 457.403196309 1252 439 c 0
 1219 285 1086 0 640 0 c 2
 115 0 l 1
 424 1456 l 1
641 1216 m 1
 570 878 l 1
 738 878 l 2
 939 878 1012 966 1029 1045 c 0
 1031.37564265 1056.03975116 1032.71628553 1067.33337018 1032.71628553 1078.59431666 c 0
 1032.71628553 1147.91623475 981.911519212 1216 809 1216 c 0
 785 1216 670 1216 641 1216 c 1
519 638 m 1
 434 240 l 1
 661 240 l 2
 884 240 962 334 984 439 c 0
 987.501793283 455.713104306 989.508770831 472.147514152 989.508770831 487.968509615 c 0
 989.508770831 571.542844497 933.504549903 638 746 638 c 2
 519 638 l 1
EndSplineSet
EndChar

StartChar: C
Encoding: 67 67 90
Width: 1409
Flags: W
HStem: -29 240<615.506 910.653> 1245 240<818.472 1106.12>
VStem: 230.53 283.459<320.782 807.326> 1208 296.663<969 1136.25>
LayerCount: 2
Back
SplineSet
1201.31640625 726 m 4
 1149.66503906 483 1014.84960938 211 759.849609375 211 c 5
 505.849609375 211 485.665039062 483 537.31640625 726 c 5
 589.817382812 973 725.6328125 1245 979.6328125 1245 c 5
 1234.6328125 1245 1253.81738281 973 1201.31640625 726 c 4
254.31640625 726 m 5
 182.684570312 389 259.8359375 -29 708.8359375 -29 c 5
 1158.8359375 -29 1411.68457031 389 1483.31640625 726 c 5
 1555.79785156 1067 1480.64648438 1485 1030.64648438 1485 c 5
 581.646484375 1485 326.797851562 1067 254.31640625 726 c 5
EndSplineSet
Fore
SplineSet
1208 969 m 1
 1208 1095 1138 1245 980 1245 c 0
 726 1245 590 973 537 726 c 0
 522.755596199 659.434805315 513.988974164 590.693505545 513.988974164 525.963231447 c 0
 513.988974164 354.391986709 575.578433951 211 760 211 c 0
 918 211 1051 357 1105 483 c 1
 1399 483 l 1
 1321 251 1056 -29 709 -29 c 0
 353.436281666 -29 230.529553833 233.131056685 230.529553833 509.58601588 c 0
 230.529553833 582.233820206 239.016899154 655.870764095 254 726 c 0
 326 1067 582 1485 1031 1485 c 0
 1358.74899285 1485 1504.66272448 1232.20463685 1504.66272448 1009.80922515 c 0
 1504.66272448 996.067821903 1504.10565844 982.442478886 1503 969 c 1
 1208 969 l 1
EndSplineSet
EndChar

StartChar: D
Encoding: 68 68 91
Width: 1273
Flags: W
HStem: 0 240<434 748.631> 1217 239<642 947.514>
VStem: 1087.86 288.221<670.298 1073.14>
LayerCount: 2
Back
SplineSet
1135.52929688 727.040039062 m 1
 1209.53320312 1075.20019531 1076.14550781 1314.8203125 818.09765625 1314.8203125 c 1
 551.857421875 1314.8203125 l 1
 302.420898438 141.311523438 l 1
 568.661132812 141.311523438 l 1
 826.708984375 141.311523438 1061.9609375 380.927734375 1135.52929688 727.040039062 c 1
1301.41699219 727.040039062 m 1
 1214.7890625 319.48828125 899.072265625 0 538.624023438 0 c 1
 114.688476562 0 l 1
 424.198242188 1456.12988281 l 1
 848.133789062 1456.12988281 l 1
 1214.72558594 1456.12988281 1388.48046875 1136.63964844 1301.41699219 727.040039062 c 1
EndSplineSet
Fore
SplineSet
1356 752 m 0
 1265 323 946 0 582 0 c 2
 115 0 l 1
 424 1456 l 1
 891 1456 l 2
 1200.87719874 1456 1376.08248635 1235.0538958 1376.08248635 934.734784979 c 0
 1376.08248635 876.466457115 1369.48700677 815.210188349 1356 752 c 0
1073 752 m 0
 1082.96998637 798.876427123 1087.86133184 843.580664465 1087.86133184 885.438448495 c 0
 1087.86133184 1082.88828257 979.021110039 1217 781 1217 c 2
 642 1217 l 1
 434 240 l 1
 573 240 l 2
 813 240 1007 442 1073 752 c 0
EndSplineSet
EndChar

StartChar: E
Encoding: 69 69 92
Width: 1211
Flags: W
HStem: 0 240<434 1097> 626 240<567 1167> 1216 240<641 1355>
LayerCount: 2
Back
SplineSet
424.198242188 1456.12988281 m 0
 1345.79980469 1456.12988281 l 1
 1315.76367188 1314.8203125 l 0
 551.857421875 1314.8203125 l 0
 446.075195312 817.15234375 l 1
 1166.97070312 817.15234375 l 1
 1136.93457031 675.83984375 l 0
 416.038085938 675.83984375 l 0
 302.420898438 141.311523438 l 0
 1066.32714844 141.311523438 l 0
 1036.29003906 0 l 0
 114.688476562 0 l 1
 424.198242188 1456.12988281 l 0
EndSplineSet
Fore
SplineSet
424 1456 m 1
 1406 1456 l 1
 1355 1216 l 1
 641 1216 l 1
 567 866 l 1
 1218 866 l 1
 1167 626 l 1
 516 626 l 1
 434 240 l 1
 1148 240 l 1
 1097 0 l 1
 115 0 l 1
 424 1456 l 1
EndSplineSet
EndChar

StartChar: F
Encoding: 70 70 93
Width: 1191
Flags: HMW
LayerCount: 2
Back
SplineSet
424.198242188 1456.12988281 m 1
 1345.79980469 1456.12988281 l 1
 1315.76367188 1314.8203125 l 25
 551.857421875 1314.8203125 l 25
 446.075195312 817.15234375 l 1
 1166.97070312 817.15234375 l 1
 1136.93457031 675.83984375 l 25
 416.038085938 675.83984375 l 1
 272.383789062 0 l 1
 114.688476562 0 l 1
 424.198242188 1456.12988281 l 1
EndSplineSet
Fore
SplineSet
424 1456 m 1
 1406 1456 l 1
 1356 1217 l 1
 642 1217 l 1
 567 866 l 1
 1218 866 l 1
 1167 627 l 1
 516 627 l 1
 383 0 l 1
 115 0 l 1
 424 1456 l 1
EndSplineSet
EndChar

StartChar: G
Encoding: 71 71 94
Width: 1421
Flags: W
HStem: -27 238<625.702 930.482> 567 240<879 1131> 1257 240<831.373 1090.84>
VStem: 225.518 288.776<348.035 826.313>
LayerCount: 2
Back
SplineSet
684.08203125 -28.671875 m 0
 245.809570312 -28.671875 172.822265625 389.120117188 245.520507812 731.135742188 c 1
 317.78125 1071.09960938 569.684570312 1495.04003906 1010.00488281 1495.04003906 c 0
 1233.23632812 1495.04003906 1334.04589844 1400.83007812 1394.11914062 1259.51953125 c 9
 1252.77832031 1191.94042969 l 2
 1209.18457031 1275.90039062 1098.75195312 1353.73046875 979.967773438 1353.73046875 c 1
 680.959960938 1353.73046875 469.3046875 1003.51953125 411.408203125 731.135742188 c 1
 353.075195312 456.704101562 416.72265625 110.591796875 713.682617188 110.591796875 c 0
 1027.02734375 110.591796875 1158.42675781 430.080078125 1198.04003906 616.448242188 c 1
 813.013671875 616.448242188 l 1
 843.05078125 757.759765625 l 1
 1391.91699219 757.759765625 l 1
 1373.63378906 671.744140625 l 1
 1306.59472656 356.3515625 1091.63574219 -28.671875 684.08203125 -28.671875 c 0
EndSplineSet
Fore
SplineSet
707 -27 m 0
 350.611538195 -27 225.517854131 233.129935708 225.517854131 521.285154429 c 0
 225.517854131 601.016774283 235.095164881 682.894040788 252 762 c 0
 324 1100 576 1497 1033 1497 c 0
 1236 1497 1397 1386 1439 1200 c 1
 1163 1114 l 1
 1158 1188 1041 1257 982 1257 c 0
 747 1257 583 989 535 762 c 0
 521.653891966 699.223862211 514.293937144 633.821146991 514.293937144 570.924739479 c 0
 514.293937144 379.33452085 582.585984665 211 758 211 c 0
 1005 211 1101 428 1131 567 c 1
 828 567 l 1
 879 807 l 1
 1460 807 l 1
 1428 661 l 2
 1360 341 1140 -27 707 -27 c 0
EndSplineSet
EndChar

StartChar: H
Encoding: 72 72 95
Width: 1253
Flags: W
HStem: 0 21G<115 387.263 868 1142.24> 624 240<567 1001> 1436 20G<419.755 692 1172.78 1447>
LayerCount: 2
Back
SplineSet
424.198242188 1456.12988281 m 0
 581.893554688 1456.12988281 l 1
 445.639648438 815.103515625 l 1
 1107.14355469 815.103515625 l 1
 1243.3984375 1456.12988281 l 1
 1401.08984375 1456.12988281 l 1
 1091.58007812 0 l 1
 933.887695312 0 l 1
 1077.10644531 673.791992188 l 0
 415.602539062 673.791992188 l 1
 272.383789062 0 l 1
 114.688476562 0 l 1
 424.198242188 1456.12988281 l 0
EndSplineSet
Fore
SplineSet
424 1456 m 1
 692 1456 l 1
 567 864 l 1
 1052 864 l 1
 1177 1456 l 1
 1447 1456 l 1
 1138 0 l 1
 868 0 l 1
 1001 624 l 1
 516 624 l 1
 383 0 l 1
 115 0 l 1
 424 1456 l 1
EndSplineSet
EndChar

StartChar: I
Encoding: 73 73 96
Width: 555
Flags: W
HStem: 0 21G<143 415.245> 1436 20G<447.755 720>
VStem: 143 577
LayerCount: 2
Back
SplineSet
143.360351562 0 m 1
 452.870117188 1456.12988281 l 1
 610.56640625 1456.12988281 l 1
 301.055664062 0 l 1
 143.360351562 0 l 1
EndSplineSet
Fore
SplineSet
143 0 m 1
 452 1456 l 1
 720 1456 l 1
 411 0 l 1
 143 0 l 1
EndSplineSet
EndChar

StartChar: J
Encoding: 74 74 97
Width: 1243
Flags: W
HStem: -35 240<532.58 801.014> 1436 20G<1164.77 1437>
VStem: 203.544 271.388<261.674 583.029>
LayerCount: 2
Back
SplineSet
216.017578125 534.528320312 m 0
 357.329101562 534.528320312 l 1
 315.5390625 337.919921875 391.96875 129.024414062 582.432617188 129.024414062 c 1
 774.946289062 129.024414062 931.116210938 333.82421875 973.77734375 534.528320312 c 2
 1169.66992188 1456.12988281 l 1
 1327.37011719 1456.12988281 l 1
 1131.47753906 534.528320312 l 2
 1062.26269531 208.896484375 825.086914062 -20.48046875 550.654296875 -20.48046875 c 1
 278.270507812 -20.48046875 149.4140625 221.18359375 216.017578125 534.528320312 c 0
EndSplineSet
Fore
SplineSet
227 586 m 1
 495 586 l 1
 483.310232072 531.242666022 474.932634226 474.119496272 474.932634226 421.267947822 c 0
 474.932634226 302.314644926 517.370847188 205 660 205 c 0
 853 205 946 404 985 586 c 2
 1169 1456 l 1
 1437 1456 l 1
 1253 586 l 2
 1176 222 949 -35 609 -35 c 0
 324.472167029 -35 203.544305371 135.548232643 203.544305371 381.762007048 c 0
 203.544305371 445.340530699 211.607786237 513.964439589 227 586 c 1
EndSplineSet
EndChar

StartChar: K
Encoding: 75 75 98
Width: 1333
Flags: W
HStem: 0 21G<115 387.234 943.777 1290> 1436 20G<419.755 692 1213.33 1570>
LayerCount: 2
Back
SplineSet
424.198242188 1456.12988281 m 0
 581.893554688 1456.12988281 l 1
 431.274414062 747.51953125 l 1
 1290.50195312 1456.12988281 l 1
 1476.87011719 1456.12988281 l 1
 647.620117188 753.6640625 l 1
 1200.12988281 0 l 1
 1005.5703125 0 l 1
 516.568359375 657.408203125 l 1
 389.484375 550.912109375 l 1
 272.383789062 0 l 1
 114.688476562 0 l 1
 424.198242188 1456.12988281 l 0
EndSplineSet
Fore
SplineSet
424 1456 m 1
 692 1456 l 1
 560 833 l 1
 1235 1456 l 1
 1570 1456 l 1
 877 808 l 1
 1290 0 l 1
 954 0 l 1
 633 628 l 1
 488 496 l 1
 383 0 l 1
 115 0 l 1
 424 1456 l 1
EndSplineSet
EndChar

StartChar: L
Encoding: 76 76 99
Width: 1170
Flags: W
HStem: 0 240<434 1099> 1436 20G<419.755 692>
LayerCount: 2
Back
SplineSet
424.198242188 1456.12988281 m 1
 581.893554688 1456.12988281 l 1
 302.420898438 141.311523438 l 1
 1068.37695312 141.311523438 l 1
 1038.33984375 0 l 1
 114.688476562 0 l 1
 424.198242188 1456.12988281 l 1
EndSplineSet
Fore
SplineSet
424 1456 m 1
 692 1456 l 1
 434 240 l 1
 1150 240 l 1
 1099 0 l 1
 115 0 l 1
 424 1456 l 1
EndSplineSet
EndChar

StartChar: M
Encoding: 77 77 100
Width: 1655
Flags: W
HStem: 0 21G<115 387.241 687.859 970.728 1272 1544.24> 1436 20G<419.755 786.539 1478.86 1849>
LayerCount: 2
Back
SplineSet
65.5361328125 0 m 1
 375.045898438 1456.12988281 l 2
 590.0859375 1456.12988281 l 1
 783.73046875 208.896484375 l 2
 1509.63964844 1456.12988281 l 1
 1716.49023438 1456.12988281 l 1
 1406.98046875 0 l 1
 1253.37988281 0 l 25
 1509.34472656 1204.21972656 l 1
 828.826171875 16.3837890625 l 0
 650.650390625 16.3837890625 l 1
 475.100585938 1204.21972656 l 0
 219.135742188 0 l 1
 65.5361328125 0 l 1
EndSplineSet
Fore
SplineSet
115 0 m 1
 424 1456 l 1
 784 1456 l 1
 915 424 l 1
 1490 1456 l 1
 1849 1456 l 1
 1540 0 l 1
 1272 0 l 1
 1476 962 l 1
 960 0 l 1
 690 0 l 1
 587 962 l 1
 383 0 l 1
 115 0 l 1
EndSplineSet
EndChar

StartChar: N
Encoding: 78 78 101
Width: 1331
Flags: W
HStem: 0 21G<115 387.255 944.559 1220.24> 1436 20G<419.755 691.957 1252.77 1525>
LayerCount: 2
Back
SplineSet
118.784179688 0 m 1
 428.293945312 1456.12988281 l 2
 581.893554688 1456.12988281 l 1
 1074.39550781 294.912109375 l 25
 1321.21972656 1456.12988281 l 1
 1478.91992188 1456.12988281 l 1
 1169.41015625 0 l 0
 1024 0 l 1
 529.399414062 1189.88964844 l 0
 276.48046875 0 l 1
 118.784179688 0 l 1
EndSplineSet
Fore
SplineSet
115 0 m 1
 424 1456 l 1
 684 1456 l 1
 1058 516 l 1
 1257 1456 l 1
 1525 1456 l 1
 1216 0 l 1
 952 0 l 1
 590 973 l 1
 383 0 l 1
 115 0 l 1
EndSplineSet
EndChar

StartChar: O
Encoding: 79 79 102
Width: 1409
Flags: W
HStem: -29 240<615.506 921.717> 1245 240<818.472 1124.11>
VStem: 230.53 283.459<320.782 807.326> 1224.99 281.93<645.695 1136.61>
LayerCount: 2
Back
SplineSet
1257.97167969 724.9921875 m 0
 1315.43359375 995.328125 1295.36425781 1353.73046875 971.776367188 1353.73046875 c 0
 650.240234375 1353.73046875 477.803710938 995.328125 420.341796875 724.9921875 c 1
 363.315429688 456.704101562 388.05078125 110.591796875 707.5390625 110.591796875 c 1
 1029.07714844 110.591796875 1200.9453125 456.704101562 1257.97167969 724.9921875 c 0
254.454101562 724.9921875 m 1
 322.798828125 1046.53027344 573.780273438 1495.04003906 1001.8125 1495.04003906 c 1
 1431.890625 1495.04003906 1492.20703125 1046.53027344 1423.86132812 724.9921875 c 1
 1355.95214844 405.50390625 1105.53027344 -30.7197265625 677.501953125 -30.7197265625 c 1
 251.518554688 -30.7197265625 186.544921875 405.50390625 254.454101562 724.9921875 c 1
EndSplineSet
Fore
SplineSet
254 726 m 0
 326 1067 582 1485 1031 1485 c 0
 1385.87866012 1485 1506.9152825 1225.03730912 1506.9152825 947.888799512 c 0
 1506.9152825 873.602175538 1498.21941438 798.080837556 1483 726 c 0
 1411 389 1159 -29 709 -29 c 0
 353.436281666 -29 230.529553833 233.131056685 230.529553833 509.58601588 c 0
 230.529553833 582.233820206 239.016899154 655.870764095 254 726 c 0
1201 726 m 0
 1215.80006727 794.973898424 1224.98567268 865.897262772 1224.98567268 932.302839182 c 0
 1224.98567268 1103.6999352 1163.79212916 1245 980 1245 c 0
 726 1245 590 973 537 726 c 0
 522.755596199 659.434805315 513.988974164 590.693505545 513.988974164 525.963231447 c 0
 513.988974164 354.391986709 575.578433951 211 760 211 c 0
 1015 211 1149 483 1201 726 c 0
EndSplineSet
EndChar

StartChar: P
Encoding: 80 80 103
Width: 1194
Flags: W
HStem: 0 21G<115 387.247> 584 240<558 937.898> 1216 240<641 993.2>
VStem: 1052.13 280.069<931.307 1156.87>
LayerCount: 2
Back
SplineSet
443.077148438 774.14453125 m 1
 588.485351562 774.14453125 l 1
 916.166015625 774.14453125 1056.28027344 874.49609375 1092.84667969 1046.53027344 c 1
 1128.97753906 1216.50976562 1031.08984375 1314.8203125 703.409179688 1314.8203125 c 1
 558.001953125 1314.8203125 l 1
 443.077148438 774.14453125 l 1
430.341796875 1456.12988281 m 0
 588.038085938 1456.12988281 l 1
 733.446289062 1456.12988281 l 1
 1108.23046875 1456.12988281 1309.05175781 1302.53027344 1254.63671875 1046.53027344 c 0
 1201.09277344 794.624023438 932.796875 630.784179688 558.013671875 630.784179688 c 1
 412.60546875 630.784179688 l 1
 278.528320312 0 l 1
 120.83203125 0 l 1
 430.341796875 1456.12988281 l 0
EndSplineSet
Fore
SplineSet
424 1456 m 1
 692 1456 l 2
 946.446403059 1456 1332.19551725 1451.04518071 1332.19551725 1127.45243185 c 0
 1332.19551725 1094.95459114 1328.30491901 1059.24302387 1320 1020 c 0
 1229 591 787 584 507 584 c 1
 383 0 l 1
 115 0 l 1
 424 1456 l 1
558 824 m 1
 629 824 l 2
 867 824 1009 845 1046 1020 c 0
 1050.11391737 1039.4577173 1052.12620308 1057.01160357 1052.12620308 1072.84447437 c 0
 1052.12620308 1199.41023883 923.537504467 1216 712 1216 c 2
 641 1216 l 1
 558 824 l 1
EndSplineSet
EndChar

StartChar: Q
Encoding: 81 81 104
Width: 1437
Flags: W
HStem: -35 242<624.592 896.152> -29 21G<1159.82 1200> 1255 240<817.081 1128.23>
VStem: 234.096 286.764<318.244 830.327> 1228.45 280.243<670 1144.79>
LayerCount: 2
Back
SplineSet
1206.7265625 753.6640625 m 4
 1255.01660156 980.852539062 1244.54785156 1282.04980469 987.259765625 1282.04980469 c 4
 731.923828125 1282.04980469 591.462890625 980.852539062 543.171875 753.6640625 c 5
 490.708007812 506.838867188 501.090820312 188.416015625 754.80078125 188.416015625 c 5
 1010.4609375 188.416015625 1154.26171875 506.838867188 1206.7265625 753.6640625 c 4
260.547851562 753.6640625 m 5
 328.709960938 1074.33984375 587.630859375 1521.66015625 1038.19042969 1521.66015625 c 5
 1490.82910156 1521.66015625 1557.5078125 1074.33984375 1489.34667969 753.6640625 c 5
 1416.8359375 412.530273438 1153.91210938 -53.248046875 703.43359375 -53.248046875 c 5
 255.03125 -53.248046875 188.038085938 412.530273438 260.547851562 753.6640625 c 5
EndSplineSet
Fore
SplineSet
258 754 m 0xb8
 321 1052 572 1495 1037 1495 c 0
 1380.88356583 1495 1508.68954123 1248.50679568 1508.68954123 970.398718441 c 0
 1508.68954123 899.136539852 1500.29799204 825.798575994 1485 754 c 0
 1435 520 1336 350 1255 260 c 1
 1370 161 l 1
 1180 -29 l 1x78
 1070 80 l 1
 982 14 849 -35 702 -35 c 0
 367.519764796 -35 234.095976966 233.929006042 234.095976966 530.461392024 c 0
 234.095976966 604.505573189 242.414972119 680.270829642 258 754 c 0xb8
1207 754 m 0
 1220.96461134 819.168186263 1228.44688352 882.475701099 1228.44688352 940.922745482 c 0
 1228.44688352 1121.04170542 1157.38654781 1255 986 1255 c 0
 734 1255 597 999 545 754 c 0
 530.71618036 686.747015859 520.860040917 611.081439342 520.860040917 537.965595914 c 0
 520.860040917 365.379619179 575.775530568 207 757 207 c 0xb8
 780 207 856 211 898 244 c 1
 763 362 l 1
 952 559 l 1
 1082 428 l 1
 1128 489 1186 657 1207 754 c 0
EndSplineSet
EndChar

StartChar: R
Encoding: 82 82 105
Width: 1224
Flags: W
HStem: -1 21G<115 387.227 845.31 1158> 580 244<558 656.383> 1216 239<641 993.2>
VStem: 1052.13 280.069<930.801 1155.59>
LayerCount: 2
Back
SplineSet
558.146484375 824 m 5
 838.146484375 824 1004.99707031 828 1045.80761719 1020 c 4
 1086.61816406 1212 921.46875 1216 641.46875 1216 c 5
 558.146484375 824 l 5
424.482421875 1456 m 4
 692.482421875 1456 l 6
 972.482421875 1456 1410.78027344 1449.5 1319.48730469 1020 c 4
 1228.30078125 591 787.1328125 584 507.1328125 584 c 5
 383 0 l 5
 115 0 l 5
 424.482421875 1456 l 4
EndSplineSet
Fore
SplineSet
852 -1 m 1
 657 582 l 1
 644 581 621 580 597 580 c 0
 565 580 529 581 506 581 c 1
 383 -1 l 1
 115 -1 l 1
 424 1455 l 1
 692 1455 l 2
 946.446403059 1455 1332.19551725 1449.2193775 1332.19551725 1126.2263364 c 0
 1332.19551725 1093.78872326 1328.30491901 1058.15176103 1320 1019 c 0
 1277 818 1147 680 931 626 c 1
 1158 -1 l 1
 852 -1 l 1
558 824 m 1
 629 824 l 2
 867 824 1009 845 1046 1019 c 0
 1050.11391737 1038.34653035 1052.12620308 1055.82631728 1052.12620308 1071.61530359 c 0
 1052.12620308 1197.83026158 923.537504467 1216 712 1216 c 2
 641 1216 l 1
 558 824 l 1
EndSplineSet
EndChar

StartChar: S
Encoding: 83 83 106
Width: 1202
Flags: W
HStem: -29 242<528.787 833.226> 1251 241<717.031 1020.35>
VStem: 357.152 281.398<982.333 1174.17> 942.921 280.977<317.19 552.503>
LayerCount: 2
Back
SplineSet
149.87890625 290.81640625 m 5
 297.927734375 370.688476562 l 5
 358.438476562 231.423828125 429.010742188 110.591796875 623.571289062 110.591796875 c 5
 805.842773438 110.591796875 974.580078125 239.616210938 1008.09960938 397.311523438 c 5
 1040.3125 548.864257812 914.1875 649.215820312 683.969726562 712.704101562 c 4
 515.806640625 759.807617188 294.909179688 847.872070312 347.58203125 1095.6796875 c 5
 401.125 1347.58007812 659.796875 1495.04003906 893.268554688 1495.04003906 c 5
 1136.98046875 1495.04003906 1229.03125 1388.54003906 1293.64257812 1249.28027344 c 5
 1155.83007812 1169.41015625 l 5
 1118.203125 1271.80957031 1018.87988281 1353.73046875 859.135742188 1353.73046875 c 5
 705.536132812 1353.73046875 545.940429688 1267.70996094 509.374023438 1095.6796875 c 5
 470.630859375 913.408203125 694.526367188 868.3515625 818.069335938 823.295898438 c 4
 1006.45507812 755.711914062 1226.91796875 665.599609375 1169.89160156 397.311523438 c 5
 1116.78320312 147.456054688 847.486328125 -30.7197265625 593.534179688 -30.7197265625 c 5
 374.3984375 -30.7197265625 238.596679688 81.919921875 149.87890625 290.81640625 c 5
EndSplineSet
Fore
SplineSet
169 404 m 1
 446 447 l 1
 451 328 507 213 665 213 c 0
 818 213 915 294 938 404 c 0
 941.333045803 419.608409615 942.921399577 434.11977803 942.921399577 447.665192992 c 0
 942.921399577 600.742754795 740.066415184 630.454555208 560 726 c 0
 457.130316363 781.260573855 357.151739019 850.976679178 357.151739019 1002.12638144 c 0
 357.151739019 1028.76583267 360.257320361 1057.93481238 367 1090 c 0
 425 1362 690 1492 937 1492 c 0
 1167 1492 1320 1356 1341 1186 c 1
 1057 1135 l 1
 1042 1206 996 1251 886 1251 c 0
 776 1251 667 1214 641 1090 c 0
 639.343649355 1082.27036365 638.549976244 1074.79678707 638.549976244 1067.56344973 c 0
 638.549976244 943.785807619 870.956672711 890.35602858 990 828 c 0
 1122.39674253 759.287766536 1223.89813627 673.723524644 1223.89813627 508.938601275 c 0
 1223.89813627 477.072025559 1220.10229667 442.242840273 1212 404 c 0
 1155 134 894 -29 614 -29 c 0
 348.201163067 -29 168.033039677 130.291542399 168.033039677 372.891288442 c 0
 168.033039677 383.114806899 168.353001411 393.486272934 169 404 c 1
EndSplineSet
EndChar

StartChar: T
Encoding: 84 84 107
Width: 1353
Flags: W
HStem: 0 21G<555 827.243> 1216 240<387 813 1081 1538>
LayerCount: 2
Back
SplineSet
387.333984375 1456.12988281 m 0
 1478.91992188 1456.12988281 l 1
 1448.88378906 1314.8203125 l 0
 992.177734375 1314.8203125 l 1
 712.704101562 0 l 1
 555.0078125 0 l 1
 834.481445312 1314.8203125 l 1
 357.297851562 1314.8203125 l 1
 387.333984375 1456.12988281 l 0
EndSplineSet
Fore
SplineSet
387 1456 m 1
 1589 1456 l 1
 1538 1216 l 1
 1081 1216 l 1
 823 0 l 1
 555 0 l 1
 813 1216 l 1
 336 1216 l 1
 387 1456 l 1
EndSplineSet
EndChar

StartChar: U
Encoding: 85 85 108
Width: 1275
Flags: W
HStem: -35 240<555.586 824.074> 1436 20G<419.77 692 1196.77 1469>
VStem: 218.262 273.11<274.759 694.75>
LayerCount: 2
Back
SplineSet
617.560546875 -35 m 5
 958.560546875 -35 1185.1875 222 1262.55859375 586 c 6
 1447.48242188 1456 l 5
 1179.48242188 1456 l 5
 994.55859375 586 l 6
 955.873046875 404 862.57421875 205 668.57421875 205 c 5
 475.57421875 205 466.873046875 404 505.55859375 586 c 6
 690.482421875 1456 l 5
 422.482421875 1456 l 5
 237.55859375 586 l 6
 160.1875 222 277.560546875 -35 617.560546875 -35 c 5
EndSplineSet
Fore
SplineSet
630 -35 m 0
 353.901738111 -35 218.262328268 134.473826177 218.262328268 393.097441834 c 0
 218.262328268 452.954749317 225.528135781 517.587550963 240 586 c 2
 424 1456 l 1
 692 1456 l 1
 508 586 l 2
 497.639981754 537.653248185 491.372756886 488.106884518 491.372756886 441.409850396 c 0
 491.372756886 312.317200801 539.268808243 205 681 205 c 0
 875 205 978 404 1017 586 c 2
 1201 1456 l 1
 1469 1456 l 1
 1285 586 l 2
 1208 222 971 -35 630 -35 c 0
EndSplineSet
EndChar

StartChar: V
Encoding: 86 86 109
Width: 1302
Flags: W
HStem: 0 21G<495.379 823.973> 1436 20G<379 669.397 1252.03 1540>
LayerCount: 2
Back
SplineSet
1321.21972656 1456.12988281 m 1
 1485.05957031 1456.12988281 l 1
 735.232421875 0 l 1
 516.095703125 0 l 1
 379.141601562 1456.12988281 l 1
 549.125976562 1456.12988281 l 1
 660.3359375 167.935546875 l 1
 1321.21972656 1456.12988281 l 1
EndSplineSet
Fore
SplineSet
1262 1456 m 1
 1540 1456 l 1
 814 0 l 1
 497 0 l 1
 379 1456 l 1
 668 1456 l 1
 741 411 l 1
 1262 1456 l 1
EndSplineSet
EndChar

StartChar: W
Encoding: 87 87 110
Width: 1708
Flags: W
HStem: 0 21G<312 639.897 988 1315.51> 1436 20G<382.025 654 1577.13 1855>
VStem: 383 271<1275.29 1456> 1017 236<493.014 975>
LayerCount: 2
Back
SplineSet
383.237304688 1456.12988281 m 1
 536.837890625 1456.12988281 l 1
 465.241210938 223.232421875 l 0
 1004.13671875 1419.25976562 l 1
 1178.21679688 1419.25976562 l 0
 1208.66894531 223.232421875 l 1
 1661.19042969 1456.12988281 l 25
 1814.79003906 1456.12988281 l 1
 1275.90039062 0 l 1
 1056.76953125 0 l 1
 1043.01074219 1187.83984375 l 2
 524.288085938 0 l 1
 301.055664062 0 l 2
 383.237304688 1456.12988281 l 1
EndSplineSet
Fore
SplineSet
383 1456 m 1
 654 1456 l 1
 578 498 l 1
 957 1429 l 1
 1271 1429 l 1
 1253 492 l 1
 1584 1456 l 1
 1855 1456 l 1
 1308 0 l 1
 988 0 l 1
 1017 975 l 1
 632 0 l 1
 312 0 l 1
 383 1456 l 1
EndSplineSet
EndChar

StartChar: X
Encoding: 88 88 111
Width: 1326
Flags: W
HStem: 0 21G<64 419.042 915.458 1262> 1435 20G<376 722.526 1212.97 1568> 1435 20G<376 722.526 1212.97 1568>
LayerCount: 2
Back
SplineSet
922 0 m 25
 376.26953125 1455 l 25
1262 0 m 25
 716.26953125 1455 l 25
404 0 m 25
 1568.26953125 1455 l 25
64 0 m 25
 1228.26953125 1455 l 25
EndSplineSet
Fore
SplineSet
376 1455 m 1xc0
 716 1455 l 1
 871 980 l 1
 1228 1455 l 1
 1568 1455 l 1
 978 730 l 1
 1262 0 l 1
 922 0 l 1
 765 480 l 1
 404 0 l 1
 64 0 l 1
 658 730 l 1
 376 1455 l 1xc0
EndSplineSet
EndChar

StartChar: Y
Encoding: 89 89 112
Width: 1326
Flags: W
HStem: 0 21G<530 802.261> 1435 20G<376 722.526 1212.97 1568> 1435 20G<376 722.526 1212.97 1568>
LayerCount: 2
Back
SplineSet
375.045898438 1456.12988281 m 1
 542.982421875 1456.12988281 l 1
 771.786132812 856.064453125 l 1
 1255.68554688 1456.12988281 l 1
 1423.62011719 1456.12988281 l 1
 826.538085938 747.51953125 l 1
 667.6484375 0 l 1
 509.952148438 0 l 1
 668.841796875 747.51953125 l 1
 375.045898438 1456.12988281 l 1
EndSplineSet
Fore
SplineSet
376 1455 m 1xc0
 716 1455 l 1
 871 980 l 1
 1228 1455 l 1
 1568 1455 l 1
 945 690 l 1
 798 0 l 1
 530 0 l 1
 677 690 l 1
 376 1455 l 1xc0
EndSplineSet
EndChar

StartChar: Z
Encoding: 90 90 113
Width: 1378
Flags: W
HStem: 0 240<579 1300> 1216 240<448 1110>
LayerCount: 2
Back
SplineSet
428.293945312 1456.12988281 m 1
 1532.16992188 1456.12988281 l 1
 388.436523438 141.311523438 l 1
 1264.9765625 141.311523438 l 1
 1234.94042969 0 l 1
 90.1123046875 0 l 1
 1242.03320312 1314.8203125 l 1
 398.2578125 1314.8203125 l 1
 428.293945312 1456.12988281 l 1
EndSplineSet
Fore
SplineSet
448 1456 m 1
 1615 1456 l 1
 579 240 l 1
 1351 240 l 1
 1300 0 l 1
 72 0 l 1
 1110 1216 l 1
 397 1216 l 1
 448 1456 l 1
EndSplineSet
EndChar

StartChar: bracketleft
Encoding: 91 91 114
Width: 743
Flags: W
HStem: -98 237<405 602> 1292 240<650 898>
LayerCount: 2
Back
SplineSet
495.635742188 -96.255859375 m 0
 100.372070312 -96.255859375 l 1
 446.013671875 1529.86035156 l 0
 841.27734375 1529.86035156 l 1
 811.239257812 1388.54003906 l 1
 565.479492188 1388.54003906 l 1
 279.477539062 43.0078125 l 1
 525.237304688 43.0078125 l 1
 495.635742188 -96.255859375 l 0
EndSplineSet
Fore
SplineSet
602 -98 m 1
 100 -98 l 1
 447 1532 l 1
 949 1532 l 1
 898 1292 l 1
 650 1292 l 1
 405 139 l 1
 653 139 l 1
 602 -98 l 1
EndSplineSet
EndChar

StartChar: backslash
Encoding: 92 92 115
Width: 856
Flags: W
HStem: 0 21G<581.163 895>
VStem: 289 606
LayerCount: 2
Back
SplineSet
679.935546875 0 m 1
 289.315429688 1544.19042969 l 1
 461.34765625 1544.19042969 l 0
 849.919921875 0 l 1
 679.935546875 0 l 1
EndSplineSet
Fore
SplineSet
585 0 m 1
 289 1543 l 1
 581 1543 l 1
 895 0 l 1
 585 0 l 1
EndSplineSet
EndChar

StartChar: bracketright
Encoding: 93 93 116
Width: 743
Flags: W
HStem: -98 239<149 395> 1292 240<445 640>
LayerCount: 2
Back
SplineSet
98.32421875 -96.255859375 m 0
 128.361328125 45.0556640625 l 1
 374.12109375 45.0556640625 l 1
 659.6875 1388.54003906 l 1
 413.927734375 1388.54003906 l 1
 443.965820312 1529.86035156 l 1
 839.229492188 1529.86035156 l 0
 493.587890625 -96.255859375 l 1
 98.32421875 -96.255859375 l 0
EndSplineSet
Fore
SplineSet
98 -98 m 1
 149 141 l 1
 395 141 l 1
 640 1292 l 1
 394 1292 l 1
 445 1532 l 1
 945 1532 l 1
 598 -98 l 1
 98 -98 l 1
EndSplineSet
EndChar

StartChar: asciicircum
Encoding: 94 94 117
Width: 1081
Flags: W
HStem: 1151 341<663 723>
LayerCount: 2
Back
SplineSet
1055.22070312 1148.9296875 m 1
 866.8046875 1148.9296875 l 1
 756.428710938 1361.91992188 l 1
 553.896484375 1150.98046875 l 0
 367.528320312 1150.98046875 l 1
 716.705078125 1492.99023438 l 1
 847.776367188 1492.99023438 l 1
 1055.22070312 1148.9296875 l 1
EndSplineSet
Fore
SplineSet
1170 1148 m 1
 899 1148 l 1
 801 1309 l 1
 644 1151 l 1
 367 1151 l 1
 723 1492 l 1
 959 1492 l 1
 1170 1148 l 1
EndSplineSet
EndChar

StartChar: underscore
Encoding: 95 95 118
Width: 1241
Flags: W
HStem: -281 240<69 1107>
LayerCount: 2
Back
SplineSet
28.6337890625 -231.423828125 m 1
 58.669921875 -90.1123046875 l 1
 1148.20605469 -90.1123046875 l 1
 1118.16894531 -231.423828125 l 1
 28.6337890625 -231.423828125 l 1
EndSplineSet
Fore
SplineSet
18 -281 m 1
 69 -41 l 1
 1158 -41 l 1
 1107 -281 l 1
 18 -281 l 1
EndSplineSet
EndChar

StartChar: grave
Encoding: 96 96 119
Width: 536
Flags: W
HStem: 1528 417
VStem: 458 419
LayerCount: 2
Back
SplineSet
708.553710938 1300.48046875 m 1
 546.76171875 1300.48046875 l 2
 426.66015625 1554.4296875 l 2
 584.356445312 1554.4296875 l 1
 708.553710938 1300.48046875 l 1
EndSplineSet
Fore
SplineSet
732 1533 m 2
 470 1746 l 2
 462 1753 458 1763 458 1776 c 0
 458 1784 458 1793 460 1802 c 0
 462 1813 465 1824 471 1836 c 0
 481 1858 493 1875 507 1888 c 0
 518 1899 533 1911 549 1921 c 0
 565 1931 582 1938 597 1942 c 0
 604 1944 610 1945 616 1945 c 0
 627 1945 635 1942 642 1935 c 2
 873 1688 l 2
 876 1685 877 1680 877 1675 c 0
 877 1670 876 1663 875 1657 c 0
 873 1648 871 1638 864 1626 c 0
 854 1606 843 1591 833 1581 c 0
 823 1571 810 1561 795 1550 c 0
 780 1539 767 1533 755 1530 c 0
 751 1529 748 1528 745 1528 c 0
 740 1528 735 1530 732 1533 c 2
EndSplineSet
EndChar

StartChar: a
Encoding: 97 97 120
Width: 1080
Flags: W
HStem: -29 220<360.789 620.32> 0 21G<721 982.262> 524 217<498.931 761.681> 897 205<474.369 812.076>
VStem: 156.219 248.785<235.788 428.524> 867.03 256.07<578.891 843.299>
LayerCount: 2
Back
SplineSet
618.610351562 -477 m 4
 572.2734375 -695 682.143554688 -785 919.143554688 -785 c 5
 968.731445312 -547 l 5
 877.731445312 -547 865.557617188 -529 877.4609375 -473 c 4
 1134.8671875 738 l 5
 876.8671875 738 l 5
 843.495117188 581 l 21
 797.6640625 690 691.393554688 764 575.393554688 764 c 4
 311.393554688 764 140.278320312 500 75.6611328125 196 c 4
 11.0439453125 -108 73.4169921875 -365 335.629882812 -364 c 5
 451.629882812 -364 589.784179688 -288 681.952148438 -179 c 5
 618.610351562 -477 l 4
336.723632812 201 m 4
 388.799804688 446 521.655273438 530 618.655273438 530 c 5
 715.655273438 530 825.500976562 454 770.723632812 201 c 5
 716.521484375 -54 575.3671875 -130 478.3671875 -130 c 4
 384.3671875 -130 289.111328125 -23 336.723632812 201 c 4
EndSplineSet
Fore
SplineSet
608 741 m 0xbc
 748 741 833 654 841 576 c 1
 859 658 l 2
 864.508037537 684.131154827 867.029810657 707.489349838 867.029810657 728.35622229 c 0
 867.029810657 870.392291116 750.190610379 897 663 897 c 0
 563 897 494 868 435 844 c 1
 367 1008 l 1
 436 1056 599 1102 706 1102 c 0
 931.168804206 1102 1123.10025966 1008.93542351 1123.10025966 749.806981433 c 0
 1123.10025966 707.420957226 1117.96501249 660.591789529 1107 609 c 2
 1043 305 l 1
 978 0 l 1
 721 0 l 1x7c
 750 136 l 1
 708 58 588 -29 448 -29 c 0
 274.41903545 -29 156.219316466 92.8387402438 156.219316466 267.986977002 c 0
 156.219316466 296.662609508 159.387650167 326.767198663 166 358 c 0
 213 580 410 741 608 741 c 0xbc
646 524 m 0
 524 524 426 442 408 356 c 0
 405.991596045 346.404292216 405.004063351 336.895731978 405.004063351 327.574334989 c 0
 405.004063351 253.354198709 467.612515694 191 576 191 c 0xbc
 698 191 785 270 803 356 c 0
 805.28577839 366.920941198 806.426619798 377.777378905 806.426619798 388.409585707 c 0
 806.426619798 461.503659304 752.507502021 524 646 524 c 0
EndSplineSet
EndChar

StartChar: b
Encoding: 98 98 121
Width: 1122
Flags: W
HStem: -28 234<531.124 747.761> 0 21G<119 381.204> 866 234<749.45 1017.95> 1434 20G<423.75 686>
VStem: 931.529 268.728<455.571 811.084>
LayerCount: 2
Back
SplineSet
377 0 m 9
 119 0 l 1
 428.057617188 1454 l 1
 686.057617188 1454 l 1
 570.8515625 912 l 17
 649.95703125 1016 791.237304688 1102 928.237304688 1102 c 0
 1120.23730469 1102 1208.88183594 916.986328125 1128.35546875 538 c 2
 1014 0 l 1
 756 0 l 0
 870.142578125 537 l 2
 928.595703125 812 840.262695312 866.889648438 760.262695312 866.889648438 c 0
 680.262695312 866.889648438 549.170898438 810 490.930664062 536 c 2
 377 0 l 9
270.3359375 0 m 17
 118.784179688 0 l 1
 427.858398438 1454.08007812 l 1
 579.41015625 1454.08007812 l 1
 461.439453125 899.072265625 l 17
 543.33984375 995.328125 637.526367188 1091.58007812 782.934570312 1091.58007812 c 0
 1034.83886719 1091.58007812 1098.64453125 823.295898438 1038.57128906 540.671875 c 0
 978.498046875 258.047851562 829.489257812 -28.671875 505.905273438 -28.671875 c 1
 342.065429688 -28.671875 299.9375 139.263671875 299.9375 139.263671875 c 0
 270.3359375 0 l 17
884.100585938 536.576171875 m 0
 933.7265625 770.047851562 891.420898438 956.416015625 764.444335938 956.416015625 c 1
 625.180664062 956.416015625 435.142578125 794.624023438 380.29296875 536.576171875 c 1
 318.477539062 245.759765625 432.236328125 106.49609375 544.875976562 106.49609375 c 0
 694.380859375 106.49609375 825.768554688 262.143554688 884.100585938 536.576171875 c 0
EndSplineSet
Fore
SplineSet
917 537 m 0xb8
 927.043806802 584.321782049 931.528874623 625.637141439 931.528874623 661.500928369 c 0
 931.528874623 811.315436242 853.264437311 866 775 866 c 0
 678 866 537 790 483 537 c 0
 473.076218334 490.137697689 468.657400707 449.320723984 468.657400707 413.909804141 c 0
 468.657400707 256.633124047 555.826052252 206 635 206 c 0
 729 206 869 313 917 537 c 0xb8
377 0 m 1x78
 119 0 l 1x78
 428 1454 l 1
 686 1454 l 1
 572 917 l 1
 664 1026 802 1100 918 1100 c 0
 1117.89115189 1100 1200.25652205 948.649724978 1200.25652205 743.182905741 c 0
 1200.25652205 677.285836359 1191.78437548 605.82230994 1176 532 c 0
 1111 228 940 -28 678 -28 c 0xb8
 562 -28 456 48 410 157 c 1
 377 0 l 1x78
EndSplineSet
EndChar

StartChar: c
Encoding: 99 99 122
Width: 1047
Flags: W
HStem: -29 232<527.02 771.492> 870 230<646.467 884.944>
VStem: 181.408 268.998<284.323 626.618>
LayerCount: 2
Back
SplineSet
1362 0 m 21
 462.142578125 537 l 5
 1590.28613281 1074 l 13
1180.65429688 737 m 9
 932.654296875 737 l 17
 912.533203125 807 871.923828125 870 770.923828125 870 c 1
 640.923828125 870 503.37890625 731 461.080078125 532 c 4
 418.994140625 334 506.149414062 203 649.149414062 203 c 1
 756.149414062 203 788.689453125 262 828.955078125 315 c 9
 1090.95507812 315 l 1
 1030.11035156 184 829.8359375 -29 599.8359375 -29 c 1
 278.8359375 -29 127.236328125 194 199.080078125 532 c 0
 271.13671875 871 530.8125 1100 819.8125 1100 c 0
 995.8125 1100 1190.2421875 975 1180.65429688 737 c 9
1039.74707031 960.51171875 m 9
 918.064453125 860.16015625 l 2
 872.909179688 917.50390625 822.223632812 958.463867188 703.439453125 958.463867188 c 1
 572.368164062 958.463867188 405.036132812 778.240234375 353.668945312 536.576171875 c 0
 302.301757812 294.912109375 411.321289062 104.448242188 542.393554688 104.448242188 c 0
 669.369140625 104.448242188 727.791015625 157.696289062 787.51953125 217.087890625 c 9
 864.928710938 118.784179688 l 1
 799.491210938 61.4404296875 710.706054688 -28.671875 513.662109375 -30.7197265625 c 1
 255.614257812 -30.7197265625 130.41796875 208.896484375 200.068359375 536.576171875 c 0
 269.71875 864.255859375 502.793945312 1093.62988281 732.169921875 1093.62988281 c 0
 891.9140625 1093.62988281 965.127929688 1052.66992188 1039.74707031 960.51171875 c 9
EndSplineSet
Fore
SplineSet
927 756 m 1
 905 817 863 870 771 870 c 0
 641 870 503 731 461 532 c 0
 453.815009357 498.127901254 450.405249825 466.216581456 450.405249825 436.586454047 c 0
 450.405249825 293.013105909 530.463182428 203 649 203 c 0
 756 203 789 262 829 315 c 1
 1019 204 l 1
 926 90 772 -29 600 -29 c 0
 331.649435122 -29 181.407509895 126.847494924 181.407509895 375.444396733 c 0
 181.407509895 424.218232775 187.190780907 476.562277037 199 532 c 0
 271 871 531 1100 820 1100 c 0
 973 1100 1115 1010 1163 868 c 1
 927 756 l 1
EndSplineSet
EndChar

StartChar: d
Encoding: 100 100 123
Width: 1122
Flags: W
HStem: -28 234<347.201 612.695> 0 21G<760 1022.25> 866 234<611.018 837.595> 1434 20G<1064.75 1327>
VStem: 163.298 271.922<268.397 613.987>
LayerCount: 2
Back
SplineSet
741.375976562 0 m 9
 770.977539062 139.263671875 l 0
 770.977539062 139.263671875 657.458007812 -28.671875 493.6171875 -28.671875 c 1
 170.033203125 -28.671875 142.9140625 258.047851562 202.98828125 540.671875 c 0
 263.061523438 823.295898438 440.918945312 1091.58007812 692.822265625 1091.58007812 c 0
 838.23046875 1091.58007812 893.854492188 987.135742188 932.479492188 899.072265625 c 9
 1050.45019531 1454.08007812 l 1
 1202.00195312 1454.08007812 l 1
 892.927734375 0 l 1
 741.375976562 0 l 9
355.716796875 536.576171875 m 0
 297.384765625 262.143554688 362.604492188 106.49609375 512.108398438 106.49609375 c 0
 624.748046875 106.49609375 797.709960938 245.759765625 859.524414062 536.576171875 c 1
 914.375 794.624023438 793.116210938 956.416015625 653.852539062 956.416015625 c 1
 526.876953125 956.416015625 405.342773438 770.047851562 355.716796875 536.576171875 c 0
EndSplineSet
Fore
SplineSet
448 537 m 0xb8
 439.17804322 495.830868359 435.220269029 458.613885072 435.220269029 425.286967372 c 0
 435.220269029 277.283133918 513.276332028 206 590 206 c 0
 687 206 828 282 882 537 c 0
 891.923781666 583.494754842 896.342599293 624.011726649 896.342599293 659.177777063 c 0
 896.342599293 815.366875953 809.173947748 866 730 866 c 0
 633 866 500 782 448 537 c 0xb8
760 0 m 1x78
 793 157 l 1
 701 48 563 -28 447 -28 c 0xb8
 247.401451808 -28 163.298453229 120.577189452 163.298453229 325.764658284 c 0
 163.298453229 389.913401168 171.518723788 459.595262024 187 532 c 0
 252 836 423 1100 687 1100 c 0
 803 1100 909 1026 955 917 c 1
 1069 1454 l 1
 1327 1454 l 1
 1018 0 l 1
 760 0 l 1x78
EndSplineSet
EndChar

StartChar: e
Encoding: 101 101 124
Width: 1093
Flags: W
HStem: -29 230<500.207 763.021> 469 182<501 916.614> 868 230<625.562 865.461>
VStem: 186.399 266.566<250.332 468.205> 916.615 240.858<651.717 820.777>
LayerCount: 2
Back
SplineSet
375.522460938 604.16015625 m 1
 897.122070312 604.16015625 l 1
 923.1796875 778.240234375 871.439453125 958.463867188 711.631835938 958.463867188 c 0
 551.825195312 958.463867188 422.59765625 774.14453125 375.522460938 604.16015625 c 1
346.760742188 468.9921875 m 1
 323.087890625 286.719726562 370.668945312 106.49609375 530.540039062 106.49609375 c 0
 624.78125 106.49609375 702.94921875 162.463867188 763.098632812 242.655273438 c 0
 884.359375 187.616210938 l 0
 787.939453125 55.423828125 656.2734375 -28.671875 501.809570312 -28.671875 c 1
 235.569335938 -28.671875 135.078125 221.18359375 202.1171875 536.576171875 c 0
 269.15625 851.967773438 474.122070312 1093.62988281 740.362304688 1093.62988281 c 0
 1006.60253906 1093.62988281 1104.73925781 851.967773438 1037.70117188 536.576171875 c 0
 1033.01660156 514.5390625 1029.15136719 491.83984375 1024.29492188 468.9921875 c 1
 346.760742188 468.9921875 l 1
EndSplineSet
Fore
SplineSet
621 201 m 0
 680 201 741 221 789 267 c 1
 996 169 l 1
 882 38 705 -29 572 -29 c 0
 345.323871192 -29 186.398928863 143.26099541 186.398928863 395.385421577 c 0
 186.398928863 440.236341427 191.428198564 487.61458472 202 537 c 0
 271 860 536 1098 802 1098 c 0
 1023.39793599 1098 1157.47293507 934.355441057 1157.47293507 694.298829397 c 0
 1157.47293507 644.853576343 1151.78480306 592.166541854 1140 537 c 2
 1126 469 l 1
 462 469 l 1
 455.765812718 436.55388892 452.964440815 407.922017149 452.964440815 382.67488935 c 0
 452.964440815 229.731408988 555.768141669 201 621 201 c 0
501 651 m 1
 914 651 l 1
 915.735841642 663.960950929 916.614610586 676.828159531 916.614610586 689.449752095 c 0
 916.614610586 785.895648095 865.303207429 868 753 868 c 0
 627 868 532 760 501 651 c 1
EndSplineSet
EndChar

StartChar: f
Encoding: 102 102 125
Width: 782
Flags: W
HStem: 0 21G<213 475.242> 844 229<302 392 699 815> 1260 229<738.903 943.652>
LayerCount: 2
Back
SplineSet
604.87890625 937.984375 m 0
 405.50390625 0 l 1
 253.952148438 0 l 1
 453.326171875 937.984375 l 0
 314.0625 937.984375 l 1
 342.79296875 1073.15039062 l 1
 482.056640625 1073.15039062 l 0
 505.563476562 1183.74023438 l 1
 547.354492188 1380.34960938 683.372070312 1480.70019531 853.356445312 1480.70019531 c 0
 937.32421875 1480.70019531 962.38671875 1454.08007812 1014.37695312 1419.25976562 c 9
 897.662109375 1323.00976562 l 17
 866.328125 1339.38964844 863.5390625 1345.54003906 834.8671875 1345.54003906 c 0
 736.563476562 1345.54003906 679.317382812 1288.19042969 657.115234375 1183.74023438 c 1
 633.609375 1073.15039062 l 0
 830.216796875 1073.15039062 l 1
 801.486328125 937.984375 l 1
 604.87890625 937.984375 l 0
EndSplineSet
Fore
SplineSet
650 844 m 1
 471 0 l 1
 213 0 l 1
 392 844 l 1
 253 844 l 1
 302 1073 l 1
 441 1073 l 1
 458 1153 l 2
 486 1286 681 1489 879 1489 c 0
 963 1489 1041 1458 1088 1400 c 1
 901 1221 l 1
 883 1249 841 1260 821 1260 c 0
 764 1260 733 1233 720 1173 c 2
 699 1073 l 1
 864 1073 l 1
 815 844 l 1
 650 844 l 1
EndSplineSet
EndChar

StartChar: g
Encoding: 103 103 126
Width: 1137
Flags: W
HStem: -461 224<367.18 652.984> -28 234<347.201 612.695> 866 234<611.018 837.595> 1053 20G<983.769 1246>
VStem: 81.2188 246.131<-198.673 -98.3365> 163.298 271.922<268.397 613.987>
LayerCount: 2
Back
SplineSet
356.15234375 538.624023438 m 0
 297.819335938 264.192382812 363.040039062 108.543945312 512.543945312 108.543945312 c 0
 625.18359375 108.543945312 798.145507812 247.807617188 859.959960938 538.624023438 c 1
 914.809570312 796.671875 793.551757812 958.463867188 654.288085938 958.463867188 c 1
 527.311523438 958.463867188 405.778320312 772.095703125 356.15234375 538.624023438 c 0
771.413085938 141.311523438 m 1
 756.6015625 119.807617188 659.940429688 -26.6240234375 494.052734375 -26.6240234375 c 1
 170.46875 -26.6240234375 143.349609375 260.095703125 203.422851562 542.719726562 c 0
 263.497070312 825.34375 441.354492188 1093.62988281 693.2578125 1093.62988281 c 0
 838.666015625 1093.62988281 893.241210938 1003.51953125 932.915039062 901.120117188 c 9
 969.481445312 1073.15039062 l 1
 1121.03320312 1073.15039062 l 1
 889.009765625 -18.431640625 l 2
 831.11328125 -290.81640625 615.322265625 -448.51171875 412.5703125 -448.51171875 c 1
 148.377929688 -448.51171875 77.2216796875 -243.711914062 89.568359375 -108.543945312 c 0
 89.568359375 -108.543945312 177.018554688 -108.543945312 232.928710938 -108.543945312 c 17
 226.112304688 -227.328125 314.32421875 -313.34375 433.108398438 -313.34375 c 0
 558.037109375 -313.34375 693.491210938 -225.280273438 734.411132812 -32.767578125 c 0
 771.413085938 141.311523438 l 1
EndSplineSet
Fore
SplineSet
448 537 m 0xe4
 439.17804322 495.830868359 435.220269029 458.613885072 435.220269029 425.286967372 c 0
 435.220269029 277.283133918 513.276332028 206 590 206 c 0
 687 206 828 282 882 537 c 0
 891.923781666 583.494754842 896.342599293 624.011726649 896.342599293 659.177777063 c 0
 896.342599293 815.366875953 809.173947748 866 730 866 c 0
 633 866 500 782 448 537 c 0xe4
745 -70 m 2
 793 157 l 1
 701 48 563 -28 447 -28 c 0
 247.401451808 -28 163.298453229 120.577189452 163.298453229 325.764658284 c 0
 163.298453229 389.913401168 171.518723788 459.595262024 187 532 c 0
 252 836 423 1100 687 1100 c 0xe4
 803 1100 909 1026 955 917 c 1
 988 1073 l 1
 1246 1073 l 1
 1007 -50 l 2
 962 -262 764 -461 454 -461 c 0
 168.079816209 -461 81.2187609384 -277.253112136 81.2187609384 -134.155482904 c 0
 81.2187609384 -122.103991589 81.8348476028 -110.340816666 83 -99 c 1
 83 -99 232 -92 328 -88 c 1
 327.568669882 -93.1759614167 327.349963388 -98.2797826754 327.349963388 -103.300701774 c 0xd8
 327.349963388 -179.763621201 378.072035067 -237 501 -237 c 0
 624 -237 722 -176 745 -70 c 2
EndSplineSet
EndChar

StartChar: h
Encoding: 104 104 127
Width: 1121
Flags: W
HStem: 0 21G<119 381.254 756 1018.25> 867 235<753.921 993.69> 1434 20G<423.75 686>
VStem: 892.554 278.114<530.461 842.959>
LayerCount: 2
Back
SplineSet
270.3359375 0 m 9
 118.784179688 0 l 1
 427.858398438 1454.08007812 l 1
 579.41015625 1454.08007812 l 1
 466.228515625 921.599609375 l 17
 551.53125 995.328125 650.685546875 1095.6796875 796.09375 1095.6796875 c 0
 1052.09375 1095.6796875 1092.40136719 880.639648438 1037.55175781 622.591796875 c 0
 905.215820312 0 l 1
 753.6640625 0 l 0
 885.12890625 618.49609375 l 0
 921.696289062 790.528320312 887.759765625 958.463867188 777.16796875 958.463867188 c 1
 650.19140625 958.463867188 447.07421875 831.48828125 410.5078125 659.456054688 c 0
 270.3359375 0 l 9
EndSplineSet
Fore
SplineSet
377 0 m 1
 119 0 l 1
 428 1454 l 1
 686 1454 l 1
 571 912 l 1
 650 1016 792 1102 934 1102 c 0
 1053.37927801 1102 1170.66778209 998.158228245 1170.66778209 798.038172069 c 0
 1170.66778209 758.441851074 1166.07597232 715.076264111 1156 668 c 2
 1014 0 l 1
 756 0 l 1
 870 537 l 2
 885.479643081 610.394859436 892.554088989 668.119012279 892.554088989 713.309229366 c 0
 892.554088989 837.440267126 839.175837021 867 760 867 c 0
 652 867 549 810 491 536 c 2
 377 0 l 1
EndSplineSet
EndChar

StartChar: i
Encoding: 105 105 128
Width: 534
Flags: HMW
LayerCount: 2
Back
SplineSet
404.22265625 1333.25 m 0
 415.10546875 1384.45019531 467.255859375 1427.45996094 518.456054688 1427.45996094 c 0
 569.65625 1427.45996094 603.521484375 1384.45019531 592.638671875 1333.25 c 0
 581.755859375 1282.04980469 529.606445312 1239.04003906 478.40625 1239.04003906 c 0
 427.206054688 1239.04003906 393.33984375 1282.04980469 404.22265625 1333.25 c 0
367.369140625 1073.15039062 m 1
 518.920898438 1073.15039062 l 1
 290.81640625 0 l 1
 139.263671875 0 l 1
 367.369140625 1073.15039062 l 1
EndSplineSet
Fore
SplineSet
367 1073 m 1
 625 1073 l 1
 397 0 l 1
 139 0 l 1
 367 1073 l 1
405 1334 m 0
 423 1421 506 1494 586 1494 c 0
 655.137720603 1494 702.615955597 1439.47784657 702.615955597 1368.51619506 c 0
 702.615955597 1357.3673565 701.444012864 1345.81272884 699 1334 c 0
 681 1247 598 1174 518 1174 c 0
 448.862279397 1174 401.384044403 1228.52215343 401.384044403 1299.48380494 c 0
 401.384044403 1310.6326435 402.555987136 1322.18727116 405 1334 c 0
EndSplineSet
EndChar

StartChar: j
Encoding: 106 106 129
Width: 534
Flags: W
HStem: -432 229<-152.106 80.2354> 1053 20G<362.742 625> 1174 320<476.008 627.992>
VStem: 401.384 301.232<1249.94 1418.06>
LayerCount: 2
Back
SplineSet
404.22265625 1333.25 m 0
 415.10546875 1384.45019531 467.255859375 1427.45996094 518.456054688 1427.45996094 c 0
 569.65625 1427.45996094 603.521484375 1384.45019531 592.638671875 1333.25 c 0
 581.755859375 1282.04980469 529.606445312 1239.04003906 478.40625 1239.04003906 c 0
 427.206054688 1239.04003906 393.33984375 1282.04980469 404.22265625 1333.25 c 0
-322.682617188 -352.255859375 m 9
 -194.548828125 -260.095703125 l 1
 -174.76171875 -282.624023438 -140.509765625 -294.912109375 -91.357421875 -294.912109375 c 1
 39.71484375 -294.912109375 94.861328125 -208.896484375 139.263671875 0 c 1
 367.369140625 1073.15039062 l 1
 518.920898438 1073.15039062 l 0
 290.81640625 0 l 1
 226.389648438 -303.103515625 84.7119140625 -430.080078125 -120.087890625 -430.080078125 c 1
 -222.48828125 -430.080078125 -283.54296875 -399.360351562 -322.682617188 -352.255859375 c 9
EndSplineSet
Fore
SplineSet
-307 -333 m 1
 -101 -161 l 1
 -90 -184 -55 -203 -20 -203 c 0
 47 -203 105 -156 119 -92 c 2
 367 1073 l 1
 625 1073 l 1
 390 -35 l 2
 346 -240 113 -432 -80 -432 c 0
 -182 -432 -251 -416 -307 -333 c 1
405 1334 m 0
 423 1421 506 1494 586 1494 c 0
 655.137720603 1494 702.615955597 1439.47784657 702.615955597 1368.51619506 c 0
 702.615955597 1357.3673565 701.444012864 1345.81272884 699 1334 c 0
 681 1247 598 1174 518 1174 c 0
 448.862279397 1174 401.384044403 1228.52215343 401.384044403 1299.48380494 c 0
 401.384044403 1310.6326435 402.555987136 1322.18727116 405 1334 c 0
EndSplineSet
EndChar

StartChar: k
Encoding: 107 107 130
Width: 999
Flags: W
HStem: 0 21G<119 381.234 692.921 996> 1053 20G<866 1201> 1434 20G<423.75 686>
LayerCount: 2
Back
SplineSet
551.869140625 630.784179688 m 1
 929.791992188 0 l 1
 755.711914062 0 l 1
 428.57421875 532.48046875 l 1
 372.200195312 479.232421875 l 1
 270.3359375 0 l 1
 118.784179688 0 l 1
 427.858398438 1454.08007812 l 1
 579.41015625 1454.08007812 l 1
 412.684570312 669.696289062 l 17
 899.848632812 1073.15039062 l 1
 1073.92871094 1073.15039062 l 1
 551.869140625 630.784179688 l 1
EndSplineSet
Fore
SplineSet
705 597 m 1
 996 0 l 1
 702 0 l 1
 490 467 l 1
 471 444 l 1
 377 0 l 1
 119 0 l 1
 428 1454 l 1
 686 1454 l 1
 529 716 l 1
 886 1073 l 1
 1201 1073 l 1
 705 597 l 1
EndSplineSet
EndChar

StartChar: l
Encoding: 108 108 131
Width: 561
Flags: W
HStem: -29 21G<385.507 488.215> 1434 20G<443.756 706>
VStem: 185.364 268.578<94.4702 425.438>
LayerCount: 2
Back
SplineSet
336.524414062 215.040039062 m 1
 319.546875 135.16796875 320.7734375 102.400390625 349.4453125 102.400390625 c 1
 321.5859375 -28.671875 l 1
 170.033203125 -28.671875 141.875976562 12.2880859375 184.1015625 210.944335938 c 1
 448.337890625 1454.08007812 l 1
 599.890625 1454.08007812 l 1
 336.524414062 215.040039062 l 1
EndSplineSet
Fore
SplineSet
457 281 m 2
 455.054242918 271.854941712 453.941399372 262.974901368 453.941399372 254.60297608 c 0
 453.941399372 219.94833159 473.009450994 194 531 194 c 1
 484 -29 l 1
 287.01448115 -29 185.363660441 18.6673490701 185.363660441 170.272957373 c 0
 185.363660441 201.06923007 189.55812634 236.154356323 198 276 c 2
 448 1454 l 1
 706 1454 l 1
 457 281 l 2
EndSplineSet
EndChar

StartChar: braceleft
Encoding: 123 123 132
Width: 747
Flags: W
HStem: 1348 213<794.025 932>
VStem: 297.524 238.02<45.2232 390.798> 348.231 231.447<165.641 677.008>
LayerCount: 2
Back
SplineSet
234.844726562 729.087890625 m 1
 523.463867188 815.103515625 512.865234375 1275.90039062 592.66796875 1400.83007812 c 1
 680.662109375 1525.75976562 811.734375 1525.75976562 949.822265625 1529.86035156 c 1
 921.090820312 1394.69042969 l 1
 907.190429688 1396.74023438 893.288085938 1398.78027344 878.952148438 1398.78027344 c 0
 825.704101562 1398.78027344 749.670898438 1378.29980469 714.776367188 1339.38964844 c 1
 700.619140625 1320.95996094 690.299804688 1282.04980469 680.72265625 1236.99023438 c 2
 671.146484375 1191.94042969 l 2
 645.4609375 1071.09960938 556.89453125 770.047851562 447.834960938 729.087890625 c 1
 540.352539062 692.223632812 495.278320312 364.543945312 468.2890625 237.568359375 c 0
 459.147460938 194.559570312 l 0
 448.69921875 145.408203125 442.4765625 106.49609375 448.798828125 88.064453125 c 1
 467.151367188 49.15234375 534.478515625 28.671875 587.7265625 28.671875 c 0
 602.0625 28.671875 616.833984375 30.7197265625 631.604492188 32.767578125 c 1
 602.874023438 -102.400390625 l 1
 466.529296875 -98.3037109375 335.45703125 -98.3037109375 300.571289062 26.6240234375 c 1
 273.876953125 151.551757812 487.767578125 647.16796875 234.844726562 729.087890625 c 1
EndSplineSet
Fore
SplineSet
235 729 m 1xa0
 500 811 520 1327 606 1444 c 0
 691 1559 819 1557 977 1561 c 1
 932 1348 l 1
 822 1348 767 1317 741 1196 c 0
 708 1042 641 782 509 729 c 1
 562.299205985 704.288549952 579.677484708 630.039089105 579.677484708 542.540604477 c 0xa0
 579.677484708 449.457912872 560.010238204 341.381111621 543 262 c 0
 538.029411765 238.867647059 535.544117647 219.061202422 535.544117647 202.154446748 c 0
 535.544117647 130.625865052 580.029411765 111 669 111 c 1
 623 -102 l 1
 467 -99 339 -101 302 14 c 0
 298.869565217 24.1739130435 297.52362949 37.3799621928 297.52362949 53.066491329 c 0xc0
 297.52362949 149.349325337 348.230677765 339.082251977 348.230677765 494.69941367 c 0
 348.230677765 605.292508918 322.620689655 698.655172414 235 729 c 1xa0
EndSplineSet
EndChar

StartChar: bar
Encoding: 124 124 133
Width: 468
Flags: W
HStem: 0 21G<115 362.25> 1434 20G<419.75 667>
VStem: 115 552
LayerCount: 2
Back
SplineSet
114.688476562 0 m 17
 423.762695312 1454.08007812 l 1
 567.122070312 1454.08007812 l 1
 258.047851562 0 l 9
 114.688476562 0 l 17
EndSplineSet
Fore
SplineSet
115 0 m 1
 424 1454 l 1
 667 1454 l 1
 358 0 l 1
 115 0 l 1
EndSplineSet
EndChar

StartChar: braceright
Encoding: 125 125 134
Width: 747
Flags: W
HStem: -102 213<145 287.572>
VStem: 496.323 231.447<780.292 1292.81> 540.553 237.924<1067.72 1412.81>
LayerCount: 2
Back
SplineSet
822.620117188 729.087890625 m 1
 534.872070312 647.16796875 539.375 157.696289062 459.573242188 32.767578125 c 1
 371.579101562 -92.16015625 240.506835938 -92.16015625 102.419921875 -96.255859375 c 1
 131.151367188 38.912109375 l 1
 145.051757812 36.8642578125 158.952148438 34.81640625 173.288085938 34.81640625 c 0
 226.536132812 34.81640625 302.569335938 55.2958984375 337.46484375 94.2080078125 c 1
 351.622070312 112.639648438 361.94140625 151.551757812 372.388671875 200.704101562 c 0
 381.530273438 243.711914062 l 0
 408.520507812 370.688476562 501.440429688 692.223632812 609.62890625 729.087890625 c 1
 517.982421875 770.047851562 557.397460938 1071.09960938 583.083007812 1191.94042969 c 2
 592.658203125 1236.99023438 l 2
 602.236328125 1282.04980469 608.458984375 1320.95996094 602.135742188 1339.38964844 c 1
 583.782226562 1378.29980469 516.456054688 1398.78027344 463.208007812 1398.78027344 c 0
 448.872070312 1398.78027344 434.102539062 1396.74023438 419.330078125 1394.69042969 c 1
 448.061523438 1529.86035156 l 1
 584.40625 1525.75976562 715.478515625 1525.75976562 750.36328125 1400.83007812 c 1
 777.056640625 1275.90039062 570.567382812 815.103515625 822.620117188 729.087890625 c 1
EndSplineSet
Fore
SplineSet
841 729 m 1xc0
 576 649 556 131 470 14 c 0
 385 -101 257 -99 99 -102 c 1
 145 111 l 1
 255 111 309 141 335 262 c 0
 368 416 435 678 567 729 c 1
 513.700794015 754.68052652 496.322515292 828.95995463 496.322515292 916.231848792 c 0xc0
 496.322515292 1009.07348879 515.989761796 1116.61888838 533 1196 c 0
 538.030250619 1219.4100125 540.552617767 1239.4512263 540.552617767 1256.55090988 c 0
 540.552617767 1327.83484902 496.718170457 1348 408 1348 c 1
 453 1561 l 1
 609 1557 737 1559 774 1444 c 0
 777.130434783 1433.82608696 778.47637051 1420.63516068 778.47637051 1404.97493219 c 0xa0
 778.47637051 1308.85352976 727.769322235 1119.70314843 727.769322235 964.177375046 c 0
 727.769322235 853.649227111 753.379310345 760.103448276 841 729 c 1xc0
EndSplineSet
EndChar

StartChar: asciitilde
Encoding: 126 126 135
Width: 759
Flags: W
HStem: 512 247<580.224 747.167> 664 247<308.198 453.246>
LayerCount: 2
Back
SplineSet
215.62109375 763.904296875 m 17
 268.51171875 800.767578125 340.528320312 860.16015625 418.352539062 860.16015625 c 0
 516.65625 860.16015625 547.931640625 708.608398438 652.37890625 708.608398438 c 1
 722.01171875 708.608398438 790.673828125 761.856445312 861.690429688 806.912109375 c 9
 830.783203125 661.50390625 l 17
 759.331054688 614.400390625 695.200195312 563.200195312 621.471679688 563.200195312 c 0
 506.784179688 563.200195312 467.317382812 714.751953125 385.397460938 714.751953125 c 0
 307.573242188 714.751953125 249.5859375 663.551757812 184.713867188 618.49609375 c 9
 215.62109375 763.904296875 l 17
EndSplineSet
Fore
SplineSet
225 808 m 1x40
 278 845 352 911 430 911 c 0x40
 528 911 569 759 673 759 c 0
 743 759 822 825 874 866 c 1
 819 606 l 1
 776 578 704 512 621 512 c 0x80
 506 512 456 664 374 664 c 0
 297 664 246 612 174 567 c 1
 225 808 l 1x40
EndSplineSet
EndChar

